<svg width="182" height="108" viewBox="0 0 182 108" fill="none" xmlns="http://www.w3.org/2000/svg">
<path d="M4.1796 104.163C4.16267 105.018 3.37221 105.019 3.37146 105.809C3.37141 105.858 3.17776 105.938 3.09712 105.922C1.58123 105.39 0.985338 104.342 0.826214 102.018C0.810417 101.663 1.02071 101.066 0.359164 101.212C0.0364674 101.276 0.101806 100.421 0.263185 100.356C1.02171 100.001 1.10351 98.7912 1.74926 98.2908C2.16899 97.968 1.84642 97.9036 1.60466 97.6777C0.266814 96.5164 0.219704 95.145 1.44708 93.7086C1.91542 93.1599 1.96446 92.4661 1.46466 92.1597C0.787492 91.7726 1.01407 90.9981 1.14346 90.6431C1.30528 90.1106 1.62822 89.804 1.12864 89.2717C0.983587 89.1265 1.14523 88.7876 1.43571 88.6746C2.42011 88.2871 2.45327 87.3351 1.76075 86.1252C1.42253 85.5445 0.907249 84.5443 1.68229 83.7857C2.00523 83.4629 1.97328 83.1402 1.98977 82.753C2.00722 81.3654 1.63746 80.0263 1.75171 78.6226C1.76802 78.4289 1.71978 78.2676 1.57473 78.1224C0.607659 77.2353 1.0923 76.493 1.73824 75.7829C0.819765 74.686 0.708227 73.2177 1.38697 71.9429C1.40313 71.9106 1.48384 71.8622 1.46772 71.8461C0.985413 70.1037 2.00308 68.6674 1.95633 66.9248C1.92562 65.2791 0.862018 64.1177 1.10556 62.4558C1.17053 61.9878 1.00973 61.4393 1.51005 61.1971C1.76828 61.068 1.80087 60.7291 1.63996 60.2935C1.38258 59.5192 1.52841 58.8415 2.27067 58.6315C1.44863 57.9057 1.33639 57.1635 1.85353 56.1953C2.09593 55.7434 2.11252 55.2594 1.85476 54.8884C1.17821 53.8398 1.13068 52.9524 1.72845 52.0003C1.79307 51.9034 1.92211 51.9195 1.87392 51.6937C1.3438 49.3382 2.07188 47.0629 2.13862 44.7234C2.18886 42.7711 0.996447 41.3354 1.3209 39.4153C1.36958 39.1087 1.20841 38.9636 0.982584 38.9475C0.756754 38.9314 0.59581 38.512 0.708794 38.4474C1.35443 38.06 1.16197 36.8822 1.67856 36.4948C2.6633 35.7523 2.77687 35.0585 2.00355 33.9938C1.66522 33.526 1.29425 33.4616 2.05293 32.9451C2.90847 32.364 2.91065 30.0728 2.25025 29.0081C1.87978 28.4113 1.92882 27.7174 2.1874 27.2172C2.55907 26.5394 2.70471 26.0715 2.12447 25.5392C2.02777 25.4424 1.96335 25.3134 1.88278 25.2166C2.77109 24.0869 1.12686 22.8288 2.07993 21.4571C2.80686 20.392 1.79235 18.4884 2.58409 17.1329C2.89108 16.6165 2.37482 16.6489 2.29441 16.3908C2.037 15.6486 1.74733 14.9065 2.69927 14.7288C2.89288 14.6964 3.21525 15.0029 3.24812 14.3575C3.2647 13.8896 3.28137 13.3087 2.94265 13.2604C2.3459 13.1315 2.47548 12.5668 2.50817 12.115C2.55728 11.3567 3.02485 11.6308 3.29908 11.6469C4.33143 11.7272 5.26707 11.7431 5.4463 9.85531C5.51142 9.22603 5.91445 9.5002 6.17258 9.484C9.75406 9.24096 13.3355 9.06247 16.9167 9.14213C18.1911 9.17404 19.45 8.51216 20.7884 9.02809C21.1109 9.15708 21.6767 7.96295 22.3862 8.2209C22.7894 8.366 23.2576 7.93023 23.5471 8.91437C23.724 9.49517 24.8855 9.41417 25.0633 9.02688C25.4836 8.12322 25.9671 8.55872 26.4027 8.54246C27.532 8.50987 28.6612 8.50955 29.7904 8.55764C30.0324 8.5737 30.0807 8.58982 30.2424 8.26708C30.5656 7.65387 31.0657 7.57306 31.3069 8.41199C31.4838 8.99279 31.8388 8.96042 32.0163 8.81516C33.55 7.63689 35.1946 8.49157 36.7758 8.21683C37.4857 8.10369 38.2597 8.4907 38.9218 7.66764C39.0995 7.44171 39.535 7.44159 39.8412 7.79646C40.2441 8.28039 40.6468 8.90953 41.0834 7.7477C41.229 7.37656 41.6482 7.5862 41.8091 7.98952C42.1149 8.73163 42.4537 8.74767 42.8253 8.13445C43.0353 7.77942 43.3094 7.92456 43.5514 7.92449C44.6645 7.90804 45.7937 7.92386 46.923 7.9074C47.1488 7.8912 47.4872 8.34288 47.5524 7.56839C47.6012 7.16501 47.9722 7.19717 48.1011 7.31008C49.342 8.63278 50.5215 6.68015 51.7954 7.2445C53.1499 7.82497 54.602 7.6148 56.0216 7.58213C56.6508 7.56582 57.3602 7.92059 57.8612 7.0169C57.9419 6.8878 58.2969 6.85543 58.3936 6.98448C59.328 8.30726 60.2168 6.59672 61.1844 6.90301C62.2649 7.2738 63.4103 7.20894 64.5234 7.25703C64.9267 7.27305 65.4103 7.61174 65.5726 6.59521C65.6537 6.09501 67.5408 6.41717 67.8791 6.93339C68.2978 7.65933 69.3302 7.67517 69.7988 6.90057C70.025 6.52941 70.283 6.65842 70.5088 6.65835C71.5089 6.72261 72.5092 6.57712 73.493 6.86726C74.0252 7.01233 74.783 7.49615 75.3327 6.22135C75.5914 5.60816 76.6235 5.89829 77.2524 6.10787C77.7362 6.28521 78.204 6.36575 78.688 6.31721C81.5757 6.12278 84.4627 6.79962 87.3505 6.62132C87.7215 6.60508 88.2535 6.95989 88.3674 5.94337C88.4 5.5884 88.6742 5.63673 88.8997 5.99163C89.4634 6.91115 89.7861 6.94332 90.287 6.03964C90.4324 5.79758 90.4968 5.9105 90.642 5.95886C91.4967 6.24905 92.5783 5.42587 93.2221 6.94235C93.2704 7.03915 93.4801 7.11976 93.5286 7.05521C94.6109 5.4253 95.981 6.58661 97.2072 6.37651C98.0624 6.21492 99.2556 6.76316 99.7883 6.39191C100.595 5.82697 100.886 5.95597 101.417 6.60121C101.498 6.71413 101.885 6.63334 101.918 6.48812C102.225 5.60062 102.467 5.11651 102.773 6.48788C102.789 6.56854 103.127 6.63299 103.16 6.55231C103.92 4.745 105.193 5.64819 106.129 5.76087C109.193 6.14723 112.242 6.19477 115.307 6.43593C116.339 6.51631 117.372 6.61282 118.404 6.58026C118.856 6.58013 119.436 6.95107 119.663 5.85384C119.696 5.64408 120.406 5.24052 120.679 6.19239C120.888 6.85385 121.404 6.90211 121.792 6.46636C122.583 5.54646 122.809 5.57867 123.324 6.85316C123.857 6.32057 124.342 4.90057 125.018 6.70747C125.115 6.9656 125.566 7.2559 125.954 6.86855C126.777 6.04545 127.616 5.65798 128.389 7.04535C128.518 7.2712 128.712 7.23887 128.889 7.07748C129.955 5.98001 131.633 5.915 132.6 6.97961C132.906 7.28609 133.035 7.10857 133.31 6.86647C133.746 6.47911 134.424 5.99488 134.616 7.35014C134.696 8.01164 135.035 7.81793 135.309 7.81786C137.858 7.83327 140.407 7.81641 142.956 7.83182C143.036 7.8318 143.149 7.86404 143.181 7.81563C143.811 6.89577 144.553 7.49254 145.247 7.42781C145.537 7.41159 146.166 7.84705 146.167 6.74989C146.167 6.49173 146.78 6.45929 146.99 6.63672C147.844 7.36254 148.554 7.15259 149.248 6.29725C149.313 6.21656 149.459 5.94222 149.684 6.28099C150.103 6.91012 150.684 6.74861 150.943 6.00634C151.04 5.7643 151.992 5.55427 152.056 5.79628C152.168 6.28029 152.604 6.3447 152.62 6.36083C153.441 8.55492 153.669 6.31213 153.782 5.95713C154.186 4.56943 155.009 5.05325 155.492 5.3758C155.992 5.71449 156.508 5.82728 156.815 5.5045C158.268 4.05197 160.01 4.32577 161.591 4.16397C164.963 3.79192 168.287 3.12945 171.675 2.83807C171.852 2.82188 172.159 2.75726 172.175 2.66045C172.435 0.514454 173.757 1.8694 174.516 1.35287C174.951 1.04619 175.468 0.820152 175.904 0.594143C177.275 -0.100039 178.808 -0.0520644 180.276 0.0927328C180.679 0.124888 180.436 0.802615 180.565 1.15754C180.71 1.57701 181.082 0.737892 181.162 1.35099C181.258 2.04476 180.629 1.80291 180.613 2.01267C180.563 3.3196 179.498 3.80394 179.352 4.7882C179.206 5.74019 179.092 7.09554 179.639 7.93439C180.3 8.96682 180.186 10.1931 179.959 11.129C179.797 11.8067 179.877 12.3875 179.812 13.0006C179.682 14.2753 180.31 15.5821 179.647 16.9053C179.534 17.1635 178.935 18.761 180.193 18.8574C180.226 18.8574 180.29 19.3576 180.257 19.5835C180.014 20.6969 179.916 21.8263 179.802 22.9719C179.623 24.6984 179.446 24.8436 180.203 26.3924C180.331 26.6505 180.363 27.2636 180.234 27.4411C179.685 28.1673 180.071 29.3935 179.441 30.039C179.425 30.0713 179.409 30.1036 179.392 30.152C178.908 31.0718 180.182 31.2328 179.794 32.0719C179.471 32.7981 179.405 33.4596 180.05 33.9435C180.211 34.0564 180.308 34.3629 180.243 34.4113C179.291 35.0892 180.273 36.6702 179.498 37.4126C179.434 37.4771 179.434 37.6708 179.417 37.7998C180.514 38.0738 179.803 39.3971 180.109 40.1714C180.238 40.4618 180.237 40.9943 179.834 41.2203C179.559 41.3817 179.543 41.8174 179.591 42.1884C179.783 43.705 179.991 45.1732 179.748 46.7707C179.683 47.2386 180.053 48.1259 180.181 48.8519C180.534 50.8041 180.226 52.6758 180.063 54.5959C179.981 55.7899 180.157 57.0484 180.285 58.2584C180.365 58.9199 180.671 59.533 179.929 59.8559C179.687 59.9527 179.799 60.4852 179.831 60.8401C180.135 63.2925 180.714 65.8578 180.357 68.2135C180.097 69.94 180.805 71.9083 179.739 73.4898C179.642 73.6673 179.528 74.9258 180.027 75.1838C180.495 75.4257 180.398 75.7807 180.478 76.2002C180.671 77.1844 180.573 78.0073 179.911 78.5883C179.637 78.8465 179.33 79.1048 179.927 79.2659C180.249 79.3627 180.233 79.6208 180.249 79.9435C180.312 80.8955 179.634 81.9444 180.472 82.8154C180.552 82.9122 180.552 83.5738 180.31 83.6061C179.261 83.6709 179.502 84.5905 179.55 85.4941C179.598 86.091 179.597 86.6719 179.258 87.3174C178.983 87.8176 178.966 88.8341 179.53 89.6407C180.094 90.4311 180.205 91.8671 179.866 92.8191C179.671 93.3839 179.558 93.9003 179.574 94.4488C179.588 96.0623 179.054 97.6275 179.424 99.257C179.504 99.5797 178.471 100.193 178.229 100.032C177.552 99.548 176.633 99.8871 176.519 100.516C176.308 101.517 175.937 101.372 175.47 101.388C174.324 101.421 173.179 101.405 172.017 101.647C170.775 101.906 169.517 101.196 168.243 101.374C167.484 101.471 166.726 101.423 166.129 102.246C166.08 102.31 165.628 102.891 165.306 102.181C165.097 101.681 163.064 101.827 162.741 102.198C161.804 103.296 161.675 103.183 160.272 102.522C159.966 102.36 158.918 102.038 158.61 103.232C158.513 103.684 158.287 103.894 157.932 103.878C157.335 103.846 156.77 104.023 156.173 104.136C155.754 104.233 155.318 104.443 154.9 103.507C154.513 102.636 153.577 103.508 152.947 103.685C152.173 103.912 151.834 104.008 151.851 102.734C151.852 102.056 151.417 102.024 151.029 102.008C147.206 102.025 143.383 102.01 139.56 102.027C139.253 102.027 138.785 101.866 138.833 102.608C138.913 103.706 138.397 103.577 137.897 103.561C132.848 103.191 127.798 103.209 122.75 102.661C122.298 102.613 121.685 102.178 121.378 103.372C121.265 103.791 120.329 103.856 119.991 103.308C119.298 102.227 118.62 102.453 117.878 103.018C117.748 103.131 117.684 103.211 117.523 103.082C116.233 102.034 116.249 102.115 114.812 103.132C114.377 103.438 113.634 103.616 113.28 102.809C112.99 102.116 112.458 102.148 112.248 102.406C111.392 103.487 110.393 102.649 109.489 102.939C108.876 103.149 109.2 102.1 108.732 101.972C108.135 101.826 107.812 102.585 107.344 102.601C105.344 102.65 103.343 102.635 101.359 102.538C100.907 102.506 100.343 102.587 99.9563 101.813C99.6665 101.232 99.4718 102.345 99.1008 102.345C97.7942 102.297 96.455 102.556 95.1647 102.25C93.5197 101.847 91.8742 101.912 90.2608 102.154C89.5348 102.251 88.7601 102.639 87.9857 102.639C87.5502 102.639 87.0822 102.801 86.8571 102.01C86.7284 101.574 86.2606 101.639 86.2603 101.929C86.3073 103.414 85.4853 102.672 85.2111 102.591C83.9854 102.269 82.7432 102.366 81.4849 102.35C81.2429 102.35 80.985 102.189 80.7748 102.609C80.5485 103.093 80.3226 103.222 80.1942 102.48C80.1943 102.415 79.904 102.335 79.8233 102.415C78.5638 103.674 77.1774 102.642 75.8704 102.949C75.6607 103.014 75.4187 102.981 75.3707 102.546C75.3069 101.787 74.7583 101.9 74.613 102.078C73.6764 103.111 72.6284 102.482 71.6281 102.644C71.2247 102.708 70.7249 102.45 70.5144 103.257C70.482 103.354 70.3045 103.467 70.2561 103.435C68.7572 102.015 67.1906 103.968 65.6748 103.291C65.4491 103.178 65.2876 103.355 65.2227 103.759C65.0929 104.485 64.8512 104.194 64.658 103.807C64.2233 102.936 64.1266 102.888 63.9161 103.678C63.7379 104.421 63.4963 104.114 63.1737 104.05C61.2059 103.744 59.1735 103.534 57.3017 104.035C55.9463 104.423 54.591 104.649 53.3007 104.44C51.72 104.166 50.1232 103.957 48.6225 104.328C47.3317 104.651 46.0571 104.845 44.7505 104.829C44.0891 104.813 43.4274 105.039 42.7665 104.588C42.573 104.459 42.1858 104.523 42.0565 104.717C41.1034 106.202 39.8944 105.266 38.8134 105.396C38.2003 105.46 37.5557 104.783 37.0064 105.687C36.8933 105.864 36.619 105.864 36.4902 105.622C36.2166 104.993 35.9908 104.945 35.6998 105.623C35.6513 105.735 35.3931 105.832 35.2963 105.752C34.0549 104.994 32.8117 106.156 31.586 105.753C30.4572 105.366 29.4254 104.624 28.1185 104.931C25.44 105.561 22.7293 106.142 19.9869 106.095C18.4206 107.789 16.5015 107.112 14.7428 107.5C12.9518 107.904 11.0805 107.84 9.24141 107.953C8.75742 107.986 7.46796 106.841 7.09744 106.292C6.59809 105.518 5.77542 105.486 5.13036 105.26C4.59818 105.083 4.45334 104.696 4.1796 104.163Z" fill="#E17800"/>
</svg>
