<svg width="154" height="42" viewBox="0 0 154 42" fill="none" xmlns="http://www.w3.org/2000/svg">
<path d="M3.951 40.3638C3.93243 40.6965 3.27474 40.6952 3.26543 41.002C3.26539 41.019 3.10539 41.0522 3.03949 41.0434C1.75941 40.8374 1.25518 40.428 1.11734 39.5268C1.10064 39.387 1.28041 39.1585 0.718582 39.2119C0.444212 39.2382 0.506399 38.9083 0.641192 38.8791C1.27636 38.7437 1.34706 38.2733 1.89461 38.083C2.24429 37.9588 1.97536 37.9312 1.76614 37.8476C0.631935 37.3954 0.588373 36.8625 1.6334 36.3122C2.03171 36.1005 2.07052 35.8326 1.64667 35.7134C1.07458 35.5603 1.26755 35.2652 1.37348 35.1246C1.51104 34.9179 1.77686 34.8006 1.35415 34.5944C1.23406 34.5403 1.36178 34.4079 1.6168 34.3627C2.45362 34.2115 2.48194 33.8482 1.89738 33.3771C1.61526 33.1494 1.17156 32.765 1.82836 32.474C2.10485 32.3518 2.0765 32.2247 2.08745 32.0752C2.09818 31.5376 1.79142 31.0157 1.88843 30.4734C1.89959 30.4382 1.89226 30.4023 1.86704 30.3687C1.84181 30.335 1.79943 30.3046 1.74341 30.2799C0.92644 29.9372 1.3283 29.6463 1.87504 29.3743C1.10379 28.9514 0.997777 28.3804 1.57208 27.8876C1.5881 27.8727 1.65163 27.8553 1.64098 27.8482C1.23953 27.1716 2.10039 26.6159 2.05709 25.9459C2.02585 25.3086 1.13106 24.8595 1.33634 24.2144C1.39824 24.0371 1.2581 23.8214 1.67655 23.7271C1.89183 23.6778 1.92698 23.5475 1.7916 23.3777C1.57214 23.077 1.69284 22.8146 2.33033 22.7329C1.63685 22.4474 1.54483 22.16 1.98077 21.7911C2.1866 21.6187 2.20392 21.4311 1.9769 21.2809C1.40773 20.8737 1.36622 20.5313 1.86856 20.1603C1.9171 20.1225 2.0368 20.1287 1.99722 20.0412C1.55212 19.1294 2.16547 18.2476 2.22488 17.3445C2.26753 16.588 1.25809 16.032 1.53626 15.2906C1.57768 15.174 1.43578 15.116 1.24338 15.1101C1.05487 15.1004 0.918982 14.9427 1.00675 14.9176C1.5518 14.7711 1.39565 14.3137 1.83214 14.1603C2.65904 13.8736 2.76763 13.6076 2.1059 13.1922C1.81545 13.0118 1.50726 12.9841 2.15127 12.7851C2.87288 12.5631 2.87459 11.6754 2.31172 11.2622C2.17197 11.1582 2.09372 11.0394 2.0847 10.9175C2.07567 10.7957 2.13617 10.6749 2.26023 10.5672C2.57334 10.3074 2.70359 10.1222 2.21303 9.91432C2.13264 9.87957 2.08136 9.82934 2.0102 9.7875C2.75645 9.34976 1.36981 8.85955 2.17924 8.3301C2.79167 7.92182 1.93913 7.18111 2.60655 6.65738C2.86816 6.45981 2.42807 6.46761 2.36186 6.36855C2.14626 6.07979 1.89285 5.79095 2.70964 5.72598C2.873 5.71077 3.14805 5.83019 3.17519 5.58092C3.18281 5.39994 3.2036 5.17662 2.91236 5.1541C2.40163 5.10033 2.52127 4.8854 2.54196 4.70822C2.57984 4.41772 2.97415 4.52406 3.20581 4.52895C4.07427 4.55968 4.87589 4.56677 5.02414 3.83797C5.07308 3.59585 5.41893 3.69943 5.6351 3.69341C8.66344 3.60276 11.6898 3.53983 14.7261 3.58162C15.8059 3.59723 16.8678 3.34397 17.9953 3.54156C18.2622 3.59043 18.7444 3.12911 19.3529 3.23209C19.6921 3.28842 20.0845 3.12259 20.3362 3.50148C20.4836 3.72957 21.4647 3.69464 21.6132 3.55008C21.9672 3.19986 22.3745 3.36833 22.7414 3.36527C23.6949 3.35336 24.6481 3.35756 25.6009 3.37788C25.8078 3.38648 25.851 3.39056 25.9859 3.26417C26.2544 3.02491 26.6815 2.99801 26.8902 3.31937C27.0386 3.54634 27.3439 3.53162 27.4972 3.4758C28.7941 3.01938 30.1849 3.35832 31.5281 3.2551C32.134 3.21013 32.7793 3.36332 33.343 3.04899C33.4935 2.963 33.8647 2.9626 34.1257 3.10107C34.4646 3.29226 34.8005 3.53335 35.1731 3.08091C35.2921 2.93519 35.6457 3.01949 35.7869 3.17769C36.0486 3.46388 36.3277 3.47485 36.6442 3.23324C36.8238 3.09341 37.052 3.15152 37.2623 3.15037C38.2016 3.14508 39.1612 3.15403 40.1097 3.15208C40.2997 3.14912 40.594 3.31915 40.6474 3.0187C40.6841 2.86351 41.0088 2.877 41.1144 2.92001C42.168 3.4322 43.1674 2.68131 44.2468 2.90231C45.3872 3.13186 46.6247 3.05284 47.8262 3.03852C48.3594 3.03356 48.9528 3.17378 49.3887 2.82594C49.4571 2.77705 49.764 2.76655 49.8385 2.81527C50.6343 3.32962 51.38 2.66519 52.1974 2.78943C53.1063 2.93314 54.0825 2.91261 55.0251 2.93306C55.361 2.93925 55.7766 3.06937 55.9155 2.6777C55.9808 2.48308 57.5872 2.61438 57.8645 2.81454C58.2221 3.09538 59.0955 3.1026 59.4891 2.80392C59.6866 2.6619 59.8993 2.71022 60.0903 2.71325C60.9321 2.74127 61.7813 2.68568 62.6215 2.80175C63.0745 2.86162 63.7125 3.04784 64.1729 2.55387C64.3885 2.31695 65.267 2.42888 65.7976 2.51064C66.2084 2.57798 66.6063 2.61135 67.0091 2.59394C69.4524 2.52323 71.8931 2.79166 74.3422 2.72807C74.6548 2.7249 75.1092 2.86263 75.2049 2.46999C75.2367 2.33519 75.465 2.35116 75.6498 2.4917C76.128 2.84751 76.4032 2.8618 76.8173 2.5148C76.9367 2.42276 77.0016 2.4668 77.1155 2.48254C77.8422 2.59485 78.7574 2.28098 79.2957 2.86382C79.333 2.89849 79.5161 2.93079 79.5496 2.91C80.4644 2.28005 81.6252 2.7319 82.6621 2.65293C83.3858 2.59377 84.3979 2.80489 84.8431 2.66202C85.5191 2.44772 85.773 2.49656 86.2256 2.74897C86.2968 2.79103 86.6216 2.76082 86.6503 2.70853C86.9117 2.3639 87.118 2.17709 87.3695 2.70991C87.3767 2.73965 87.6709 2.76395 87.7024 2.7385C88.3469 2.04105 89.4202 2.39246 90.216 2.43858C92.8106 2.59108 95.3909 2.61691 97.9807 2.71372C98.8492 2.74623 99.7302 2.78719 100.603 2.77778C100.982 2.7774 101.48 2.92253 101.67 2.49924C101.703 2.41613 102.3 2.26379 102.536 2.62912C102.709 2.88631 103.156 2.90536 103.472 2.73917C104.145 2.38557 104.337 2.39592 104.774 2.89472C105.231 2.69154 105.637 2.1409 106.213 2.84404C106.293 2.94711 106.675 3.0592 107.007 2.90834C107.709 2.5894 108.419 2.44282 109.065 2.98062C109.175 3.06956 109.341 3.05812 109.483 2.99141C110.387 2.56817 111.799 2.54671 112.618 2.96263C112.873 3.08312 112.98 3.01523 113.225 2.91943C113.587 2.76819 114.172 2.58655 114.325 3.10854C114.39 3.36463 114.685 3.29089 114.906 3.29309C117.063 3.30213 119.223 3.30296 121.374 3.30888C121.44 3.30901 121.539 3.3234 121.561 3.30414C122.091 2.95027 122.725 3.17884 123.314 3.15735C123.556 3.15072 124.094 3.32277 124.096 2.89424C124.096 2.79443 124.615 2.78057 124.798 2.85256C125.514 3.13675 126.118 3.05718 126.715 2.72694C126.773 2.69667 126.895 2.59199 127.082 2.71989C127.439 2.96457 127.922 2.90317 128.153 2.61349C128.233 2.52137 129.047 2.4402 129.096 2.53501C129.187 2.72239 129.564 2.74885 129.572 2.75618C130.265 3.60993 130.455 2.74081 130.553 2.59904C130.891 2.06358 131.598 2.25325 132 2.37891C132.423 2.50837 132.857 2.55268 133.115 2.43274C134.349 1.87106 135.811 1.985 137.159 1.92216C140.01 1.7857 142.831 1.53383 145.688 1.42466C145.84 1.42052 146.1 1.39573 146.113 1.35894C146.331 0.529573 147.451 1.05764 148.098 0.855931C148.465 0.737748 148.906 0.648989 149.276 0.563195C150.436 0.299261 151.736 0.320841 152.979 0.378245C153.319 0.394425 153.11 0.651986 153.221 0.789944C153.343 0.951878 153.652 0.628409 153.728 0.867888C153.813 1.13711 153.273 1.04246 153.259 1.12561C153.21 1.62858 152.319 1.81562 152.196 2.19512C152.072 2.56353 151.969 3.08547 152.44 3.41554C152.995 3.81587 152.897 4.29146 152.707 4.65087C152.567 4.91521 152.644 5.13872 152.581 5.37549C152.471 5.87147 152.996 6.37443 152.448 6.88576C152.351 6.9856 151.853 7.60327 152.911 7.64279C152.941 7.64285 152.992 7.83614 152.962 7.92237C152.751 8.35338 152.679 8.79176 152.572 9.23184C152.414 9.89696 152.267 9.95613 152.912 10.5565C153.017 10.6547 153.049 10.8926 152.94 10.9611C152.481 11.2386 152.8 11.7185 152.263 11.9675C152.248 11.9813 152.234 11.9956 152.222 12.0102C151.809 12.3643 152.896 12.427 152.567 12.7548C152.295 13.0378 152.232 13.2936 152.784 13.4806C152.919 13.5252 153.002 13.644 152.942 13.6643C152.131 13.9273 152.97 14.5409 152.312 14.828C152.26 14.8514 152.263 14.9269 152.242 14.9792C153.176 15.0876 152.57 15.6009 152.826 15.8966C152.936 16.0112 152.939 16.2131 152.591 16.3005C152.361 16.3624 152.346 16.5311 152.386 16.6721C152.552 17.2575 152.732 17.8279 152.521 18.445C152.468 18.6241 152.78 18.9699 152.883 19.2529C153.177 20.0076 152.916 20.7306 152.776 21.4754C152.701 21.9391 152.853 22.4249 152.967 22.8923C153.035 23.1495 153.288 23.3853 152.662 23.5107C152.456 23.5472 152.558 23.7561 152.581 23.8941C152.836 24.845 153.322 25.8399 153.023 26.7516C152.805 27.4215 153.408 28.1859 152.5 28.7923C152.415 28.8587 152.328 29.3505 152.745 29.4514C153.133 29.5435 153.06 29.6831 153.121 29.8485C153.286 30.2305 153.197 30.5502 152.638 30.7698C152.401 30.8694 152.14 30.9685 152.645 31.0344C152.922 31.0725 152.907 31.1703 152.916 31.2952C152.964 31.6623 152.4 32.068 153.099 32.4045C153.167 32.4422 153.172 32.6979 152.962 32.7082C152.068 32.7344 152.278 33.0839 152.325 33.436C152.368 33.6699 152.364 33.8944 152.074 34.1416C151.839 34.3376 151.825 34.7266 152.309 35.0406C152.78 35.3502 152.876 35.9029 152.598 36.2699C152.437 36.4914 152.343 36.6878 152.349 36.9018C152.368 37.5258 151.91 38.1325 152.223 38.7648C152.292 38.8893 151.419 39.1285 151.207 39.0634C150.635 38.8735 149.855 39.004 149.757 39.2465C149.573 39.6347 149.266 39.5758 148.871 39.581C147.896 39.5913 146.926 39.581 145.948 39.6767C144.899 39.777 143.838 39.4952 142.754 39.5632C142.119 39.5993 141.472 39.5772 140.966 39.8943C140.925 39.9206 140.538 40.1434 140.276 39.8666C140.106 39.6741 138.378 39.7225 138.1 39.8664C137.312 40.2885 137.193 40.2417 136.016 39.9894C135.751 39.9288 134.874 39.7996 134.604 40.264C134.52 40.4399 134.333 40.5227 134.036 40.5122C133.532 40.4959 133.055 40.5664 132.554 40.6111C132.204 40.6451 131.827 40.7275 131.472 40.3651C131.145 40.0286 130.353 40.3629 129.815 40.4306C129.165 40.5159 128.876 40.5555 128.883 40.0602C128.886 39.7965 128.518 39.782 128.181 39.7792C124.944 39.7785 121.706 39.7667 118.474 39.7678C118.212 39.7673 117.824 39.702 117.864 39.9944C117.935 40.4215 117.489 40.3707 117.072 40.3611C112.804 40.2107 108.525 40.208 104.252 39.989C103.871 39.9701 103.354 39.8007 103.088 40.2614C102.991 40.4229 102.198 40.4451 101.911 40.2354C101.327 39.8161 100.757 39.9031 100.127 40.121C100.016 40.1638 99.962 40.1935 99.824 40.1442C98.727 39.7375 98.7458 39.769 97.5286 40.159C97.1663 40.2744 96.5288 40.3448 96.2275 40.0288C95.977 39.7608 95.5282 39.7684 95.3554 39.8681C94.6305 40.2881 93.7869 39.958 93.0258 40.0727C92.5133 40.1527 92.7797 39.7453 92.3819 39.6955C91.8736 39.638 91.6021 39.9325 91.2138 39.9388C89.5175 39.9548 87.8314 39.9465 86.1458 39.902C85.762 39.8897 85.2918 39.9203 84.957 39.6185C84.718 39.3962 84.5538 39.822 84.2296 39.8202C83.1183 39.7983 81.9879 39.8951 80.8952 39.7774C79.5041 39.6195 78.1072 39.6412 76.7447 39.7293C76.1349 39.7645 75.4755 39.9145 74.8129 39.9132C74.4509 39.9125 74.0504 39.9783 73.8538 39.6674C73.745 39.497 73.3505 39.5244 73.3537 39.6334C73.3899 40.2057 72.6954 39.9167 72.4706 39.8892C71.4283 39.7634 70.3775 39.8 69.3205 39.7924C69.1184 39.792 68.8936 39.7306 68.7237 39.8904C68.5294 40.0781 68.3398 40.1294 68.2391 39.8375C68.2367 39.8129 67.9877 39.7805 67.9217 39.809C66.8623 40.2923 65.679 39.8934 64.5723 40.0106C64.4002 40.0338 64.1899 40.0252 64.1543 39.8545C64.1064 39.5628 63.6411 39.6031 63.5077 39.6732C62.7179 40.0691 61.8314 39.829 60.987 39.8868C60.6443 39.9132 60.2238 39.8077 60.0512 40.121C60.0249 40.1595 59.8683 40.2038 59.8383 40.1911C58.5685 39.6413 57.2503 40.3924 55.9611 40.1297C55.7712 40.0875 55.6402 40.1544 55.5774 40.3089C55.4736 40.5884 55.2644 40.4766 55.0927 40.3273C54.7196 39.9921 54.6402 39.9715 54.4627 40.277C54.3085 40.564 54.1124 40.4447 53.8324 40.4167C52.1712 40.2926 50.4542 40.2083 48.8583 40.4033C47.7069 40.5512 46.5683 40.6356 45.4755 40.5521C44.142 40.4406 42.7846 40.3614 41.5194 40.5001C40.4228 40.6206 39.3462 40.6955 38.2461 40.6859C37.6892 40.6792 37.1215 40.7629 36.5664 40.5906C36.4032 40.5419 36.0711 40.5643 35.9663 40.6373C35.1539 41.2098 34.1373 40.8485 33.2231 40.8966C32.7011 40.9205 32.1573 40.6564 31.6885 41.0046C31.5885 41.0725 31.3592 41.0721 31.2572 40.9756C31.0216 40.7312 30.8292 40.7128 30.5946 40.9761C30.5499 41.0204 30.3405 41.0563 30.2553 41.0282C29.206 40.735 28.1593 41.1832 27.1156 41.0222C26.1553 40.8711 25.2864 40.5839 24.1874 40.6985C21.9154 40.9394 19.6341 41.1595 17.3097 41.1342C15.9844 41.7886 14.3569 41.5208 12.8668 41.6672C11.348 41.8178 9.76468 41.7921 8.21368 41.8337C7.80848 41.8445 6.7077 41.4021 6.39696 41.1859C5.98025 40.8845 5.28285 40.8694 4.73099 40.7814C4.29928 40.714 4.17452 40.5667 3.94422 40.36" fill="#0072CE"/>
</svg>
