<svg width="221" height="48" viewBox="0 0 221 48" fill="none" xmlns="http://www.w3.org/2000/svg">
<path d="M4.9426 45.8205C4.92254 46.1888 3.95836 46.1891 3.95801 46.5296C3.95799 46.5504 3.72183 46.5852 3.62345 46.5783C1.77404 46.3494 1.04645 45.8979 0.850715 44.8972C0.831196 44.7444 1.08728 44.4872 0.280452 44.5499C-0.113118 44.5778 -0.0340238 44.2095 0.162776 44.1816C1.08776 44.0285 1.18668 43.5073 1.97399 43.2917C2.48573 43.1525 2.09223 43.1248 1.79717 43.0276C0.164492 42.5277 0.10606 41.937 1.60216 41.3181C2.17304 41.0817 2.23237 40.7828 1.62252 40.651C0.796252 40.4844 1.07208 40.1507 1.22966 39.9978C1.42667 39.7684 1.82036 39.6363 1.2106 39.4071C1.03357 39.3446 1.2305 39.1986 1.58474 39.1499C2.78521 38.9828 2.82499 38.5728 1.97941 38.0518C1.56645 37.8017 0.937225 37.371 1.88206 37.0442C2.27575 36.9051 2.23654 36.7661 2.25639 36.5993C2.27669 36.0017 1.82473 35.425 1.96309 34.8203C1.98285 34.7369 1.92389 34.6675 1.74687 34.6049C0.566635 34.223 1.15726 33.9032 1.94466 33.5972C0.823556 33.125 0.686469 32.4926 1.51348 31.9434C1.53317 31.9295 1.63158 31.9086 1.61191 31.9017C1.02237 31.1513 2.26268 30.5325 2.20442 29.7819C2.1658 29.0731 0.867636 28.5731 1.16353 27.8572C1.24245 27.6557 1.04592 27.4194 1.65602 27.315C1.97091 27.2594 2.01042 27.1134 1.81385 26.9258C1.49936 26.5923 1.67675 26.3004 2.58199 26.2099C1.57878 25.8974 1.44136 25.5778 2.07145 25.1606C2.36681 24.966 2.38671 24.7575 2.07204 24.5977C1.24607 24.1462 1.18746 23.764 1.91594 23.3538C1.99469 23.3121 2.15209 23.319 2.09316 23.2217C1.44487 22.2073 2.33136 21.2272 2.41111 20.2195C2.47101 19.3786 1.01553 18.7605 1.40992 17.9334C1.46909 17.8014 1.2724 17.7389 0.996931 17.732C0.721458 17.7251 0.524848 17.5445 0.662617 17.5166C1.44987 17.3497 1.21429 16.8424 1.84412 16.6755C3.04476 16.3555 3.1828 16.0566 2.23878 15.5982C1.82577 15.3968 1.37322 15.3691 2.29827 15.1465C3.34142 14.896 3.34246 13.9092 2.53617 13.4508C2.08387 13.1937 2.14319 12.8949 2.45825 12.6794C2.91112 12.3874 3.08844 12.1858 2.3803 11.9567C2.26228 11.915 2.18361 11.8594 2.08527 11.8178C3.16801 11.331 1.16153 10.7895 2.32309 10.1985C3.20904 9.73961 1.97022 8.91989 2.93501 8.3359C3.3091 8.11343 2.6794 8.12748 2.58113 8.01632C2.26663 7.69672 1.91277 7.37714 3.0738 7.3004C3.30994 7.28644 3.70337 7.41839 3.74301 7.1404C3.7629 6.93886 3.78283 6.68868 3.36963 6.66793C2.64164 6.61252 2.7993 6.36925 2.83885 6.17466C2.89822 5.84802 3.46875 5.96602 3.80325 5.97288C5.06255 6.00731 6.20382 6.01398 6.42111 5.20085C6.50009 4.9298 6.99189 5.04781 7.30673 5.04078C11.6752 4.93545 16.0436 4.85791 20.4118 4.89156C21.9663 4.90507 23.5014 4.61976 25.1344 4.84173C25.5279 4.89723 26.2171 4.3828 27.0828 4.49377C27.5746 4.55619 28.1455 4.36842 28.4992 4.79224C28.7154 5.04237 30.1322 5.00726 30.3488 4.84042C30.8608 4.45113 31.4509 4.63861 31.9822 4.63153C33.3596 4.61729 34.737 4.61694 36.1144 4.63744C36.4096 4.64432 36.4686 4.65125 36.6655 4.51222C37.0593 4.24804 37.6693 4.21314 37.9641 4.57443C38.1803 4.82456 38.6132 4.81055 38.8297 4.74795C40.6996 4.24018 42.7063 4.60799 44.6347 4.48937C45.5006 4.44051 46.4449 4.60705 47.252 4.25243C47.4686 4.15509 47.9999 4.15495 48.3736 4.30775C48.8653 4.51611 49.3569 4.78701 49.8887 4.28652C50.066 4.12664 50.5775 4.21685 50.7741 4.39054C51.1476 4.71012 51.5608 4.71696 52.0137 4.45277C52.2697 4.29982 52.6041 4.36228 52.8992 4.36221C54.257 4.35492 55.6344 4.36152 57.0118 4.35423C57.2872 4.34721 57.7003 4.54169 57.7793 4.20809C57.8385 4.03434 58.2911 4.04813 58.4484 4.09674C59.963 4.66621 61.4003 3.82497 62.9545 4.06781C64.6071 4.31757 66.3782 4.22679 68.1098 4.21245C68.8772 4.20531 69.7428 4.35798 70.3532 3.96866C70.4517 3.91304 70.8846 3.89904 71.0026 3.9546C72.1433 4.52417 73.2263 3.78726 74.4068 3.919C75.7249 4.0785 77.1221 4.05036 78.4798 4.07087C78.9717 4.07769 79.5618 4.22348 79.7591 3.78562C79.8577 3.57016 82.1597 3.70857 82.5727 3.93085C83.084 4.24344 84.3433 4.25008 84.9143 3.91636C85.19 3.75646 85.5047 3.81198 85.7802 3.81191C87.0002 3.8394 88.2202 3.77655 89.4204 3.90134C90.0697 3.96372 90.9943 4.17197 91.6639 3.6228C91.979 3.35864 93.2382 3.48341 94.0055 3.57356C94.5957 3.64986 95.1663 3.68446 95.7567 3.66347C99.279 3.57919 102.801 3.87018 106.323 3.79285C106.776 3.78579 107.425 3.93851 107.563 3.50067C107.603 3.34777 107.937 3.36854 108.212 3.52135C108.901 3.9173 109.294 3.9311 109.905 3.54178C110.082 3.43749 110.16 3.48612 110.338 3.50692C111.38 3.63175 112.699 3.277 113.485 3.93005C113.544 3.97173 113.8 4.00641 113.859 3.9786C115.178 3.27638 116.85 3.77631 118.346 3.6856C119.389 3.61584 120.845 3.85176 121.494 3.69176C122.478 3.44828 122.832 3.50379 123.482 3.7816C123.58 3.83022 124.052 3.79536 124.092 3.7328C124.466 3.35049 124.761 3.14193 125.134 3.73254C125.154 3.76728 125.567 3.79498 125.607 3.76022C126.532 2.98165 128.086 3.37043 129.228 3.41879C132.966 3.58464 136.685 3.60455 140.424 3.70786C141.683 3.74229 142.942 3.78367 144.202 3.76946C144.752 3.76932 145.461 3.92897 145.737 3.45635C145.776 3.36599 146.642 3.19204 146.976 3.60197C147.232 3.88684 147.861 3.90753 148.334 3.71977C149.298 3.32342 149.574 3.33725 150.203 3.88609C150.853 3.6566 151.443 3.0449 152.269 3.82303C152.387 3.93419 152.938 4.05914 153.41 3.89223C154.414 3.53756 155.438 3.37052 156.381 3.96793C156.539 4.06519 156.775 4.05123 156.991 3.98168C158.291 3.50879 160.337 3.48048 161.517 3.93885C161.891 4.07079 162.048 3.99431 162.383 3.88998C162.914 3.72307 163.741 3.51438 163.977 4.09807C164.075 4.38297 164.488 4.29947 164.823 4.29939C167.932 4.30556 171.041 4.29783 174.15 4.304C174.248 4.30397 174.386 4.31784 174.425 4.29698C175.193 3.90067 176.098 4.15757 176.944 4.12956C177.298 4.12252 178.065 4.30997 178.066 3.83741C178.066 3.72621 178.814 3.71213 179.069 3.78851C180.112 4.10097 180.978 4.01041 181.824 3.64188C181.903 3.60711 182.08 3.48893 182.356 3.6348C182.867 3.90569 183.575 3.83602 183.891 3.51627C184.009 3.412 185.17 3.32137 185.248 3.42559C185.386 3.63404 185.917 3.6617 185.937 3.66864C186.939 4.61351 187.216 3.64748 187.354 3.49455C187.846 2.89678 188.85 3.10501 189.44 3.24385C190.05 3.38964 190.679 3.43813 191.053 3.29904C192.825 2.67315 194.95 2.79076 196.878 2.72078C200.991 2.55991 205.045 2.27397 209.177 2.14784C209.393 2.14084 209.767 2.11295 209.787 2.07125C210.103 1.1469 211.716 1.73024 212.641 1.50763C213.172 1.37546 213.802 1.27801 214.333 1.18058C216.006 0.88134 217.876 0.901721 219.666 0.963817C220.158 0.977592 219.863 1.26954 220.02 1.42239C220.197 1.60303 220.65 1.24155 220.748 1.5056C220.866 1.80439 220.098 1.70034 220.078 1.79069C220.019 2.35361 218.72 2.56242 218.542 2.98638C218.365 3.39643 218.227 3.98022 218.895 4.34142C219.701 4.78598 219.563 5.31417 219.287 5.71731C219.09 6.00923 219.188 6.25938 219.109 6.52348C218.951 7.07252 219.718 7.63523 218.911 8.20529C218.773 8.31651 218.044 9.00468 219.579 9.046C219.618 9.04599 219.697 9.2614 219.657 9.3587C219.362 9.83828 219.243 10.3248 219.105 10.8182C218.888 11.5619 218.671 11.6245 219.595 12.2914C219.753 12.4025 219.792 12.6666 219.634 12.7431C218.965 13.056 219.437 13.584 218.669 13.8622C218.649 13.8761 218.63 13.89 218.61 13.9108C218.019 14.3071 219.573 14.3762 219.101 14.7377C218.707 15.0505 218.628 15.3354 219.415 15.5437C219.612 15.5923 219.73 15.7243 219.651 15.7452C218.49 16.0374 219.689 16.7181 218.744 17.038C218.666 17.0658 218.665 17.1492 218.646 17.2048C219.984 17.3226 219.117 17.8927 219.491 18.2262C219.648 18.3512 219.648 18.5806 219.156 18.678C218.821 18.7476 218.801 18.9352 218.86 19.095C219.096 19.7482 219.351 20.3805 219.055 21.0686C218.976 21.2701 219.428 21.6523 219.585 21.9649C220.017 22.8057 219.643 23.6119 219.445 24.439C219.346 24.9532 219.562 25.4952 219.719 26.0164C219.817 26.3013 220.191 26.5653 219.285 26.7045C218.99 26.7463 219.128 26.9756 219.167 27.1285C219.54 28.1847 220.247 29.2894 219.813 30.3042C219.497 31.0478 220.362 31.8954 219.063 32.5768C218.945 32.6533 218.806 33.1954 219.416 33.3064C219.987 33.4105 219.868 33.5634 219.967 33.7441C220.202 34.1679 220.084 34.5224 219.277 34.7728C218.942 34.884 218.568 34.9953 219.296 35.0646C219.69 35.1062 219.67 35.2174 219.69 35.3564C219.768 35.7664 218.941 36.2183 219.964 36.5933C220.062 36.635 220.062 36.9199 219.767 36.9339C218.488 36.962 218.782 37.3581 218.841 37.7472C218.9 38.0043 218.899 38.2545 218.486 38.5326C218.151 38.7481 218.131 39.1859 218.819 39.5332C219.508 39.8736 219.645 40.492 219.231 40.9022C218.995 41.1454 218.857 41.3679 218.876 41.6041C218.895 42.2991 218.245 42.9733 218.697 43.6751C218.795 43.8141 217.536 44.0785 217.241 44.009C216.414 43.8008 215.293 43.947 215.155 44.218C214.898 44.649 214.446 44.5865 213.875 44.5936C212.478 44.6079 211.081 44.6013 209.664 44.7059C208.149 44.8175 206.614 44.5121 205.06 44.5889C204.135 44.6308 203.21 44.6102 202.482 44.9648C202.423 44.9926 201.872 45.2429 201.478 44.9373C201.223 44.7219 198.743 44.7851 198.35 44.945C197.208 45.4178 197.051 45.3692 195.339 45.0847C194.965 45.0153 193.686 44.8767 193.312 45.391C193.194 45.5856 192.918 45.676 192.485 45.6692C191.757 45.6555 191.068 45.7321 190.34 45.7809C189.829 45.8228 189.297 45.9132 188.786 45.5103C188.314 45.1351 187.172 45.5107 186.405 45.5873C185.46 45.6849 185.047 45.7267 185.067 45.1777C185.068 44.8858 184.536 44.872 184.064 44.8652C179.401 44.8733 174.737 44.8675 170.074 44.8757C169.7 44.8757 169.129 44.8064 169.188 45.126C169.286 45.5986 168.656 45.5431 168.046 45.5363C161.888 45.3781 155.729 45.3866 149.57 45.1518C149.019 45.1311 148.271 44.9437 147.897 45.458C147.759 45.6387 146.618 45.6668 146.205 45.4306C145.359 44.9652 144.533 45.0627 143.627 45.3062C143.47 45.3549 143.391 45.3896 143.194 45.3341C141.621 44.8828 141.64 44.9175 139.889 45.3558C139.357 45.488 138.452 45.5646 138.019 45.2173C137.666 44.9185 137.016 44.9326 136.76 45.0438C135.717 45.5097 134.497 45.1487 133.395 45.274C132.647 45.3645 133.041 44.9127 132.471 44.8573C131.743 44.7949 131.349 45.1216 130.778 45.1287C128.338 45.1502 125.898 45.1439 123.478 45.1028C122.927 45.089 122.238 45.1239 121.767 44.7905C121.413 44.5404 121.176 45.02 120.723 45.0201C119.13 44.9996 117.496 45.1112 115.922 44.9796C113.915 44.8063 111.908 44.8346 109.94 44.9394C109.055 44.9813 108.11 45.1483 107.166 45.1486C106.635 45.1487 106.064 45.2183 105.789 44.8779C105.631 44.6903 105.061 44.7182 105.061 44.8433C105.119 45.4826 104.116 45.1632 103.781 45.1286C102.286 44.9899 100.771 45.032 99.2361 45.0255C98.9409 45.0255 98.6261 44.9561 98.3701 45.1369C98.0944 45.3454 97.8189 45.4011 97.6618 45.0814C97.6618 45.0536 97.3077 45.019 97.2093 45.0538C95.6739 45.5962 93.9821 45.1519 92.3881 45.2843C92.1323 45.3122 91.8372 45.2983 91.7783 45.1107C91.7 44.7841 91.0309 44.8329 90.8537 44.9094C89.712 45.3545 88.4332 45.0838 87.2132 45.1536C86.7212 45.1815 86.1114 45.0704 85.8552 45.418C85.8158 45.4597 85.5993 45.5084 85.5403 45.4945C83.7109 44.8834 81.8014 45.7248 79.952 45.4334C79.6766 45.3848 79.4798 45.4613 79.4009 45.635C79.2431 45.9478 78.9481 45.8228 78.7122 45.656C78.1813 45.2809 78.0632 45.2601 77.8071 45.6007C77.5903 45.9204 77.2953 45.7884 76.9018 45.7607C74.5013 45.6293 72.0221 45.5396 69.7393 45.7556C68.0863 45.9228 66.4333 46.0205 64.8592 45.9305C62.931 45.8129 60.9831 45.723 59.1529 45.8833C57.5786 46.0227 56.024 46.1065 54.4302 46.0999C53.6234 46.0932 52.8166 46.1907 52.01 45.9963C51.7739 45.9408 51.3017 45.9687 51.1442 46.0521C49.9826 46.6918 48.5072 46.2891 47.1888 46.345C46.441 46.373 45.6542 46.0813 44.9848 46.4706C44.847 46.5471 44.5125 46.5472 44.3552 46.443C44.0209 46.1721 43.7455 46.1513 43.391 46.4432C43.3319 46.4919 43.017 46.5337 42.899 46.499C41.3842 46.1727 39.8686 46.6735 38.3733 46.5001C36.9961 46.3337 35.7371 46.0143 34.1431 46.1467C30.8764 46.4186 27.5704 46.6696 24.2253 46.6496C22.3159 47.3797 19.9746 47.0885 17.8296 47.2558C15.6453 47.4301 13.3628 47.4028 11.1195 47.452C10.5292 47.4661 8.95552 46.9731 8.5032 46.7369C7.89355 46.4035 6.89006 46.3898 6.10308 46.2928C5.45381 46.2165 5.27687 46.0497 4.9426 45.8205Z" fill="#E17800"/>
</svg>
