<svg width="121" height="104" viewBox="0 0 121 104" fill="none" xmlns="http://www.w3.org/2000/svg">
<path d="M64.9531 0.000613109L120.684 0.000617981L120.684 42.3212C120.684 57.9019 117.395 70.198 110.819 79.2096C104.242 88.2211 92.9678 96.1799 76.996 103.086L64.9531 80.5992C74.7754 76.0513 81.5655 71.5034 85.3236 66.9555C89.0817 62.4919 91.1742 57.186 91.6013 51.038L64.9531 51.038L64.9531 0.000613109ZM-0.00166183 0.00060743L55.7288 0.000612302L55.7288 42.3212C55.7288 57.9019 52.4405 70.198 45.8639 79.2096C39.2872 88.2211 28.013 96.1799 12.0412 103.086L-0.00166887 80.5992C9.82056 76.0513 16.6107 71.5034 20.3688 66.9555C24.1268 62.4919 26.2194 57.186 26.6465 51.0379L-0.00166629 51.0379L-0.00166183 0.00060743Z" fill="#F1C400"/>
</svg>
