<svg width="121" height="104" viewBox="0 0 121 104" fill="none" xmlns="http://www.w3.org/2000/svg">
<path d="M64.9531 -0.000363454L120.684 -0.000358582L120.684 42.3202C120.684 57.9009 117.395 70.197 110.819 79.2086C104.242 88.2201 92.9678 96.1789 76.996 103.085L64.9531 80.5982C74.7754 76.0503 81.5655 71.5024 85.3236 66.9546C89.0817 62.4909 91.1742 57.185 91.6013 51.037L64.9531 51.037L64.9531 -0.000363454ZM-0.00166183 -0.000369132L55.7288 -0.00036426L55.7288 42.3202C55.7288 57.9009 52.4405 70.197 45.8639 79.2086C39.2872 88.2201 28.013 96.1789 12.0412 103.085L-0.00166887 80.5982C9.82056 76.0503 16.6107 71.5024 20.3688 66.9546C24.1268 62.4909 26.2194 57.185 26.6465 51.037L-0.00166629 51.037L-0.00166183 -0.000369132Z" fill="#58CAE7" style="mix-blend-mode:multiply"/>
</svg>
