<svg width="249" height="248" viewBox="0 0 249 248" fill="none" xmlns="http://www.w3.org/2000/svg">
<ellipse cx="121.321" cy="124.583" rx="120.321" ry="121.075" fill="#F1C400"/>
<path d="M121.85 243.737C187.293 243.737 240.318 190.357 240.318 124.542C240.318 58.7277 187.293 5.34766 121.85 5.34766C56.4079 5.34766 3.38281 58.7277 3.38281 124.542C3.38281 190.357 56.4079 243.737 121.85 243.737Z" fill="#58CAE7" stroke="white" stroke-width="5"/>
<path fill-rule="evenodd" clip-rule="evenodd" d="M146.523 18.9852C146.336 18.9852 146.118 19.3724 146.409 19.2992C146.43 19.2259 146.669 19.0585 146.523 18.9852Z" fill="white"/>
<path fill-rule="evenodd" clip-rule="evenodd" d="M144.048 19.6027C144.942 19.4038 145.847 20.8481 145.369 19.0166C145.057 18.441 143.476 18.7654 144.048 19.6027Z" fill="white"/>
<path fill-rule="evenodd" clip-rule="evenodd" d="M134.854 18.891C134.999 18.891 135.031 18.6608 134.916 18.5561C134.594 18.4096 134.583 18.8177 134.854 18.891Z" fill="white"/>
<path fill-rule="evenodd" clip-rule="evenodd" d="M135.769 18.5456C135.769 18.5456 135.967 18.5456 135.946 18.42C135.8 18.0851 135.301 18.4514 135.769 18.5456Z" fill="white"/>
<path fill-rule="evenodd" clip-rule="evenodd" d="M136.664 18.7026C136.82 18.7026 136.768 18.441 136.664 18.42C136.56 18.3991 136.435 18.7968 136.664 18.7026Z" fill="white"/>
<path fill-rule="evenodd" clip-rule="evenodd" d="M110.423 18.1165C111.348 17.2583 113.179 17.8444 114.073 17.2688C112.44 14.9872 110.631 15.4896 110.423 18.1165Z" fill="white"/>
<path fill-rule="evenodd" clip-rule="evenodd" d="M110.163 15.6989C110.163 15.1337 109.123 14.3279 108.987 15.2593C109.32 15.8245 109.892 16.9339 110.163 15.6989Z" fill="white"/>
<path fill-rule="evenodd" clip-rule="evenodd" d="M111.972 9.66008C112.659 10.5706 116.413 10.9369 115.769 9.15772C114.978 8.47743 110.111 8.5193 111.972 9.66008Z" fill="white"/>
<path fill-rule="evenodd" clip-rule="evenodd" d="M107.406 9.22052C107.24 10.9893 110.527 12.8208 110.308 10.1206C108.821 9.58682 111.036 9.21005 109.757 8.99026C108.987 9.28331 106.19 7.6611 107.406 9.22052Z" fill="white"/>
<path fill-rule="evenodd" clip-rule="evenodd" d="M102.237 10.7904C102.237 11.6591 106.502 16.1594 106.824 13.365C105.898 12.2556 107.739 14.3488 107.708 12.8626C108.249 11.5963 109.091 12.8626 109.351 12.0672C109.84 11.8998 106.73 11.0206 106.71 9.42983C107.625 8.52976 103.849 7.81808 105.669 8.90654C104.213 8.4879 105.669 10.1415 105.669 10.5078C104.12 9.94266 102.071 7.34712 102.237 10.7904Z" fill="white"/>
<path fill-rule="evenodd" clip-rule="evenodd" d="M101.572 12.4859C102.144 14.1081 102.206 12.1719 101.686 11.7323C99.9387 10.8218 100.927 11.5125 101.572 12.4859Z" fill="white"/>
<path fill-rule="evenodd" clip-rule="evenodd" d="M106.096 17.3839C105.698 17.2131 105.309 17.021 104.931 16.8083C104.588 17.3211 106.897 18.1061 106.096 17.3839Z" fill="white"/>
<path fill-rule="evenodd" clip-rule="evenodd" d="M74.769 14.893C74.769 15.6989 75.3203 14.5058 74.769 14.443C74.2178 14.3802 74.7898 14.7884 74.769 14.893Z" fill="white"/>
<path fill-rule="evenodd" clip-rule="evenodd" d="M135.239 105.611C135.509 105.318 134.927 105.13 134.937 105.454C134.999 105.59 135.187 105.716 135.239 105.611Z" fill="white"/>
<path fill-rule="evenodd" clip-rule="evenodd" d="M136.237 106.763C136.146 106.73 136.049 106.716 135.952 106.721C135.855 106.727 135.76 106.752 135.673 106.795C135.585 106.837 135.508 106.897 135.444 106.971C135.38 107.045 135.331 107.13 135.301 107.223C135.488 107.548 136.3 107.276 136.237 106.763Z" fill="white"/>
<path fill-rule="evenodd" clip-rule="evenodd" d="M137.87 104.753C137.87 104.753 137.943 104.429 137.87 104.429C137.527 104.23 137.683 105.036 137.87 104.753Z" fill="white"/>
<path fill-rule="evenodd" clip-rule="evenodd" d="M138.816 105.465C138.816 105.465 138.993 104.942 138.868 104.963C138.744 104.983 138.588 105.695 138.816 105.465Z" fill="white"/>
<path fill-rule="evenodd" clip-rule="evenodd" d="M138.536 105.81C138.536 106.145 138.868 105.81 138.796 105.706C138.723 105.601 138.536 105.706 138.536 105.81Z" fill="white"/>
<path fill-rule="evenodd" clip-rule="evenodd" d="M99.5539 135.753C99.2107 135.816 99.0131 137.962 99.5539 137.072C99.2107 136.674 99.7827 136.14 99.5539 135.753Z" fill="white"/>
<path fill-rule="evenodd" clip-rule="evenodd" d="M99.2211 138.673C99.4499 138.286 99.2211 137.909 99.4603 137.501C98.9298 137.271 98.9923 138.516 99.2211 138.673Z" fill="white"/>
<path fill-rule="evenodd" clip-rule="evenodd" d="M99.2211 139.249C98.9299 139.249 98.8154 139.605 98.9402 139.772C99.2211 140.013 99.4915 139.385 99.2211 139.249Z" fill="white"/>
<path fill-rule="evenodd" clip-rule="evenodd" d="M100.771 143.906C100.771 144.126 100.896 144.398 101.02 144.314C101.145 144.231 101.031 143.467 100.771 143.906Z" fill="white"/>
<path fill-rule="evenodd" clip-rule="evenodd" d="M100.844 143.456C100.719 143.372 100.5 143.739 100.719 143.665C100.719 143.665 100.906 143.477 100.844 143.456Z" fill="white"/>
<path fill-rule="evenodd" clip-rule="evenodd" d="M100.407 142.86C100.053 142.744 100.292 143.257 100.459 143.205C100.484 143.182 100.504 143.153 100.515 143.12C100.527 143.087 100.53 143.052 100.525 143.018C100.52 142.984 100.506 142.952 100.486 142.924C100.465 142.896 100.438 142.874 100.407 142.86Z" fill="white"/>
<path fill-rule="evenodd" clip-rule="evenodd" d="M100.677 142.535C100.511 142.085 100.334 142.849 100.604 142.734C100.604 142.734 100.729 142.629 100.677 142.535Z" fill="white"/>
<path fill-rule="evenodd" clip-rule="evenodd" d="M100.043 142.567C100.157 142.692 100.209 142.399 100.105 142.305C99.8243 142.158 99.9699 142.493 100.043 142.567Z" fill="white"/>
<path fill-rule="evenodd" clip-rule="evenodd" d="M155.239 174.142C155.021 173.839 154.199 174.54 154.823 174.425C154.782 174.32 155.385 174.257 155.239 174.142Z" fill="white"/>
<path fill-rule="evenodd" clip-rule="evenodd" d="M155.052 174.948C155.052 174.948 155.052 174.739 154.927 174.801C154.615 174.99 154.979 175.178 155.052 174.948Z" fill="white"/>
<path fill-rule="evenodd" clip-rule="evenodd" d="M161.656 135.774C162.104 135.481 161.313 135.471 161.292 135.607C161.064 136.057 161.48 136.13 161.656 135.774Z" fill="white"/>
<path fill-rule="evenodd" clip-rule="evenodd" d="M162.27 134.864C162.416 134.529 161.781 134.633 161.937 134.864C162.093 135.094 162.27 134.968 162.27 134.864Z" fill="white"/>
<path fill-rule="evenodd" clip-rule="evenodd" d="M162.613 133.063C162.052 133.063 162.561 133.807 162.613 133.524C162.457 133.503 163.008 133.001 162.613 133.063Z" fill="white"/>
<path fill-rule="evenodd" clip-rule="evenodd" d="M27.8411 107.506C26.8843 107.956 25.9794 107.851 25.345 108.259C25.0954 109.882 27.7267 108.322 27.8411 107.506Z" fill="white"/>
<path fill-rule="evenodd" clip-rule="evenodd" d="M135.093 144.597C134.937 144.367 134.396 144.356 134.386 144.534C134.375 144.712 135.072 144.953 135.093 144.597Z" fill="white"/>
<path fill-rule="evenodd" clip-rule="evenodd" d="M128.728 142.671C128.104 142.546 128.593 143.027 128.655 143.163C128.717 143.299 128.884 142.682 128.728 142.671Z" fill="white"/>
<path fill-rule="evenodd" clip-rule="evenodd" d="M130.319 140.295C127.605 143.184 130.319 141.489 131.297 139.751C131.734 137.763 131.338 138.935 130.319 140.295Z" fill="white"/>
<path fill-rule="evenodd" clip-rule="evenodd" d="M131.848 139.395C131.65 139.647 132.087 139.835 132.066 139.531C131.983 139.458 131.9 139.27 131.848 139.395Z" fill="white"/>
<path fill-rule="evenodd" clip-rule="evenodd" d="M138.744 140.547C139.274 141.185 136.497 143.393 136.934 142.326C136.476 140.536 133.585 145.047 135.124 143.582C139.285 142.211 135.519 145.361 138.764 145.612C139.805 146.324 138.536 143.624 139.461 143.582C139.565 143.854 139.992 145.675 140.033 144.628C140.408 143.55 140.335 141.038 138.744 140.547Z" fill="white"/>
<path fill-rule="evenodd" clip-rule="evenodd" d="M139.586 140.055C139.451 140.138 139.409 140.547 139.669 140.515C139.68 140.494 139.669 140.013 139.586 140.055Z" fill="white"/>
<path fill-rule="evenodd" clip-rule="evenodd" d="M139.503 140.693C139.503 140.431 139.233 140.641 139.378 140.766C139.524 140.892 139.524 140.766 139.503 140.693Z" fill="white"/>
<path fill-rule="evenodd" clip-rule="evenodd" d="M138.026 141.3C138.026 141.3 137.943 141.028 137.891 141.038C137.548 141.018 137.974 141.509 138.026 141.3Z" fill="white"/>
<path fill-rule="evenodd" clip-rule="evenodd" d="M136.372 141.164C136.32 141.677 136.924 141.332 136.747 141.164C136.612 141.101 136.372 141.049 136.372 141.164Z" fill="white"/>
<path fill-rule="evenodd" clip-rule="evenodd" d="M136.872 140.379C136.664 141.018 137.787 140.683 137.756 140.191C137.548 139.72 137.048 140.159 136.872 140.379Z" fill="white"/>
<path fill-rule="evenodd" clip-rule="evenodd" d="M138.879 139.72C138.879 139.887 138.972 140.473 139.139 140.4C139.118 140.316 139.066 139.312 138.879 139.72Z" fill="white"/>
<path fill-rule="evenodd" clip-rule="evenodd" d="M139.014 139.406C139.077 139.406 139.118 139.406 139.149 139.406C139.181 139.406 138.879 139.228 139.014 139.406Z" fill="white"/>
<path fill-rule="evenodd" clip-rule="evenodd" d="M139.066 139.113C139.139 139.113 139.222 139.04 139.222 139.04C139.139 138.862 138.941 138.977 139.066 139.113Z" fill="white"/>
<path fill-rule="evenodd" clip-rule="evenodd" d="M138.608 140.348C138.608 140.348 138.536 140.107 138.484 140.107C138.432 140.107 138.588 140.578 138.608 140.348Z" fill="white"/>
<path fill-rule="evenodd" clip-rule="evenodd" d="M137.308 138.464C137.641 139.186 137.776 139.364 138.12 140.107C138.806 139.908 138.213 138.401 137.308 138.464Z" fill="white"/>
<path fill-rule="evenodd" clip-rule="evenodd" d="M136.372 140.766C136.549 140.314 136.754 139.874 136.986 139.448C137.152 137.491 136.071 140.588 136.372 140.766Z" fill="white"/>
<path fill-rule="evenodd" clip-rule="evenodd" d="M137.215 139.364C137.36 139.437 137.464 139.364 137.308 139.228C137.152 139.092 137.163 139.312 137.215 139.364Z" fill="white"/>
<path fill-rule="evenodd" clip-rule="evenodd" d="M137.308 138.15C137.069 138.516 137.87 138.349 137.631 138.15C137.516 138.087 137.34 138.077 137.308 138.15Z" fill="white"/>
<path fill-rule="evenodd" clip-rule="evenodd" d="M135.519 140.159C135.062 140.159 134.989 140.337 135.093 140.725C137.173 143.278 136.04 136.465 135.519 140.159Z" fill="white"/>
<path fill-rule="evenodd" clip-rule="evenodd" d="M135.322 139.72C135.322 139.72 135.478 139.385 135.384 139.364C135.01 139.176 135.02 139.95 135.322 139.72Z" fill="white"/>
<path fill-rule="evenodd" clip-rule="evenodd" d="M138.14 138.098C138.744 140.463 139.534 136.004 137.204 136.873C137.048 137.281 138.13 137.867 138.14 138.098Z" fill="white"/>
<path fill-rule="evenodd" clip-rule="evenodd" d="M132.15 129.139C131.744 131.148 130.631 133.88 132.514 134.278C132.846 133.116 132.16 136.015 132.815 135.125C132.878 135.889 134.615 134.612 135.135 136.078C134.531 133.555 136.549 137.375 136.996 136.904C137.444 136.256 135.343 135.785 136.622 135.397C135.062 134.257 136.435 136.245 135.145 134.476C131.068 135.994 137.111 127.81 132.15 129.139Z" fill="white"/>
<path fill-rule="evenodd" clip-rule="evenodd" d="M136.986 134.874C136.809 134.947 136.778 135.418 136.705 135.523C137.163 135.963 137.485 134.968 136.986 134.874Z" fill="white"/>
<path fill-rule="evenodd" clip-rule="evenodd" d="M132.774 136.35C133.138 137.909 133.887 137.543 133.72 136.161C133.003 135.68 131.484 135.094 132.774 136.35Z" fill="white"/>
<path fill-rule="evenodd" clip-rule="evenodd" d="M131.734 137.543C132.025 137.805 132.233 137.878 132.399 137.543C132.098 137.365 131.307 136.81 131.734 137.543Z" fill="white"/>
<path fill-rule="evenodd" clip-rule="evenodd" d="M131.879 137.993C131.879 137.993 131.734 137.616 131.682 137.7C131.63 137.784 131.734 138.338 131.879 137.993Z" fill="white"/>
<path fill-rule="evenodd" clip-rule="evenodd" d="M134.542 138.108C134.084 140.201 135.675 139.364 135.894 138.108C135.665 138.746 133.637 137.072 134.542 138.108Z" fill="white"/>
<path fill-rule="evenodd" clip-rule="evenodd" d="M135.894 137.689C136.227 137.25 136.289 137.595 136.684 137.805C137.88 138.087 135.467 135.868 135.894 137.689Z" fill="white"/>
<path fill-rule="evenodd" clip-rule="evenodd" d="M136.591 137.02C136.591 137.02 136.393 136.779 136.372 136.863C136.352 136.946 136.653 137.187 136.591 137.02Z" fill="white"/>
<path fill-rule="evenodd" clip-rule="evenodd" d="M135.623 136.14C135.228 136.14 135.863 136.685 135.873 136.507C135.883 136.329 135.707 136.13 135.623 136.14Z" fill="white"/>
<path fill-rule="evenodd" clip-rule="evenodd" d="M135.301 137.135C135.301 137.135 135.103 136.915 135.072 136.957C134.854 137.103 135.28 137.355 135.301 137.135Z" fill="white"/>
<path fill-rule="evenodd" clip-rule="evenodd" d="M134.677 137.218C134.677 137.218 134.812 136.716 134.677 136.747C134.136 136.758 134.334 138.003 134.677 137.218Z" fill="white"/>
<path fill-rule="evenodd" clip-rule="evenodd" d="M134.209 134.194C134.084 134.068 134.323 133.629 134.313 133.514C133.907 133.283 133.928 134.487 134.209 134.194Z" fill="white"/>
<path fill-rule="evenodd" clip-rule="evenodd" d="M134.323 134.633C134.323 134.633 134.136 134.633 134.157 134.686C134.178 134.738 134.334 134.759 134.323 134.633Z" fill="white"/>
<path fill-rule="evenodd" clip-rule="evenodd" d="M134.157 135.533C133.835 135.701 134.23 136.256 134.417 135.994C134.604 135.732 134.417 135.533 134.157 135.533Z" fill="white"/>
<path fill-rule="evenodd" clip-rule="evenodd" d="M132.17 135.439C132.17 135.439 132.004 135.104 131.879 135.188C131.754 135.272 132.17 135.638 132.17 135.439Z" fill="white"/>
<path fill-rule="evenodd" clip-rule="evenodd" d="M133.699 128.615C133.876 128.228 133.346 128.375 133.419 128.615C133.491 128.856 133.679 128.752 133.699 128.615Z" fill="white"/>
<path fill-rule="evenodd" clip-rule="evenodd" d="M133.065 127.935C133.065 127.935 133.065 127.715 132.982 127.789C132.898 127.862 133.023 128.134 133.065 127.935Z" fill="white"/>
<path fill-rule="evenodd" clip-rule="evenodd" d="M132.607 128.134C132.264 128.281 132.607 128.479 132.67 128.281C132.68 128.207 132.774 128.05 132.607 128.134Z" fill="white"/>
<path fill-rule="evenodd" clip-rule="evenodd" d="M132.774 128.678C132.774 128.752 132.982 128.835 132.982 128.804C132.982 128.772 132.836 128.532 132.774 128.678Z" fill="white"/>
<path fill-rule="evenodd" clip-rule="evenodd" d="M185.651 182.421C188.376 183.823 185.245 181.165 184.403 179.972C182.697 178.674 185.339 182.149 185.651 182.421Z" fill="white"/>
<path fill-rule="evenodd" clip-rule="evenodd" d="M188.022 181.772C188.22 182.201 188.334 182.065 188.584 181.856C188.605 181.583 187.897 181.311 188.022 181.772Z" fill="white"/>
<path fill-rule="evenodd" clip-rule="evenodd" d="M187.617 180.474C186.94 180.474 187.554 181.657 187.773 181.123C187.513 181.133 187.741 180.537 187.617 180.474Z" fill="white"/>
<path fill-rule="evenodd" clip-rule="evenodd" d="M186.857 180.474C186.857 180.474 187.024 180.275 186.982 180.16C186.94 180.045 186.337 180.652 186.857 180.474Z" fill="white"/>
<path fill-rule="evenodd" clip-rule="evenodd" d="M188.126 173.692C188.605 173.786 187.991 174.686 188.532 174.55C189.385 174.718 188.178 173.085 188.126 173.692Z" fill="white"/>
<path fill-rule="evenodd" clip-rule="evenodd" d="M189.031 174.142C189.031 174.215 189.249 174.446 189.374 174.32C189.717 174.257 189.114 173.703 189.031 174.142Z" fill="white"/>
<path fill-rule="evenodd" clip-rule="evenodd" d="M189.27 174.644C188.958 174.906 189.322 175.053 189.509 174.927C189.509 174.927 189.353 174.55 189.27 174.644Z" fill="white"/>
<path fill-rule="evenodd" clip-rule="evenodd" d="M189.031 176.005C189.197 176.193 189.509 176.392 189.572 176.11C189.634 175.827 188.937 175.67 189.031 176.005Z" fill="white"/>
<path fill-rule="evenodd" clip-rule="evenodd" d="M190.123 177.952C190.237 177.826 190.019 177.24 189.821 177.512C189.801 177.606 190.05 178.119 190.123 177.952Z" fill="white"/>
<path fill-rule="evenodd" clip-rule="evenodd" d="M190.217 178.915C190.383 178.841 190.217 178.527 190.092 178.601C189.967 178.674 190.144 178.988 190.217 178.915Z" fill="white"/>
<path fill-rule="evenodd" clip-rule="evenodd" d="M189.561 173.378C189.489 172.719 189.281 173.378 189.457 173.608C189.457 173.608 189.582 173.483 189.561 173.378Z" fill="white"/>
<path fill-rule="evenodd" clip-rule="evenodd" d="M189.27 172.719C189.062 172.52 188.709 172.939 189.073 172.918C189.073 172.918 189.343 172.761 189.27 172.719Z" fill="white"/>
<path fill-rule="evenodd" clip-rule="evenodd" d="M189.509 172.635C189.509 172.635 189.593 172.206 189.509 172.206C189.426 172.206 189.395 172.771 189.509 172.635Z" fill="white"/>
<path fill-rule="evenodd" clip-rule="evenodd" d="M188.189 172.52C188.345 171.651 187.981 172.855 187.804 172.426C187.221 170.531 187.897 174.812 188.189 172.52Z" fill="white"/>
<path fill-rule="evenodd" clip-rule="evenodd" d="M187.232 166.722C187.783 166.397 186.982 166.272 186.94 166.502C186.899 166.732 187.013 166.774 187.232 166.722Z" fill="white"/>
<path fill-rule="evenodd" clip-rule="evenodd" d="M182.967 166.46C182.832 166.104 182.115 165.937 181.927 165.822C181.771 166.209 182.832 167.214 182.967 166.46Z" fill="white"/>
<path fill-rule="evenodd" clip-rule="evenodd" d="M180.159 167.402C179.972 167.643 180.7 167.852 180.877 167.664C180.7 167.58 180.357 167.287 180.159 167.402Z" fill="white"/>
<path fill-rule="evenodd" clip-rule="evenodd" d="M182.042 164.765C183.019 165.916 180.638 162.138 181.22 163.802C181.106 164.063 181.927 164.691 182.042 164.765Z" fill="white"/>
<path fill-rule="evenodd" clip-rule="evenodd" d="M180.024 164.838C180.398 165.204 181.335 165.738 181.293 165.016C180.991 164.838 179.577 163.98 180.024 164.838Z" fill="white"/>
<path fill-rule="evenodd" clip-rule="evenodd" d="M180.908 164.336C181.033 164.21 180.669 163.969 180.669 164.2C180.669 164.43 180.835 164.43 180.908 164.336Z" fill="white"/>
<path fill-rule="evenodd" clip-rule="evenodd" d="M179.317 162.933C179.702 163.341 179.67 163.655 180.086 163.394C180.055 162.63 177.684 161.614 179.317 162.933Z" fill="white"/>
<path fill-rule="evenodd" clip-rule="evenodd" d="M178.121 163.791C178.121 163.791 178.204 163.655 178.121 163.582C177.809 163.279 177.933 163.969 178.121 163.791Z" fill="white"/>
<path fill-rule="evenodd" clip-rule="evenodd" d="M177.497 163.279C177.861 164.126 177.954 162.808 177.393 162.776C177.112 163.069 177.164 163.299 177.497 163.279Z" fill="white"/>
<path fill-rule="evenodd" clip-rule="evenodd" d="M176.862 161.813C178.547 162.651 176.727 161.185 176.436 161.018C175.999 161.248 176.654 161.604 176.862 161.813Z" fill="white"/>
<path fill-rule="evenodd" clip-rule="evenodd" d="M177.195 162.902C177.195 162.588 176.623 162.651 176.779 162.902C176.904 162.965 177.174 163.048 177.195 162.902Z" fill="white"/>
<path fill-rule="evenodd" clip-rule="evenodd" d="M176.457 162.368C176.457 162.515 176.457 162.797 176.623 162.692C176.789 162.588 176.457 162.127 176.457 162.368Z" fill="white"/>
<path fill-rule="evenodd" clip-rule="evenodd" d="M177.361 163.561C177.361 163.561 177.226 163.373 177.195 163.425C176.935 163.498 177.393 163.791 177.361 163.561Z" fill="white"/>
<path fill-rule="evenodd" clip-rule="evenodd" d="M96.1113 124.021C95.9761 124.021 96.2049 124.618 96.1945 124.649C96.2517 124.614 96.2977 124.563 96.3266 124.503C96.3556 124.442 96.3663 124.374 96.3575 124.307C96.3486 124.241 96.3206 124.178 96.2769 124.127C96.2331 124.076 96.1756 124.039 96.1113 124.021Z" fill="white"/>
<path fill-rule="evenodd" clip-rule="evenodd" d="M95.8408 124.461C95.9761 124.387 95.8408 123.99 95.7368 123.948C95.404 123.853 95.6744 124.513 95.8408 124.461Z" fill="white"/>
<path fill-rule="evenodd" clip-rule="evenodd" d="M96.4545 124.105C96.4447 124.128 96.4399 124.153 96.4404 124.178C96.441 124.203 96.4469 124.228 96.4577 124.251C96.4685 124.274 96.484 124.294 96.5032 124.31C96.5224 124.327 96.5448 124.339 96.5689 124.345C96.7457 124.314 96.5897 124.021 96.4545 124.105Z" fill="white"/>
<path fill-rule="evenodd" clip-rule="evenodd" d="M85.5858 142.263C85.5858 140.934 84.4729 141.216 83.8593 141.583C82.736 146.125 88.3316 146.659 85.5858 142.263Z" fill="white"/>
<path fill-rule="evenodd" clip-rule="evenodd" d="M84.5457 140.944C84.6081 140.944 85.0761 141.237 85.1281 141.154C84.9305 141.07 84.5145 140.285 84.5457 140.944Z" fill="white"/>
<path fill-rule="evenodd" clip-rule="evenodd" d="M84.3481 140.923C84.7745 140.463 83.5992 140.473 84.1193 140.85C84.2025 140.902 84.3065 140.997 84.3481 140.923Z" fill="white"/>
<path fill-rule="evenodd" clip-rule="evenodd" d="M16.5564 101.289C16.1404 100.933 16.2132 101.75 16.5564 101.676C16.702 101.582 17.014 101.08 16.5564 101.289Z" fill="white"/>
<path fill-rule="evenodd" clip-rule="evenodd" d="M16.858 100.556C16.858 100.724 17.2116 100.87 17.17 100.556C17.0972 100.525 16.8268 100.462 16.858 100.556Z" fill="white"/>
<path fill-rule="evenodd" clip-rule="evenodd" d="M15.7763 100.221C15.3187 100.221 16.026 100.713 16.0052 100.347C15.9532 100.242 15.9116 100.221 15.7763 100.221Z" fill="white"/>
<path fill-rule="evenodd" clip-rule="evenodd" d="M18.0541 102.294C17.118 102.241 17.014 103.34 17.8669 102.555C17.4821 103.497 18.3661 102.712 18.0541 102.294Z" fill="white"/>
<path fill-rule="evenodd" clip-rule="evenodd" d="M17.3989 103.508C17.8045 103.728 17.4613 103.738 17.3989 103.958C18.0437 104.575 17.8669 102.869 17.3989 103.508Z" fill="white"/>
<path fill-rule="evenodd" clip-rule="evenodd" d="M18.3661 104.879C19.1878 105.13 18.5221 104.293 18.2101 104.816C18.1477 104.973 18.2309 104.879 18.3661 104.879Z" fill="white"/>
<path fill-rule="evenodd" clip-rule="evenodd" d="M14.2058 103.089C14.8923 103.497 15.4019 104.492 16.026 104.523C15.8179 104.188 14.8715 102.555 14.2058 103.089Z" fill="white"/>
<path fill-rule="evenodd" clip-rule="evenodd" d="M15.6723 102.922C15.8284 103.204 16.2236 103.476 16.1092 102.922C16.0052 102.932 15.5995 102.869 15.6723 102.922Z" fill="white"/>
<path fill-rule="evenodd" clip-rule="evenodd" d="M14.8923 102.869C14.8923 102.723 14.6323 102.482 14.6947 102.775C14.7675 102.838 14.8507 103.089 14.8923 102.869Z" fill="white"/>
<path fill-rule="evenodd" clip-rule="evenodd" d="M16.1508 104.785C16.6812 105.329 16.5668 104.722 16.1508 104.544C16.0676 104.523 16.1196 104.711 16.1508 104.785Z" fill="white"/>
<path fill-rule="evenodd" clip-rule="evenodd" d="M14.4347 106.962C14.4347 106.962 14.2578 106.637 14.2266 106.648C14.1954 106.658 14.4035 107.412 14.4347 106.962Z" fill="white"/>
<path fill-rule="evenodd" clip-rule="evenodd" d="M17.7421 105.182C17.7421 105.182 18.0021 105.099 17.9501 105.004C17.8981 104.91 17.4405 105.12 17.7421 105.182Z" fill="white"/>
<path fill-rule="evenodd" clip-rule="evenodd" d="M16.6916 105.025C16.6916 105.13 16.806 105.392 16.91 105.203C17.014 105.015 16.7124 104.826 16.6916 105.025Z" fill="white"/>
<path fill-rule="evenodd" clip-rule="evenodd" d="M17.1492 105.59C17.066 105.59 17.0036 105.904 17.1492 105.884C17.2948 105.863 17.4197 105.486 17.1492 105.59Z" fill="white"/>
<path fill-rule="evenodd" clip-rule="evenodd" d="M16.6812 105.674C16.6812 105.81 16.7644 106.051 16.8372 105.884C16.91 105.716 16.7956 105.402 16.6812 105.674Z" fill="white"/>
<path fill-rule="evenodd" clip-rule="evenodd" d="M18.1269 106.522C18.3037 106.627 18.3973 106.449 18.3349 106.292C18.2725 106.135 17.9709 106.417 18.1269 106.522Z" fill="white"/>
<path fill-rule="evenodd" clip-rule="evenodd" d="M15.6723 105.12C15.6723 105.172 15.8075 105.172 15.8075 105.172C15.8075 105.172 15.6307 104.994 15.6723 105.12Z" fill="white"/>
<path fill-rule="evenodd" clip-rule="evenodd" d="M15.8492 105.297C15.8492 105.36 15.8492 105.496 15.9532 105.392C16.0572 105.287 15.8804 105.245 15.8492 105.297Z" fill="white"/>
<path fill-rule="evenodd" clip-rule="evenodd" d="M15.8492 105.727C15.8492 105.789 15.9324 105.821 15.9844 105.727C16.0364 105.632 15.8075 105.601 15.8492 105.727Z" fill="white"/>
<path fill-rule="evenodd" clip-rule="evenodd" d="M16.0364 106.344C15.974 106.187 15.7035 106.344 15.7971 106.501C15.823 106.514 15.8517 106.519 15.8804 106.518C15.9091 106.516 15.9369 106.507 15.961 106.491C15.9851 106.475 16.0047 106.453 16.0179 106.427C16.0311 106.402 16.0375 106.373 16.0364 106.344Z" fill="white"/>
<path fill-rule="evenodd" clip-rule="evenodd" d="M15.2459 107.83C14.6739 108.741 17.5757 108.552 18.2621 108.374C18.3661 107.903 15.5371 107.705 15.2459 107.83Z" fill="white"/>
<path fill-rule="evenodd" clip-rule="evenodd" d="M19.0318 107.642C19.0318 107.705 19.115 108.165 19.219 108.008C19.5102 107.883 19.1566 107.276 19.0318 107.642Z" fill="white"/>
<path fill-rule="evenodd" clip-rule="evenodd" d="M20.103 107.098C20.259 106.982 20.4879 106.689 20.4047 106.522C19.9366 106.375 19.271 107.673 20.103 107.098Z" fill="white"/>
<path fill-rule="evenodd" clip-rule="evenodd" d="M10.6488 102.357C10.4928 102.262 10.3784 101.875 10.3264 101.76C9.69194 101.603 10.42 102.493 10.6488 102.357Z" fill="white"/>
<path fill-rule="evenodd" clip-rule="evenodd" d="M11.0856 104.021C11.3145 104.764 12.1257 104.439 11.4497 103.665C11.3248 103.728 11.1584 103.926 11.0856 104.021Z" fill="white"/>
<path fill-rule="evenodd" clip-rule="evenodd" d="M11.3561 104.743C11.4705 104.847 11.8657 104.994 11.7929 104.743C11.7201 104.492 11.2521 104.397 11.3561 104.743Z" fill="white"/>
<path fill-rule="evenodd" clip-rule="evenodd" d="M11.3561 103.141C11.3561 103.141 11.2208 103.497 11.3561 103.508C11.4913 103.518 11.4289 103.194 11.3561 103.141Z" fill="white"/>
<path fill-rule="evenodd" clip-rule="evenodd" d="M17.222 100.923C16.7228 100.87 17.222 101.247 17.3989 101.069C17.5757 100.891 17.4405 100.745 17.222 100.923Z" fill="white"/>
<path fill-rule="evenodd" clip-rule="evenodd" d="M145.431 104.973C145.525 104.565 145.078 104.575 145.067 104.91C145.057 105.245 145.411 105.36 145.431 104.973Z" fill="white"/>
<path fill-rule="evenodd" clip-rule="evenodd" d="M144.714 104.952C144.578 104.743 144.152 105.12 144.578 105.078C144.578 105.078 144.786 105.036 144.714 104.952Z" fill="white"/>
<path fill-rule="evenodd" clip-rule="evenodd" d="M140.054 108.228C139.992 108.28 140.054 108.678 140.169 108.678C140.283 108.678 140.189 108.176 140.054 108.228Z" fill="white"/>
<path fill-rule="evenodd" clip-rule="evenodd" d="M138.775 108.322C138.993 108.155 138.65 107.903 138.546 107.799C138.442 107.694 138.442 108.406 138.775 108.322Z" fill="white"/>
<path fill-rule="evenodd" clip-rule="evenodd" d="M139.264 107.359C139.264 107.359 139.264 107.171 139.191 107.16C138.92 107.16 139.17 107.485 139.264 107.359Z" fill="white"/>
<path fill-rule="evenodd" clip-rule="evenodd" d="M138.827 107.485C138.827 107.673 139.045 107.621 139.014 107.485C138.983 107.349 138.775 107.412 138.827 107.485Z" fill="white"/>
<path fill-rule="evenodd" clip-rule="evenodd" d="M144.859 105.371C143.237 105.088 141.448 107.066 143.767 107.652C142.613 105.758 146.451 107.098 144.859 105.371Z" fill="white"/>
<path fill-rule="evenodd" clip-rule="evenodd" d="M152.67 86.3437C149.987 90.5301 147.095 77.1337 148.125 92.2465C151.474 90.8231 146.222 91.1999 148.968 90.0172C153.19 91.5453 150.08 89.7033 152.805 89.1067C154.615 87.6938 152.431 88.5206 152.67 86.3437Z" fill="white"/>
<path fill-rule="evenodd" clip-rule="evenodd" d="M141.437 110.059C141.812 111.755 142.155 108.416 142.405 107.495C142.238 106.585 140.533 106.449 141.229 105.915C145.847 104.649 143.518 103.529 146.794 106.114C147.834 102.116 147.73 105.967 149.384 103.56C150.257 105.653 149.716 102.315 150.808 102.514C151.755 106.951 151.984 92.1942 149.238 92.2674C148.697 92.9058 150.278 92.6546 149.529 93.2407C149.186 93.0628 149.072 93.6803 148.905 92.8326C148.021 92.9896 149.238 94.8316 148.312 94.9258C150.85 95.8258 146.815 103.497 146.783 99.5203C145.889 105.088 142.342 101.436 140.855 106.051C138.619 106.93 140.335 109.191 140.096 107.443C141.136 107.035 139.992 111.326 141.229 110.321C140.647 109.84 141.167 109.243 141.437 110.059Z" fill="white"/>
<path fill-rule="evenodd" clip-rule="evenodd" d="M146.721 90.9487C146.721 91.2522 146.919 91.3778 147.064 91.0743C147.21 90.7708 146.783 90.6243 146.721 90.9487Z" fill="white"/>
<path fill-rule="evenodd" clip-rule="evenodd" d="M141.947 110.897C141.822 110.897 141.833 111.514 141.947 111.42C142.062 111.326 142.134 111.022 141.947 110.897Z" fill="white"/>
<path fill-rule="evenodd" clip-rule="evenodd" d="M141.76 111.901C141.853 111.755 141.552 111.284 141.365 111.587C141.333 111.671 141.562 112.017 141.76 111.901Z" fill="white"/>
<path fill-rule="evenodd" clip-rule="evenodd" d="M140.876 114.602C140.252 114.602 140.065 115.565 140.73 115.041C140.772 114.999 141.271 114.602 140.876 114.602Z" fill="white"/>
<path fill-rule="evenodd" clip-rule="evenodd" d="M140.117 115.648C140.117 115.722 140.117 116.056 140.273 116.015C140.429 115.973 140.169 115.491 140.117 115.648Z" fill="white"/>
<path fill-rule="evenodd" clip-rule="evenodd" d="M139.534 117.072C139.317 117.274 139.134 117.511 138.993 117.773C139.014 118.484 139.742 117.323 139.534 117.072Z" fill="white"/>
<path fill-rule="evenodd" clip-rule="evenodd" d="M142.873 102.241C142.998 102.063 142.654 101.875 142.634 102.105C142.613 102.336 142.779 102.315 142.873 102.241Z" fill="white"/>
<path fill-rule="evenodd" clip-rule="evenodd" d="M142.582 102.409C142.675 102.241 142.342 102.262 142.446 102.409C142.55 102.555 142.55 102.472 142.582 102.409Z" fill="white"/>
<path fill-rule="evenodd" clip-rule="evenodd" d="M108.259 141.154C108.54 140.997 108.197 140.568 108.062 140.882C108.082 140.976 108.176 141.248 108.259 141.154Z" fill="white"/>
<path fill-rule="evenodd" clip-rule="evenodd" d="M107.978 140.568C108.051 140.62 108.082 140.704 108.155 140.641C108.478 140.421 107.885 140.452 107.978 140.568Z" fill="white"/>
<path fill-rule="evenodd" clip-rule="evenodd" d="M106.158 142.933C106.096 143.561 106.647 142.682 106.221 142.744C106.196 142.769 106.178 142.798 106.167 142.831C106.156 142.864 106.153 142.899 106.158 142.933Z" fill="white"/>
<path fill-rule="evenodd" clip-rule="evenodd" d="M107.812 144.471C107.812 144.471 107.885 144.67 107.947 144.66C108.01 144.649 107.874 144.388 107.812 144.471Z" fill="white"/>
<path fill-rule="evenodd" clip-rule="evenodd" d="M174.938 160.191C173.721 158.579 174.304 160.882 174.938 161.332C176.197 161.698 175.521 160.432 174.938 160.191Z" fill="white"/>
<path fill-rule="evenodd" clip-rule="evenodd" d="M174.168 159.124C173.659 158.914 174.168 159.678 174.231 159.458C174.241 159.427 174.293 159.145 174.168 159.124Z" fill="white"/>
<path fill-rule="evenodd" clip-rule="evenodd" d="M173.919 158.36C173.607 158.286 173.492 158.893 173.836 158.653C173.836 158.653 174.023 158.381 173.919 158.36Z" fill="white"/>
<path fill-rule="evenodd" clip-rule="evenodd" d="M171.194 158.014C171.142 158.537 170.414 157.679 170.518 158.36C171.069 159.124 168.438 160.536 168.552 159.239C162.686 161.112 173.243 161.29 171.194 158.014Z" fill="white"/>
<path fill-rule="evenodd" clip-rule="evenodd" d="M168.854 159.239C168.878 159.204 168.892 159.164 168.895 159.122C168.899 159.079 168.891 159.037 168.873 158.999C168.855 158.961 168.828 158.928 168.793 158.904C168.759 158.88 168.719 158.865 168.677 158.862C168.323 158.893 168.677 159.343 168.854 159.239Z" fill="white"/>
<path fill-rule="evenodd" clip-rule="evenodd" d="M169.634 156.099C170.674 157.062 171.953 157.554 172.109 158.862C173.014 157.512 170.549 156.633 169.634 156.099Z" fill="white"/>
<path fill-rule="evenodd" clip-rule="evenodd" d="M169.114 156.172C169.176 155.942 168.573 155.775 168.614 156.078C168.656 156.382 169.01 156.518 169.114 156.172Z" fill="white"/>
<path fill-rule="evenodd" clip-rule="evenodd" d="M171.464 164.116C171.246 164.472 171.672 164.587 171.849 164.472C172.026 164.357 171.527 164.011 171.464 164.116Z" fill="white"/>
<path fill-rule="evenodd" clip-rule="evenodd" d="M169.852 163.582C169.852 163.582 169.852 163.331 169.79 163.32C169.405 163.268 169.707 163.791 169.852 163.582Z" fill="white"/>
<path fill-rule="evenodd" clip-rule="evenodd" d="M173.336 167.057C173.17 167.057 173.014 167.224 173.16 167.308C173.305 167.392 173.648 167.13 173.336 167.057Z" fill="white"/>
<path fill-rule="evenodd" clip-rule="evenodd" d="M172.057 167.266C172.057 167.549 172.92 167.831 172.588 167.392C172.296 167.465 172.234 166.994 172.057 167.266Z" fill="white"/>
<path fill-rule="evenodd" clip-rule="evenodd" d="M169.603 165.372C169.114 164.775 169.197 165.633 169.738 165.633C169.946 165.424 169.977 165.11 169.603 165.372Z" fill="white"/>
<path fill-rule="evenodd" clip-rule="evenodd" d="M169.343 164.911C169.447 164.691 168.926 164.618 168.958 164.838C168.975 164.872 169 164.901 169.03 164.923C169.06 164.946 169.095 164.961 169.132 164.968C169.169 164.975 169.208 164.974 169.244 164.964C169.28 164.954 169.314 164.936 169.343 164.911Z" fill="white"/>
<path fill-rule="evenodd" clip-rule="evenodd" d="M168.822 164.838C168.926 164.618 168.51 164.262 168.438 164.576C168.49 164.65 168.77 164.974 168.822 164.838Z" fill="white"/>
<path fill-rule="evenodd" clip-rule="evenodd" d="M166.056 160.097C166.056 160.097 166.181 159.793 165.993 159.72C165.421 159.532 165.952 160.338 166.056 160.097Z" fill="white"/>
<path fill-rule="evenodd" clip-rule="evenodd" d="M164.953 159.699C165.276 159.94 165.359 159.553 165.089 159.385C165.016 159.375 164.87 159.605 164.953 159.699Z" fill="white"/>
<path fill-rule="evenodd" clip-rule="evenodd" d="M163.882 158.726C164.017 158.412 163.435 158.59 163.622 158.778C163.809 158.967 163.83 158.831 163.882 158.726Z" fill="white"/>
<path fill-rule="evenodd" clip-rule="evenodd" d="M166.888 164.189C164.881 159.406 160.013 155.46 153.055 155.084C152.608 155.544 150.663 158.537 150.101 156.078C149.186 151.159 142.925 154.435 148.292 155.743C151.745 155.963 145.067 156.256 147.407 156.79C148.302 158.391 148.333 158.339 149.113 156.476C148.489 158.653 153.513 158.38 154.126 159.919C154.802 160.966 154.563 161.709 155.582 161.887C154.21 162.075 155.728 163.98 156.477 162.703C158.099 168.124 157.6 156.769 157.787 156.319C157.725 158.412 157.548 164.105 157.538 164.283C161.199 164.859 160.18 164.137 158.318 162.19C159.358 163.865 161.282 163.53 160.731 162.044C162.686 161.771 166.971 167.475 169.155 165.675C167.647 165.571 167.855 164.503 166.888 164.189Z" fill="white"/>
<path fill-rule="evenodd" clip-rule="evenodd" d="M161.781 162.473C161.958 162.672 161.989 162.399 161.833 162.358C161.677 162.316 161.74 162.42 161.781 162.473Z" fill="white"/>
<path fill-rule="evenodd" clip-rule="evenodd" d="M161.032 162.954C161.032 162.954 161.032 162.651 160.97 162.692C160.741 162.745 160.949 163.132 161.032 162.954Z" fill="white"/>
<path fill-rule="evenodd" clip-rule="evenodd" d="M160.762 163.341C160.762 163.404 160.97 163.655 160.949 163.436C160.949 163.436 160.793 163.268 160.762 163.341Z" fill="white"/>
<path fill-rule="evenodd" clip-rule="evenodd" d="M165.473 155.335C165.13 155.209 164.142 155.147 164.766 155.586C164.829 155.827 165.609 155.492 165.473 155.335Z" fill="white"/>
<path fill-rule="evenodd" clip-rule="evenodd" d="M168.344 154.581C168.427 154.372 167.907 154.11 167.949 154.424C168.001 154.54 168.323 154.77 168.344 154.581Z" fill="white"/>
<path fill-rule="evenodd" clip-rule="evenodd" d="M120.376 127.349C119.398 126.522 117.256 127.527 117.693 128.752C118.275 130.594 120.615 128.71 120.376 127.349Z" fill="white"/>
<path fill-rule="evenodd" clip-rule="evenodd" d="M130.558 121.823C130.434 122.744 131.359 124.555 131.827 124.461C132.649 122.252 132.628 116.475 130.558 121.823Z" fill="white"/>
<path fill-rule="evenodd" clip-rule="evenodd" d="M136.487 120.201C136.31 120.274 136.32 120.567 136.549 120.546C136.778 120.525 136.851 120.107 136.487 120.201Z" fill="white"/>
<path fill-rule="evenodd" clip-rule="evenodd" d="M135.332 120.986C135.332 121.09 135.436 121.206 135.53 121.143C135.623 121.08 135.384 120.703 135.332 120.986Z" fill="white"/>
<path fill-rule="evenodd" clip-rule="evenodd" d="M134.854 121.237C134.979 121.446 135.291 121.143 135.083 121.017C134.875 120.892 134.854 121.153 134.854 121.237Z" fill="white"/>
<path fill-rule="evenodd" clip-rule="evenodd" d="M151.859 170.364C150.912 170.856 152.597 171.473 151.984 170.709C152.275 170.521 151.901 170.542 151.859 170.364Z" fill="white"/>
<path fill-rule="evenodd" clip-rule="evenodd" d="M151.225 170.427C151.225 170.751 151.568 170.573 151.422 170.364C151.277 170.155 151.214 170.28 151.225 170.427Z" fill="white"/>
<path fill-rule="evenodd" clip-rule="evenodd" d="M145.067 167.821C145.307 168.114 145.743 167.59 145.899 167.36C145.463 166.931 143.778 167.015 145.067 167.821Z" fill="white"/>
<path fill-rule="evenodd" clip-rule="evenodd" d="M144.693 167.664C144.474 167.727 144.485 166.847 144.329 167.392C143.83 167.528 144.828 167.978 144.693 167.664Z" fill="white"/>
<path fill-rule="evenodd" clip-rule="evenodd" d="M146.804 202.871C146.742 203.468 149.425 202.955 148.448 202.871C148.341 202.76 148.213 202.672 148.072 202.612C147.931 202.552 147.779 202.521 147.626 202.521C147.473 202.521 147.321 202.552 147.18 202.612C147.039 202.672 146.911 202.76 146.804 202.871Z" fill="white"/>
<path fill-rule="evenodd" clip-rule="evenodd" d="M169.467 187.706C169.54 186.147 168.157 185.456 167.387 183.896C167.502 181.908 166.576 182.557 166.347 182.504C165.931 180.516 165.109 178.663 163.716 178.182C161.636 176.696 162.863 173.587 161.698 171.463C159.555 172.122 159.982 164.137 158.578 167.873C157.34 170.207 158.224 178.59 153.502 174.446C147.147 170.584 153.149 170.531 151.828 167.852C150.788 169.38 148.25 167.402 146.565 166.942C148.52 169.684 142.467 166.942 143.289 172.415C142.478 171.536 141.687 171.714 141.406 172.3C140.803 173.263 141.614 168.993 139.243 170.908C139.181 170.071 138.692 171.117 138.702 171.463C138.411 171.117 137.735 171.159 138.088 171.766C137.36 172.813 137.184 172.154 136.705 173.755C137.818 174.247 135.405 173.41 135.665 173.828C135.772 173.926 135.858 174.046 135.917 174.179C135.975 174.313 136.006 174.457 136.006 174.603C136.006 174.748 135.975 174.893 135.917 175.026C135.858 175.159 135.772 175.279 135.665 175.377C134.469 172.29 133.918 176.162 133.107 177.167C130.496 179.26 125.296 179.333 123.673 181.416C121.271 185.602 122.716 187.444 123.444 195.377C121.083 199.564 123.07 201.28 127.189 199.459C154.906 187.947 140.501 208.24 149.508 197.439C149.124 199.888 146.18 204.211 149.269 200.213C150.164 202.515 148.905 206.429 153.045 208.251C153.887 210.176 156.654 205.435 155.562 208.251C156.248 207.204 157.122 211.108 156.799 209.14C159.805 207.455 162.208 208.02 162.873 203.698C166.576 198.475 170.216 193.954 169.467 187.706Z" fill="white"/>
<path fill-rule="evenodd" clip-rule="evenodd" d="M154.001 210.679C153.897 209.695 153.585 210.25 153.409 210.877C153.232 211.505 153.981 211.045 154.001 210.679Z" fill="white"/>
<path fill-rule="evenodd" clip-rule="evenodd" d="M158.63 211.411C158.276 210.867 158.058 210.804 158.047 211.411C158.037 211.872 158.703 211.673 158.63 211.411Z" fill="white"/>
<path fill-rule="evenodd" clip-rule="evenodd" d="M158.349 211.935C157.673 211.935 158.037 212.248 158.495 212.28C158.838 212.51 158.578 211.935 158.349 211.935Z" fill="white"/>
<path fill-rule="evenodd" clip-rule="evenodd" d="M158.079 212.51C158.079 212.751 158.349 212.51 158.214 212.426C158.079 212.343 158.058 212.426 158.079 212.51Z" fill="white"/>
<path fill-rule="evenodd" clip-rule="evenodd" d="M154.053 211.934C154.168 212.311 154.407 211.736 154.303 211.673C154.199 211.61 153.991 211.809 154.053 211.934Z" fill="white"/>
<path fill-rule="evenodd" clip-rule="evenodd" d="M154.615 211.934C154.615 211.934 154.615 211.788 154.511 211.788C154.262 211.725 154.615 212.123 154.615 211.934Z" fill="white"/>
<path fill-rule="evenodd" clip-rule="evenodd" d="M154.293 212.186C154.293 212.29 154.397 212.468 154.542 212.364C154.688 212.259 154.334 212.018 154.293 212.186Z" fill="white"/>
<path fill-rule="evenodd" clip-rule="evenodd" d="M157.735 212.856C153.305 214.331 153.357 209.098 154.022 217.879C155.406 218.371 155.062 216.77 156.435 216.927C155.957 217.303 156.3 217.659 156.695 217.021C156.446 215.713 158.827 214.645 157.735 212.856Z" fill="white"/>
<path fill-rule="evenodd" clip-rule="evenodd" d="M155.541 217.356C155.541 217.555 155.343 217.659 155.364 217.848C155.551 218.214 155.884 217.167 155.541 217.356Z" fill="white"/>
<path fill-rule="evenodd" clip-rule="evenodd" d="M156.882 216.362C156.83 216.529 157.059 216.529 157.018 216.362C156.976 216.194 156.893 216.299 156.882 216.362Z" fill="white"/>
<path fill-rule="evenodd" clip-rule="evenodd" d="M151.339 167.59C151.464 167.664 151.516 167.59 151.412 167.507C151.308 167.423 151.287 167.57 151.339 167.59Z" fill="white"/>
<path fill-rule="evenodd" clip-rule="evenodd" d="M151.589 167.444C151.651 167.59 151.838 167.507 151.703 167.392C151.568 167.277 151.547 167.413 151.589 167.444Z" fill="white"/>
<path fill-rule="evenodd" clip-rule="evenodd" d="M152.233 166.868C152.15 166.868 151.859 167.025 151.838 167.099C151.745 167.653 152.213 166.983 152.233 166.868Z" fill="white"/>
<path fill-rule="evenodd" clip-rule="evenodd" d="M151.1 167.768C151.1 167.632 150.964 167.611 150.944 167.768C150.923 167.925 151.079 167.831 151.1 167.768Z" fill="white"/>
<path fill-rule="evenodd" clip-rule="evenodd" d="M150.663 167.904C150.517 168.114 150.902 167.904 151.016 167.904C151.131 167.904 150.684 167.894 150.663 167.904Z" fill="white"/>
<path fill-rule="evenodd" clip-rule="evenodd" d="M144.641 74.3603C146.118 76.2546 147.064 86.0402 148.229 82.5655C149.696 82.5655 149.456 83.9784 149.176 82.0632C147.095 81.8015 145.619 74.4231 149.009 78.2012C147.47 75.815 143.528 69.8285 144.329 69.4622C143.58 67.5888 140.491 65.3701 142.675 67.9133C141.323 69.2529 143.746 72.2252 144.641 74.3603Z" fill="white"/>
<path fill-rule="evenodd" clip-rule="evenodd" d="M136.414 68.2586C136.622 68.1645 136.986 67.8609 136.716 67.6307C136.424 67.5784 136.092 68.1226 136.414 68.2586Z" fill="white"/>
<path fill-rule="evenodd" clip-rule="evenodd" d="M136.872 67.369C136.872 66.8876 136.56 67.369 136.684 67.4946C136.809 67.6202 136.872 67.4318 136.872 67.369Z" fill="white"/>
<path fill-rule="evenodd" clip-rule="evenodd" d="M136.487 67.4318C136.591 67.4318 136.539 67.1179 136.487 67.1179C136.435 67.1179 136.32 67.5051 136.487 67.4318Z" fill="white"/>
<path fill-rule="evenodd" clip-rule="evenodd" d="M136.414 65.9143C134.219 66.3329 137.215 67.6935 136.56 66.0922C136.092 66.5422 136.653 65.9771 136.414 65.9143Z" fill="white"/>
<path fill-rule="evenodd" clip-rule="evenodd" d="M135.176 66.4585C135.405 66.6678 135.374 66.1341 135.384 66.0294C134.854 66.0922 134.781 66.9818 135.176 66.4585Z" fill="white"/>
<path fill-rule="evenodd" clip-rule="evenodd" d="M145.899 54.0041C145.899 53.4599 145.348 54.2343 145.733 54.2239C145.733 54.2239 145.899 54.0878 145.899 54.0041Z" fill="white"/>
<path fill-rule="evenodd" clip-rule="evenodd" d="M160.741 51.2934C161.511 50.3306 159.878 49.9957 159.597 51.1364C160.783 51.5655 159.41 53.8994 160.741 51.2934Z" fill="white"/>
<path fill-rule="evenodd" clip-rule="evenodd" d="M155.437 43.8103C155.031 43.8103 155.437 44.051 155.51 44.2185C155.811 44.2185 155.551 43.8731 155.437 43.8103Z" fill="white"/>
<path fill-rule="evenodd" clip-rule="evenodd" d="M155.655 44.3545C155.655 44.4069 155.499 44.4487 155.499 44.5325C155.458 44.9406 155.874 44.4801 155.655 44.3545Z" fill="white"/>
<path fill-rule="evenodd" clip-rule="evenodd" d="M138.494 22.5017C138.255 22.3447 138.234 22.6692 138.369 22.8053C138.546 23.2657 138.744 22.6587 138.494 22.5017Z" fill="white"/>
<path fill-rule="evenodd" clip-rule="evenodd" d="M138.91 22.6692C138.66 22.6692 138.983 22.9099 139.024 23.0669C139.316 23.6321 139.233 22.6692 138.91 22.6692Z" fill="white"/>
<path fill-rule="evenodd" clip-rule="evenodd" d="M139.014 22.6169C139.472 22.8366 138.629 21.811 139.014 22.5227C139.014 22.5017 139.014 22.5959 139.014 22.6169Z" fill="white"/>
<path fill-rule="evenodd" clip-rule="evenodd" d="M139.357 22.282C139.305 21.968 138.962 21.9261 139.181 22.2192C139.087 22.3971 139.409 22.6064 139.357 22.282Z" fill="white"/>
<path fill-rule="evenodd" clip-rule="evenodd" d="M85.0345 23.5483C86.605 24.26 86.3346 22.8994 85.773 22.0831C84.6809 22.3134 83.9737 23.3076 85.0345 23.5483Z" fill="white"/>
<path fill-rule="evenodd" clip-rule="evenodd" d="M113.106 24.1344C113.054 24.4903 112.659 24.5321 112.503 24.6054C112.773 25.2333 113.574 24.5949 113.106 24.1344Z" fill="white"/>
<path fill-rule="evenodd" clip-rule="evenodd" d="M96.7561 21.654C96.9433 22.0831 97.0577 21.3086 96.9433 21.204C96.7041 21.2772 96.2777 21.5598 96.7561 21.654Z" fill="white"/>
<path fill-rule="evenodd" clip-rule="evenodd" d="M42.7765 45.6837C43.2238 44.7208 43.3486 46.7303 43.8998 45.9872C45.2103 46.0919 42.0485 43.3603 42.0277 44.2394C41.9757 44.7836 41.7157 44.9197 42.7765 45.6837Z" fill="white"/>
<path fill-rule="evenodd" clip-rule="evenodd" d="M37.233 42.9102C36.1929 44.208 38.1482 43.6324 38.5539 44.5534C39.3339 44.4592 38.5538 43.9673 38.4602 43.8626C39.1051 43.8626 39.5523 44.8464 39.9371 44.365C39.4275 43.4126 40.4988 44.9092 40.634 44.4487C40.7692 43.9882 39.7499 43.9254 40.5404 44.0301C41.3204 43.2661 36.1409 39.8961 37.233 42.9102Z" fill="white"/>
<path fill-rule="evenodd" clip-rule="evenodd" d="M49.9738 35.5422C52.9692 35.8981 48.5281 32.4025 49.693 35.6888C50.1298 36.1074 49.8074 35.626 49.9738 35.5422Z" fill="white"/>
<path fill-rule="evenodd" clip-rule="evenodd" d="M62.3818 27.7347C62.5794 27.2951 62.1114 26.7928 61.9242 27.3789C61.1546 27.0021 62.049 27.7347 62.3818 27.7347Z" fill="white"/>
<path fill-rule="evenodd" clip-rule="evenodd" d="M61.0921 28.1219C61.2274 28.551 61.4874 27.8184 61.1545 27.8498C60.8217 27.8812 60.6345 28.0487 61.0921 28.1219Z" fill="white"/>
<path fill-rule="evenodd" clip-rule="evenodd" d="M61.7786 28.8964C61.7786 28.7917 61.841 28.6766 61.6954 28.6766C61.1234 28.5824 61.5914 29.3569 61.7786 28.8964Z" fill="white"/>
<path fill-rule="evenodd" clip-rule="evenodd" d="M62.049 28.551C61.9934 28.6193 61.9606 28.7036 61.9554 28.7917C61.737 29.5034 62.6314 28.5301 62.049 28.551Z" fill="white"/>
<path fill-rule="evenodd" clip-rule="evenodd" d="M61.0713 29.0953C61.5394 28.7499 60.5617 28.9383 60.7489 29.2522C60.9361 29.5662 60.8841 29.2627 61.0713 29.0953Z" fill="white"/>
<path fill-rule="evenodd" clip-rule="evenodd" d="M61.9554 29.9116C61.9554 30.1418 62.3298 30.1 62.3298 29.9116C62.3298 29.7232 61.9346 29.6709 61.9554 29.9116Z" fill="white"/>
<path fill-rule="evenodd" clip-rule="evenodd" d="M63.3075 30.4977C63.3907 30.4244 63.0371 30.2465 63.0163 30.257C62.7147 30.3198 63.1619 30.9373 63.3075 30.4977Z" fill="white"/>
<path fill-rule="evenodd" clip-rule="evenodd" d="M61.2794 30.7384C61.2794 30.7384 61.3626 30.6442 61.1962 30.6023C60.6553 30.5605 60.7801 30.9687 61.2794 30.7384Z" fill="white"/>
<path fill-rule="evenodd" clip-rule="evenodd" d="M60.3225 30.3302C60.2668 30.2938 60.2018 30.2743 60.1353 30.2743C60.0688 30.2743 60.0038 30.2938 59.9481 30.3302C59.428 30.6442 60.4889 30.707 60.3225 30.3302Z" fill="white"/>
<path fill-rule="evenodd" clip-rule="evenodd" d="M59.4072 30.8745C59.5528 30.7803 59.7713 30.3826 59.4072 30.4453C59.0432 30.5081 59.2304 30.8745 59.4072 30.8745Z" fill="white"/>
<path fill-rule="evenodd" clip-rule="evenodd" d="M58.5232 35.1341C58.8352 34.4747 57.6287 32.9048 57.7327 34.4852C57.2127 34.7678 58.232 35.2911 58.5232 35.1341Z" fill="white"/>
<path fill-rule="evenodd" clip-rule="evenodd" d="M57.1919 36.7249C57.5039 36.4004 58.0135 36.1702 57.9823 35.6783C57.4207 35.2073 56.3494 37.0703 57.1919 36.7249Z" fill="white"/>
<path fill-rule="evenodd" clip-rule="evenodd" d="M65.1692 40.5031C65.0132 40.5973 65.1692 40.8485 65.2628 40.8903C65.3564 40.9322 65.242 40.4403 65.1692 40.5031Z" fill="white"/>
<path fill-rule="evenodd" clip-rule="evenodd" d="M64.7428 39.7705C64.5764 39.9275 64.7428 40.8171 64.8364 40.9322C65.0132 40.7229 64.8468 39.9693 64.7428 39.7705Z" fill="white"/>
<path fill-rule="evenodd" clip-rule="evenodd" d="M64.5452 39.6239C64.722 39.5612 64.3476 39.1844 64.3268 39.289C64.306 39.3937 64.4308 39.6449 64.5452 39.6239Z" fill="white"/>
<path fill-rule="evenodd" clip-rule="evenodd" d="M50.8891 45.8826C50.7331 45.286 50.1506 46.1128 50.7019 46.1023C50.7019 46.1023 50.9411 45.9977 50.8891 45.8826Z" fill="white"/>
<path fill-rule="evenodd" clip-rule="evenodd" d="M54.1861 35.4271C53.7181 35.3643 54.3837 34.9771 54.0197 34.8306C52.8652 34.6631 54.3733 36.3481 54.1861 35.4271Z" fill="white"/>
<path fill-rule="evenodd" clip-rule="evenodd" d="M55.5278 34.2445C55.2366 34.1712 54.4253 34.0352 55.1221 34.4015C55.1846 34.4643 55.8086 34.4329 55.5278 34.2445Z" fill="white"/>
<path fill-rule="evenodd" clip-rule="evenodd" d="M54.3629 33.3653C54.8621 32.7688 53.3228 33.7107 53.8325 33.8991C54.0093 33.627 54.4149 33.8468 54.3629 33.3653Z" fill="white"/>
<path fill-rule="evenodd" clip-rule="evenodd" d="M56.0062 29.5976C56.0686 30.1418 56.5782 29.5139 56.2974 29.2732C55.8918 29.2941 55.6006 29.336 56.0062 29.5976Z" fill="white"/>
<path fill-rule="evenodd" clip-rule="evenodd" d="M29.0684 54.6216C29.1516 54.4855 28.9644 54.2867 28.8396 54.3599C28.7148 54.4332 28.9228 54.6948 29.0684 54.6216Z" fill="white"/>
<path fill-rule="evenodd" clip-rule="evenodd" d="M33.8527 49.42C34.5496 49.6189 34.7888 47.442 34.7472 48.8025C35.5689 46.5733 30.8469 48.1327 33.8527 49.42Z" fill="white"/>
<path fill-rule="evenodd" clip-rule="evenodd" d="M43.4838 47.2117C43.4838 47.2117 43.4838 46.9396 43.4214 46.8977C42.4541 46.1965 43.0886 47.0652 43.4838 47.2117Z" fill="white"/>
<path fill-rule="evenodd" clip-rule="evenodd" d="M43.6814 47.3792C43.5982 47.5362 43.8374 47.6094 43.827 47.3792C43.8166 47.1489 43.7022 47.3269 43.6814 47.3792Z" fill="white"/>
<path fill-rule="evenodd" clip-rule="evenodd" d="M42.5893 46.5733C42.7141 46.5733 42.6933 46.2279 42.5893 46.2698C42.4853 46.3117 42.5165 46.5733 42.5893 46.5733Z" fill="white"/>
<path fill-rule="evenodd" clip-rule="evenodd" d="M41.9029 48.6665C42.0173 48.5095 42.7973 48.2792 42.1525 48.2374C42.0173 48.2897 41.6013 48.6665 41.9029 48.6665Z" fill="white"/>
<path fill-rule="evenodd" clip-rule="evenodd" d="M40.9252 48.5304C41.0604 48.3525 40.582 48.1746 40.7068 48.4572C40.7068 48.4572 40.894 48.6665 40.9252 48.5304Z" fill="white"/>
<path fill-rule="evenodd" clip-rule="evenodd" d="M39.9371 48.3106C40.0515 48.4048 40.166 48.4153 40.1868 48.5618C40.8316 48.499 39.8227 47.9339 39.9371 48.3106Z" fill="white"/>
<path fill-rule="evenodd" clip-rule="evenodd" d="M39.7707 48.2583C39.5523 48.1327 39.4379 48.52 39.6875 48.4362C39.6875 48.4362 39.8435 48.2792 39.7707 48.2583Z" fill="white"/>
<path fill-rule="evenodd" clip-rule="evenodd" d="M39.4379 49.5247C39.2299 49.5875 39.3755 49.9643 39.5003 49.8387C39.6251 49.7131 39.7603 49.3363 39.4379 49.5247Z" fill="white"/>
<path fill-rule="evenodd" clip-rule="evenodd" d="M38.9907 49.7131C38.8867 49.9852 39.2819 49.7131 39.1883 49.6189C39.0947 49.5247 39.0011 49.6398 38.9907 49.7131Z" fill="white"/>
<path fill-rule="evenodd" clip-rule="evenodd" d="M55.0285 51.7121C55.143 52.1412 56.0062 52.34 55.6734 51.7121C55.4601 51.7496 55.2419 51.7496 55.0285 51.7121Z" fill="white"/>
<path fill-rule="evenodd" clip-rule="evenodd" d="M160.72 71.9636C160.72 71.7543 160.398 71.5031 160.346 71.8694C160.294 72.2357 160.689 72.2775 160.72 71.9636Z" fill="white"/>
<path fill-rule="evenodd" clip-rule="evenodd" d="M159.472 71.6915C159.171 71.6182 159.108 72.1729 159.472 72.0787C159.836 71.9845 159.659 71.7647 159.472 71.6915Z" fill="white"/>
<path fill-rule="evenodd" clip-rule="evenodd" d="M159.919 72.7381C159.15 72.9997 160.013 74.4231 160.055 73.366C160.918 72.7381 160.128 71.0635 159.919 72.7381Z" fill="white"/>
<path fill-rule="evenodd" clip-rule="evenodd" d="M159.815 75.1033C159.649 74.9987 159.815 74.6533 159.659 74.6219C159.472 74.8312 159.514 75.6476 159.815 75.1033Z" fill="white"/>
<path fill-rule="evenodd" clip-rule="evenodd" d="M159.815 75.7627C160.003 75.6371 159.597 75.365 159.555 75.5534C159.514 75.7418 159.691 75.8778 159.815 75.7627Z" fill="white"/>
<path fill-rule="evenodd" clip-rule="evenodd" d="M159.108 76.0348C159.108 76.1395 159.254 76.2023 159.337 76.1185C159.42 76.0348 159.108 75.8778 159.108 76.0348Z" fill="white"/>
<path fill-rule="evenodd" clip-rule="evenodd" d="M159.514 76.6628C159.628 76.6628 159.847 76.1813 159.514 76.1918C159.462 76.2127 159.441 76.6209 159.514 76.6628Z" fill="white"/>
<path fill-rule="evenodd" clip-rule="evenodd" d="M159.223 78.2012C159.228 78.1561 159.228 78.1104 159.223 78.0652C159.087 77.8454 159.004 78.3059 159.223 78.2012Z" fill="white"/>
<path fill-rule="evenodd" clip-rule="evenodd" d="M159.025 78.8501C159.025 78.8501 159.098 79.0281 159.16 78.9443C159.223 78.8606 159.035 78.5257 159.025 78.8501Z" fill="white"/>
<path fill-rule="evenodd" clip-rule="evenodd" d="M159.015 79.2897C159.119 79.4258 159.243 79.2269 159.098 79.1641C158.952 79.1013 158.952 79.2583 159.015 79.2897Z" fill="white"/>
<path fill-rule="evenodd" clip-rule="evenodd" d="M158.994 79.6037C158.994 79.5304 158.879 79.4572 158.838 79.52C158.796 79.5827 158.994 79.813 158.994 79.6037Z" fill="white"/>
<path fill-rule="evenodd" clip-rule="evenodd" d="M158.775 80.6084C158.775 80.4828 158.827 80.0537 158.775 80.0537C158.723 80.0537 158.37 80.8596 158.775 80.6084Z" fill="white"/>
<path fill-rule="evenodd" clip-rule="evenodd" d="M157.507 81.9794C157.08 81.9271 156.466 83.0888 156.612 83.3714C157.195 83.2877 157.34 82.2934 157.507 81.9794Z" fill="white"/>
<path fill-rule="evenodd" clip-rule="evenodd" d="M156.071 83.9889C155.707 82.9423 154.116 84.9413 154.262 85.9565C155.01 85.3495 154.771 84.5854 156.071 83.9889Z" fill="white"/>
<path fill-rule="evenodd" clip-rule="evenodd" d="M153.242 86.5112C152.805 88.5102 153.575 86.6472 153.877 86.103C153.388 86.1658 153.294 85.7681 153.242 86.5112Z" fill="white"/>
<path fill-rule="evenodd" clip-rule="evenodd" d="M154.522 87.2856C154.522 87.2856 154.73 87.0345 154.657 87.0031C154.584 86.9717 154.21 87.3903 154.522 87.2856Z" fill="white"/>
<path fill-rule="evenodd" clip-rule="evenodd" d="M168.136 60.4197C167.595 59.8755 165.661 58.7033 166.971 59.8964C166.898 60.3569 168.687 61.2779 168.136 60.4197Z" fill="white"/>
<path fill-rule="evenodd" clip-rule="evenodd" d="M168.885 60.2941C169.072 60.5139 169.311 60.5453 169.53 60.786C171.464 61.4139 168.968 59.8755 168.885 60.2941Z" fill="white"/>
<path fill-rule="evenodd" clip-rule="evenodd" d="M46.188 167.727C46.4688 169.098 46.1048 169.537 45.1479 169.485C45.6991 170.343 44.4302 171.515 44.503 170.709C44.1494 170.448 44.2534 172.677 43.879 171.337C43.463 171.337 43.2758 173.001 43.1406 171.892L40.6756 172.52C34.5288 201.081 52.9692 170.343 46.188 167.727Z" fill="white"/>
<path fill-rule="evenodd" clip-rule="evenodd" d="M56.6719 177.251C55.9022 177.251 55.9646 178.58 56.6719 177.91C56.495 177.732 56.9735 177.397 56.6719 177.251Z" fill="white"/>
<path fill-rule="evenodd" clip-rule="evenodd" d="M53.9677 179.051C54.3109 178.883 54.4565 178.904 54.2173 178.653C53.9157 177.69 53.2292 178.925 53.9677 179.051Z" fill="white"/>
<path fill-rule="evenodd" clip-rule="evenodd" d="M54.6645 158.318C54.5397 158.318 54.5293 158.391 54.5293 158.475C54.5293 159.008 55.2574 158.349 54.6645 158.318Z" fill="white"/>
<path fill-rule="evenodd" clip-rule="evenodd" d="M42.0069 168.511C42.0069 168.438 42.2877 168.124 42.0069 168.072C41.7261 168.02 41.8925 168.763 42.0069 168.511Z" fill="white"/>
<path fill-rule="evenodd" clip-rule="evenodd" d="M39.8019 167.182C40.0516 167.046 39.8019 166.764 39.9683 166.565C39.6147 165.947 39.3131 167.12 39.8019 167.182Z" fill="white"/>
<path fill-rule="evenodd" clip-rule="evenodd" d="M40.2076 167.737C40.2596 167.559 39.8955 167.601 39.9787 167.737C40.062 167.873 40.1244 167.852 40.2076 167.737Z" fill="white"/>
<path fill-rule="evenodd" clip-rule="evenodd" d="M41.2476 167.402C40.9148 167.402 40.8732 167.57 41.1228 167.706C41.3724 167.842 41.3828 167.517 41.2476 167.402Z" fill="white"/>
<path fill-rule="evenodd" clip-rule="evenodd" d="M43.5254 163.886C43.099 164.2 43.8582 164.241 43.8374 164.001C43.7438 163.917 43.5982 163.791 43.5254 163.886Z" fill="white"/>
<path fill-rule="evenodd" clip-rule="evenodd" d="M43.8582 164.44C43.8582 164.44 43.775 164.336 43.7646 164.377C43.6814 164.576 43.8166 164.597 43.8582 164.44Z" fill="white"/>
<path fill-rule="evenodd" clip-rule="evenodd" d="M6.76935 104.031C6.84215 97.2806 8.84948 103.623 8.57907 100.755C4.84522 96.2968 5.53167 105.915 6.76935 104.031Z" fill="white"/>
<path fill-rule="evenodd" clip-rule="evenodd" d="M103.184 132.142C105.555 128.856 106.398 140.159 106.429 142.43C109.31 143.875 109.019 151.578 113.408 150.929C113.25 149.461 112.777 148.045 112.021 146.78C111.265 145.515 110.244 144.43 109.029 143.603C108.831 142.556 107.406 141.509 107.188 140.138C107.687 134.424 109.466 136.109 112.232 139.259C113.033 139.437 115.03 139.929 113.865 142.179C127.085 133.932 111.941 133.231 114.905 126.156C116.361 125.716 116.985 124.743 118.65 125.329C117.807 126.376 120.584 127.632 119.149 125.894C119.898 124.963 121.884 125.235 122.893 123.979C122.571 122.273 123.569 124.513 123.621 124.073C124.11 123.33 124.9 123.435 125.472 123.445C126.313 122.702 127.191 122.003 128.104 121.352C128.416 120.766 126.949 121.52 128.104 120.682C129.144 120.975 128.697 120.86 128.457 120.347C129.289 120.567 128.541 120.128 128.572 119.876C129.612 120.4 128.395 119.542 129.009 119.458C129.768 120.504 129.248 119.238 129.289 118.924C129.695 118.464 128.655 118.924 129.737 118.202C129.638 118.211 129.539 118.185 129.457 118.13C129.375 118.075 129.313 117.993 129.283 117.898C129.253 117.803 129.255 117.701 129.291 117.608C129.326 117.515 129.391 117.436 129.477 117.386C129.914 117.993 130.621 116.339 130.205 115.722C131.12 115.722 131.484 114.214 130.756 114.047C131.994 113.503 131.713 113 130.579 113.67C131.702 112.948 131.047 111.933 129.862 112.529C128.717 111.933 129.029 112.299 130.163 111.954C132.555 110.53 127.553 108.814 126.772 109.861C127.709 107.998 133.159 111.724 129.289 108.27C129.289 106.491 125.67 105.591 127.022 103.895C127.802 102.754 127.969 101.613 129.789 101.948C130.579 100.577 127.386 99.7924 126.398 101.017C126.564 102.179 124.9 101.352 125.15 100.378C122.612 100.023 123.07 98.4109 124.859 98.0551C126.304 94.9153 128.364 93.1256 127.906 97.7725C129.248 96.9038 126.325 99.5307 128.135 98.5574C129.352 96.3282 130.881 96.9771 132.399 96.9143C132.399 97.3434 131.609 99.0074 132.805 98.5365C130.652 100.787 134.043 99.0703 134.687 100.849C135.322 101.53 134.739 101.31 134.282 101.352C135.031 102.398 134.843 104.178 135.519 105.538C139.784 104.24 138.348 100.305 134.937 97.6155C133.835 97.8143 136.632 92.9477 136.643 91.5348C139.045 87.8822 138.598 92.5814 140.98 89.4416C142.633 86.4457 143.56 83.0991 143.685 79.6745C143.809 76.2499 143.129 72.844 141.697 69.7343C141.209 67.7249 137.246 66.2911 137.974 69.1692C138.515 66.9399 136.144 71.053 137.35 68.3005C135.915 68.5622 136.175 69.1273 135.467 67.4318C134.771 66.3225 131.962 68.6668 134.687 64.8677C135.842 61.5814 135.936 58.3893 137.308 55.5321C138.366 54.9768 139.565 54.7509 140.751 54.8832C140.897 53.0517 142.831 55.731 143.788 52.6331C145.036 53.0622 148.312 52.5179 146.409 53.8157C146.669 55.5007 147.636 53.1878 148.042 53.9308C148.24 52.2249 149.342 53.868 149.415 52.7691C150.569 52.7691 149.768 51.7853 149.092 51.9842C148.344 52.7272 148.791 51.105 148.416 50.8539C149.56 49.1688 148.26 47.2013 149.384 45.7779C152.504 44.8988 152.14 44.7313 153.117 47.3687C153.204 47.1632 153.353 46.9908 153.544 46.8768C154.324 50.1736 153.918 43.1405 155.343 44.7836C154.178 42.973 153.336 40.7647 156.383 41.6439C154.49 42.0625 156.55 45.7465 157.195 46.5C154.574 48.3002 155.894 52.1412 155.426 54.8728C151.266 57.6358 158.682 67.6412 160.897 71.4612C161.3 70.6794 161.53 69.819 161.572 68.9391C161.613 68.0593 161.464 67.1809 161.136 66.3643C163.674 66.4481 160.616 64.2711 161.968 62.5757C165.089 62.2198 160.866 60.2104 161.584 58.316C161.584 57.5939 162.197 56.3799 161.916 57.8346C163.373 59.5406 162.509 56.6415 161.833 56.2647C160.492 57.9602 161.636 53.9204 160.637 54.0983C159.327 53.0517 160.637 54.8937 159.951 54.7995C158.203 52.4028 158.911 50.8015 158.391 48.7188C158.006 48.4153 159.139 48.0385 159.493 48.499C159.847 48.1432 159.691 46.1547 160.471 47.1803C160.856 49.5352 161.417 47.3792 161.157 46.5733C162.717 44.9511 163.768 46.2175 165.411 46.8454C164.433 45.2337 166.254 43.1928 165.265 42.4602C165.265 42.3451 165.369 42.1986 165.463 42.3137C165.858 42.4916 165.765 41.7067 165.733 41.5078C165.966 41.3864 166.157 41.1982 166.283 40.9672C166.409 40.7361 166.464 40.4725 166.441 40.21C167.013 39.603 167.71 38.2948 168.521 37.5308C168.791 38.1587 169.883 37.7505 170.435 38.0855C170.402 37.2235 170.073 36.3997 169.504 35.7546C168.935 35.1095 168.161 34.683 167.314 34.548C168.354 32.8106 165.848 34.1293 166.441 32.842C165.692 31.7955 165.671 33.2816 164.922 32.392C164.34 32.2873 164.537 31.1884 163.82 31.8792C163.185 32.3711 163.154 33.3549 163.196 31.8792C161.864 31.0628 163.466 31.785 163.82 31.2617C163.643 30.9268 163.102 30.6337 162.894 31.0105C163.3 29.8383 166.763 33.9828 166.139 28.2894C164.704 25.7043 164.413 27.8707 163.768 25.4217C163.653 24.4379 163.903 25.1915 164.381 25.3589C164.132 23.7681 164.86 25.0763 165.026 25.8299C167.044 27.6928 166.285 23.6739 168.146 25.0554C169.467 26.6881 169.342 25.3799 170.424 25.4531C171.61 26.0601 171.464 24.9508 171.849 25.5159C172.889 24.8461 170.861 25.0031 172.13 24.3961C170.955 24.3961 171.329 23.7262 170.809 24.103C170.476 23.7367 171.152 23.8832 171.027 23.5274C171.35 22.0517 168.136 21.4342 170.081 21.2668C171.215 20.3248 169.395 20.3144 170.788 20.1469C169.811 19.2678 170.507 17.4572 169.218 18.0537C169.028 17.8215 168.79 17.6345 168.521 17.506C168.251 17.3776 167.956 17.3109 167.658 17.3109C167.359 17.3109 167.064 17.3776 166.795 17.506C166.525 17.6345 166.287 17.8215 166.097 18.0537C166.711 19.0375 165.484 17.2793 165.057 18.9852C166.097 18.5456 167.845 21.5598 166.742 20.2725C166.878 22.3657 164.662 18.734 163.924 18.1793C162.613 17.6979 159.992 17.5828 156.102 17.3316C157.611 16.756 151.027 16.0547 149.862 16.6827C148.749 18.1375 145.078 16.128 146.95 19.3724C149.498 18.9119 149.134 24.1972 147.095 20.9842C144.901 21.5075 144.943 17.8444 143.767 20.8795C142.457 21.0051 138.234 20.5655 140.013 23.7158C140.127 24.3123 138.733 22.418 139.108 23.4227C140.273 25.3066 137.568 21.2668 138.068 22.8053C135.54 22.8053 134.5 16.5257 129.414 20.8063C129.019 21.3505 126.024 22.3343 127.137 21.5389C127.844 20.8167 124.973 19.5608 125.296 21.047C125.088 20.576 125.025 21.2668 124.88 21.3296C124.474 21.1516 125.285 20.4923 124.64 20.283C123.6 21.3296 124.256 19.4038 122.716 20.283C123.257 19.2364 123.548 17.8967 120.782 18.5561C118.899 18.0328 120.782 23.0669 118.91 21.1516C120.126 21.1516 118.15 18.2526 119.679 20.3772C120.459 17.5095 116.975 21.5598 117.849 20.0109C117.11 19.0794 118.66 19.655 119.149 19.1631C119.638 18.6712 114.333 19.812 113.626 19.1631C111.161 19.7597 116.372 20.0423 113.023 20.7958C112.721 23.3076 114.843 20.1783 113.792 22.4494C114.458 22.7215 115.769 23.6635 114.77 23.9146C114.978 24.8147 113.99 23.182 113.792 23.6739C114.208 24.3961 113.044 23.2762 113.553 24.3123C113.345 25.1287 114.396 24.2391 114.333 24.7833C113.813 24.8356 114.52 24.9822 114.385 25.0868C113.865 25.0868 113.865 25.0868 114.073 25.4113C112.139 24.3647 110.953 24.1553 110.402 25.6624C106.242 24.9717 108.55 24.6786 108.665 28.6662C107.885 28.0173 104.879 27.316 105.233 26.0392C104.432 26.3323 105.513 27.0125 103.329 25.8613C103.028 24.6996 105.659 26.9079 104.369 24.6368C104.089 23.7262 102.289 25.2438 103.475 23.5902C103.475 22.9832 103.09 23.7681 102.945 23.7367C102.768 23.3913 103.517 22.9622 102.799 23.0355C102.279 22.7529 102.528 21.8947 101.977 22.5855C102.071 21.4447 101.332 22.5855 101.301 21.8424C98.6906 21.204 100.5 22.261 99.1483 22.3552C99.8347 21.6645 97.8274 21.6435 97.505 21.968C96.7769 21.1307 97.1409 22.7006 96.7249 22.0831C96.1529 23.9146 99.3875 24.0926 95.9345 24.6996C95.2064 25.2438 94.4368 25.1287 94.3744 24.6368C93.7503 23.8309 93.7087 26.1648 92.3566 24.4798C93.0743 22.6378 89.9541 24.3333 88.8724 24.26C86.6986 25.788 89.3404 24.9298 88.1443 25.7462C88.0507 26.2904 87.9467 25.181 87.6555 25.0763C86.1786 22.868 87.6555 25.2333 86.3658 25.181C85.7106 25.7357 85.3258 24.2495 85.2217 24.1344C84.9721 25.181 84.1817 23.8414 83.9529 24.7728C83.5784 27.18 85.357 24.0298 85.1281 25.5264C84.4625 25.7252 84.9825 26.709 84.0881 26.2067C84.9097 27.8603 80.9679 27.4521 82.7256 28.8755C83.1416 28.7603 82.0391 29.6604 81.8103 29.7965C81.8103 28.4464 83.9529 23.6425 82.9544 23.8832C83.8281 22.5331 85.4194 18.9538 82.9544 18.3782C81.7063 18.0014 83.62 18.2316 83.7033 18.3782C84.2129 18.5456 83.2456 17.4362 82.8816 17.4362C82.3928 16.3897 81.7687 16.0547 82.0391 17.1851C80.8015 15.9815 79.0749 14.7674 77.1612 16.1385C76.1211 16.1385 77.8477 18.0747 75.6843 18.0433C77.0572 13.8569 74.2386 16.3583 74.093 15.678C74.2178 14.757 72.5641 17.1641 72.9905 15.9187C75.3411 14.0244 70.0679 12.6952 70.848 15.521C69.6311 17.813 72.0961 19.0375 72.9281 19.4876C72.2625 19.3306 68.7679 19.6864 70.7336 20.2516C72.1585 20.6911 72.0233 22.5541 70.8792 20.7016C70.0679 19.9795 70.0471 21.3191 69.7247 21.5389C68.6846 21.2458 69.7247 22.1145 69.0175 22.0726C68.9031 20.5341 68.6535 23.1192 68.2166 22.3029C69.1007 20.5969 66.9061 22.1982 66.3861 21.6121C64.306 24.2705 68.4662 21.2354 65.2836 23.9146C63.7963 24.1344 63.0787 25.7043 62.2466 26.6462C63.4427 25.7985 62.6627 28.6766 61.9138 27.4416C61.2586 26.8974 61.9138 27.651 61.6122 27.944C61.7474 28.1743 63.6923 28.5092 63.1203 28.7499C60.3849 29.1685 66.9893 29.4197 63.8483 31.2303C65.0444 32.8316 62.9331 31.3978 64.0771 30.1C62.4217 30.9638 60.678 31.6446 58.8768 32.1304C59.6464 35.1655 61.7162 35.5632 64.1499 37.1121C66.0325 44.1661 66.3445 40.1472 68.9551 42.8788C68.0918 41.0578 67.1453 42.7219 66.6981 42.209C65.0756 41.8741 64.9092 40.7124 64.4308 39.2995C62.8707 43.1196 64.8052 35.5632 62.3506 37.2063C60.7385 37.2063 58.752 34.2235 57.7431 36.6935C57.1503 36.8191 58.8872 36.5051 58.7832 37.2587C53.9885 37.6668 58.5128 38.9855 60.3433 39.7914C54.8933 39.7914 57.3895 38.5564 54.7165 35.5213C56.235 37.9285 53.9053 38.232 54.8517 39.8751C57.1607 40.8485 55.9542 42.9312 57.2647 44.4278C57.6183 46.2593 60.8113 43.2661 61.9658 45.8302C62.4442 46.7722 61.581 48.4362 63.3699 48.0071C61.2898 50.362 61.7786 42.7114 58.7728 45.914C57.7327 46.9605 60.5721 47.9129 59.064 49.263C59.3864 50.1945 58.4296 52.2354 57.8887 52.2982C56.6625 52.1552 55.4512 51.903 54.2693 51.5446C55.7982 50.2992 56.3494 52.2144 57.1191 51.4713C59.9897 47.421 53.2396 42.052 53.3436 37.0807C52.3036 34.4643 48.3097 35.5422 50.0258 38.9018C49.7138 40.4089 48.4241 41.4241 49.849 42.6381C49.849 42.2823 50.7955 44.365 50.0882 43.9987C49.7034 43.4754 50.5458 45.6732 50.7227 45.0453C51.7627 45.0976 52.0227 46.4163 53.4268 46.5628C52.8132 47.6094 53.7597 49.2002 52.262 47.4106C50.5458 46.2489 42.9637 43.2975 45.0439 46.6884C45.8655 47.5676 45.7199 47.8606 44.6799 48.0281C44.9503 50.0375 43.6398 48.5304 43.8686 47.442C42.5893 48.4886 41.3828 48.4886 40.218 49.1165C40.8316 50.3724 39.8019 48.9805 39.6667 49.7759C39.3651 49.7759 37.9402 49.9433 39.1363 49.0956C39.1363 48.3839 38.0338 48.4048 39.1987 48.206C39.1987 46.7722 37.4202 50.2992 37.961 48.6874C36.9937 48.3525 38.1482 49.734 37.4098 49.8701C37.077 47.7769 35.2672 51.6179 34.4144 50.9167C34.9136 51.6388 34.9864 51.2934 34.2896 51.6597C32.9999 51.2516 34.4664 53.0203 33.4263 53.1982C32.8335 54.2448 29.7341 52.2563 31.9702 51.3771C32.8127 51.6388 31.9702 50.3306 31.6686 50.4666C28.85 48.2897 30.7325 54.3076 30.8469 55.6996C28.1428 52.7691 26.9571 56.8717 26.9987 59.258C21.4343 56.1182 26.229 60.4092 25.137 60.5557C21.7359 59.3626 19.3022 65.0247 21.1847 67.5051C18.9798 71.074 19.7286 63.5176 17.8773 68.5517C15.3707 73.0102 6.65494 86.8879 7.39339 96.6422C11.2833 97.6888 9.55673 103.968 14.2994 103.968C10.9504 103.393 13.0618 105.161 13.873 106.334C13.9874 105.486 14.1434 105.852 14.6427 106.166C14.6427 105.758 13.5402 104.282 14.5803 105.12C14.7259 104.073 16.5772 104.073 13.8002 102.911C13.8002 102.618 14.185 102.733 14.0394 102.137C14.9547 103.047 14.341 101.603 13.8626 101.561C13.3114 101.09 13.9354 99.6459 13.9354 100.42C14.9027 101.75 14.6427 100.42 15.6307 100.745C14.6947 100.18 15.3083 99.6982 16.1612 99.8238C18.1789 99.0912 17.5133 101.331 19.6558 99.604C21.9336 99.7715 19.6558 98.3167 19.0734 97.3957C20.2902 95.0513 20.9351 91.7755 22.8696 90.9906C23.296 90.5406 24.5441 90.9906 23.4521 91.0638C21.944 91.2418 23.7017 91.0638 23.5561 91.5557C23.8265 91.9325 25.2306 91.3883 25.2202 92.0476C25.8754 92.2988 23.7017 92.6756 24.5025 93.0942C25.6466 92.6337 24.9706 95.1874 26.5827 94.0257C27.4251 93.628 30.0981 92.1628 28.018 92.9163C26.7907 92.9163 26.0314 90.9487 27.2379 93.0314C26.7907 92.6023 24.5129 91.315 26.3226 91.765C27.6222 90.8427 29.1118 90.2274 30.6805 89.9649C32.8335 89.5358 28.5276 91.1057 30.6805 91.5662C29.2348 91.8174 30.6805 92.9582 29.214 92.8221C28.9852 93.8059 31.835 94.0989 32.4278 95.3653C39.3235 98.997 30.5661 100.535 27.6747 98.1702C26.6347 97.2806 19.8638 99.6459 21.7255 100.012C13.873 101.551 20.6855 101.697 18.2309 103.152C18.0229 104.324 22.5056 108.28 23.244 105.737C25.605 107.516 29.8797 104.303 29.4845 106.721C30.5973 116.412 19.8118 113.534 13.665 111.022C8.70388 111.839 13.769 118.621 5.19885 111.462C0.612143 131.295 19.3334 202.861 29.7445 180.034C27.3731 173.294 39.8227 173.671 36.4321 166.607C30.7117 154.697 45.8551 151.222 49.8386 139.845C50.005 134.979 42.3397 142.305 39.3651 138.265C41.4452 137.218 37.5866 134.466 36.1825 133.869C32.9271 128.929 29.9421 122.148 26.1666 115.114C27.5395 116.716 28.5276 119.552 29.0372 115.502C30.7949 120.735 35.2776 125.863 38.6163 131.284C40.0932 133.074 39.0531 139.249 43.1614 135.826C49.693 134.278 59.4488 129.233 58.388 123.864C57.4311 122.001 54.6957 123.058 54.5813 120.232C54.8829 119.416 54.5813 118.641 54.2693 119.835C52.73 122.566 48.2681 123.958 48.8505 119.887C46.9472 123.215 47.8105 118.055 45.4599 117.26C43.9414 115.104 44.3158 114.298 46.5936 114.267C47.4469 115.899 48.7366 117.258 50.317 118.191C55.4134 118.798 58.4816 121.499 63.6611 120.609C68.539 119.238 67.915 124.67 71.9817 123.498C67.603 125.078 74.3634 128.731 74.1554 124.178C75.0083 124.492 74.249 125.821 74.9147 127.569C75.5179 130.646 80.5934 147.611 83.6512 139.877C85.7314 138.192 82.2784 132.404 86.5218 131.965C88.2483 128.49 91.9718 127.705 92.5126 124.209C93.4487 124.931 93.8023 125.151 94.4888 124.952C95.352 123.665 95.4248 125.675 95.7056 123.498C95.7785 121.991 97.973 125.873 98.6282 127.077C98.1706 126.48 100.095 127.276 99.9595 127.946C99.2523 127.464 100.032 128.375 99.6371 128.228C99.0651 127.37 99.6371 128.95 100.209 128.814C101.8 129.076 99.4291 135.094 103.184 132.142ZM24.5129 66.5946C24.1073 68.6249 20.9663 61.7593 23.036 64.5956C23.1712 64.3025 23.9513 64.2502 23.1712 63.7164C20.8519 61.8954 25.6466 65.2131 24.5129 66.5946ZM26.0002 67.9761C26.333 67.5784 26.6659 68.1331 26.7907 68.3947C26.5203 68.5517 25.8858 68.3842 26.0002 67.9761ZM28.0804 71.9008C28.1636 72.8636 24.4713 70.1006 27.3731 71.2624C25.0746 69.4832 29.1204 71.074 28.1324 71.9008H28.0804ZM23.2752 153.168C23.5769 152.698 23.9201 152.97 23.5561 153.43C23.3688 153.451 23.0464 153.482 23.3272 153.168H23.2752ZM22.8904 154.519C23.4001 154.602 23.244 155.335 22.8072 155.565C22.6408 155.188 22.8488 154.874 22.9424 154.519H22.8904ZM22.048 173.001C20.8831 172.865 20.3318 175.503 19.3646 174.529C20.2486 174.948 21.9648 171.421 22.1 173.001H22.048ZM22.6616 163.32C22.4952 163.624 22.3288 163.99 21.9648 164.074C21.4863 163.907 22.828 162.525 22.7136 163.32H22.6616ZM25.0642 163.32C23.6913 162.849 21.7359 155.879 23.1816 157.407C23.6289 159.532 24.7209 161.217 25.1162 163.32H25.0642ZM29.9005 170.155C27.6747 169.453 29.2452 166.157 28.3612 164.43C30.3997 164.639 28.902 168.637 29.9525 170.155H29.9005ZM26.229 153.891C26.073 152.551 26.229 152.666 27.1547 152.342C28.3092 152.258 28.746 152.855 30.0253 152.855C28.434 153.692 27.7475 155.314 28.2988 155.618C26.4995 155.911 25.7714 156.005 26.281 153.891H26.229ZM29.2764 113.702C29.11 113.45 29.006 112.854 29.2764 112.655C29.3145 113.002 29.3319 113.352 29.3284 113.702H29.2764ZM49.6098 105.402C45.3767 106.742 41.5181 102.524 45.1271 100.169C43.1198 99.1226 41.31 95.763 40.8732 94.8002C39.3235 93.3349 40.7692 92.3093 41.6637 91.6604C42.2877 91.786 42.0173 91.5139 41.6637 91.3046C42.0381 91.3046 42.2981 91.5453 42.3293 91.0952C42.8493 90.7603 44.4094 89.2428 45.0127 90.0486C47.7377 89.18 46.3648 91.7441 47.3112 92.4977C46.0215 92.0267 44.0662 92.6337 45.6159 93.7431C42.1317 93.7431 47.9665 96.3805 47.1656 97.8562C48.3201 98.9028 47.3632 101.572 48.9441 100.734C49.485 101.781 48.3097 101.132 48.7361 102.001C49.4018 100.755 50.8163 106.156 49.6618 105.402H49.6098ZM55.8502 91.5767C55.8502 96.5689 50.5874 92.8535 56.1726 89.7556C56.0478 90.4359 55.559 90.8022 55.8606 91.5767H55.8502ZM101.738 78.1908C104.723 77.2384 104.775 62.9734 106.106 73.7637C105.94 72.7171 105.305 73.4707 105.545 73.9102C106.564 73.7846 103.028 78.6513 101.748 78.1908H101.738Z" fill="white"/>
<path fill-rule="evenodd" clip-rule="evenodd" d="M7.08137 97.1759C7.13337 96.9143 6.42612 96.9457 6.67574 97.1759C6.72774 97.0713 7.03977 97.2073 7.08137 97.1759Z" fill="white"/>
<path fill-rule="evenodd" clip-rule="evenodd" d="M113.075 140.285C113.241 140.138 113.127 139.824 112.992 139.699C112.856 139.573 112.888 140.316 113.075 140.285Z" fill="white"/>
<path fill-rule="evenodd" clip-rule="evenodd" d="M194.897 210.459C192.713 211.076 193.108 210.605 191.87 207.905C192.442 209.695 191.007 208.952 191.215 208.271C191.215 207.34 192.203 205.435 191.09 205.268C191.215 204.88 190.737 203.865 190.373 204.472C190.373 203.321 189.457 202.882 190.123 204.389C189.686 207.256 192.806 209.998 188.958 212.636C187.398 213.923 191.912 214.729 188.49 216.822C188.074 217.345 188.823 217.01 188.927 217.45C190.279 217.9 195.687 210.386 194.897 210.459Z" fill="white"/>
<path fill-rule="evenodd" clip-rule="evenodd" d="M192.307 207.664C192.307 207.664 192.453 207.288 192.307 207.319C192.058 207.277 192.058 207.748 192.307 207.664Z" fill="white"/>
<path fill-rule="evenodd" clip-rule="evenodd" d="M177.174 227.79C176.987 226.67 176.831 227.152 176.259 228C175.479 228.575 177.642 227.958 177.174 227.79Z" fill="white"/>
<path fill-rule="evenodd" clip-rule="evenodd" d="M187.741 216.78C186.285 216.979 186.878 214.017 185.661 216.54C183.519 220.569 179.286 221.082 177.081 224.316C177.029 223.688 175.926 225.875 176.176 225.509C176.904 226.398 178.828 228.565 179.629 226.555C182.042 225.425 182.843 221.322 184.944 221.814C185.776 222.557 184.143 220.391 185.38 220.694C186.68 219.972 188.719 216.32 187.741 216.78Z" fill="white"/>
<path fill-rule="evenodd" clip-rule="evenodd" d="M187.721 216.194C187.721 216.142 188.126 215.849 187.939 215.796C187.752 215.744 187.44 216.403 187.721 216.194Z" fill="white"/>
<path fill-rule="evenodd" clip-rule="evenodd" d="M108.686 146.303C108.842 146.303 108.582 145.78 108.509 145.832C108.436 145.884 108.498 146.397 108.686 146.303Z" fill="white"/>
<path fill-rule="evenodd" clip-rule="evenodd" d="M132.15 146.575C132.15 146.575 132.628 146.408 132.638 146.261C132.774 145.717 131.806 146.533 132.15 146.575Z" fill="white"/>
<path fill-rule="evenodd" clip-rule="evenodd" d="M133.325 145.392C133.325 145.591 133.897 145.539 134.011 145.445C134.126 145.35 133.242 145.193 133.325 145.392Z" fill="white"/>
<path fill-rule="evenodd" clip-rule="evenodd" d="M132.93 144.869C133.023 145.036 133.315 144.869 133.179 144.722C133.044 144.576 132.846 144.806 132.93 144.869Z" fill="white"/>
<path fill-rule="evenodd" clip-rule="evenodd" d="M129.019 143.906C129.019 143.906 129.175 143.728 129.071 143.686C128.967 143.645 128.665 144.021 129.019 143.906Z" fill="white"/>
<path fill-rule="evenodd" clip-rule="evenodd" d="M128.613 143.801C129.029 143.676 128.509 143.571 128.457 143.739C128.405 143.906 128.499 143.958 128.613 143.801Z" fill="white"/>
<path fill-rule="evenodd" clip-rule="evenodd" d="M103.423 149.286C102.747 149.474 103.693 149.851 103.693 149.631C103.652 149.6 103.558 149.212 103.423 149.286Z" fill="white"/>
<path fill-rule="evenodd" clip-rule="evenodd" d="M105.669 151.452C105.139 150.615 105.004 151.724 105.597 151.975C105.898 152.718 106.169 151.599 105.669 151.452Z" fill="white"/>
<path fill-rule="evenodd" clip-rule="evenodd" d="M110.339 150.489C110.121 150.416 110.215 150.709 110.339 150.803C110.797 151.232 111.005 149.935 110.339 150.489Z" fill="white"/>
<path fill-rule="evenodd" clip-rule="evenodd" d="M111.078 151.096C111.078 151.169 111.296 151.777 111.452 151.682C111.775 151.442 111.275 151.013 111.078 151.096Z" fill="white"/>
<path fill-rule="evenodd" clip-rule="evenodd" d="M111.785 151.515C111.234 151.902 111.785 152.08 112.243 152.195C112.7 152.31 111.972 151.316 111.785 151.515Z" fill="white"/>
<path fill-rule="evenodd" clip-rule="evenodd" d="M113.241 151.651C113.449 151.996 113.688 151.546 113.595 151.379C113.47 151.379 113.148 151.588 113.241 151.651Z" fill="white"/>
<path fill-rule="evenodd" clip-rule="evenodd" d="M114.219 151.232C113.938 151.431 113.439 151.63 114.011 151.766C114.208 152.603 114.292 151.358 114.219 151.232Z" fill="white"/>
<path fill-rule="evenodd" clip-rule="evenodd" d="M118.046 147.663C118.265 147.862 118.348 148.291 118.504 148.103C118.826 147.716 118.119 147.046 118.046 147.663Z" fill="white"/>
<path fill-rule="evenodd" clip-rule="evenodd" d="M115.529 149.212C115.779 148.993 115.165 148.867 115.228 149.108C115.29 149.348 115.477 149.307 115.529 149.212Z" fill="white"/>
<path fill-rule="evenodd" clip-rule="evenodd" d="M116.133 148.626C116.133 148.626 116.133 148.511 116.07 148.501C115.769 148.532 116.029 148.752 116.133 148.626Z" fill="white"/>
<path fill-rule="evenodd" clip-rule="evenodd" d="M116.133 149.034C116.133 148.951 116.133 148.825 116.133 148.825C115.883 148.773 115.977 149.139 116.133 149.034Z" fill="white"/>
<path fill-rule="evenodd" clip-rule="evenodd" d="M115.987 149.327C116.07 149.526 116.205 149.327 116.081 149.254C115.956 149.181 115.966 149.275 115.987 149.327Z" fill="white"/>
<path fill-rule="evenodd" clip-rule="evenodd" d="M129.404 152.488C129.643 152.488 129.404 151.892 129.851 152.049C132.971 152.467 127.948 149.296 129.497 148.302C129.102 147.13 129.695 147.936 130.538 147.475C129.373 146.355 131.162 147.035 131.401 146.355C129.664 145.8 129.809 145.507 129.071 144.67C128.489 143.414 127.958 145.193 127.178 146.125C125.961 146.23 127.085 146.502 126.658 146.826C123.891 146.544 123.08 152.52 120.074 150.531C118.764 151.316 119.034 154.069 120.792 153.252C120.709 153.692 118.66 153.598 120.126 154.089C121.167 154.843 119.783 157.365 122.123 156.654C123.163 155.858 122.311 157.009 122.716 157.522C123.11 157.263 123.559 157.1 124.027 157.048C124.495 156.995 124.969 157.054 125.41 157.219C127.646 159.752 128.52 154.194 129.404 152.488Z" fill="white"/>
<path fill-rule="evenodd" clip-rule="evenodd" d="M115.009 159.741C115.925 160.945 115.394 157.397 115.883 156.811C114.773 155.893 113.731 154.896 112.763 153.828C113.657 153.294 112.565 153.619 112.368 153.451C113.772 153.011 112.888 152.185 111.858 152.792C110.277 150.364 106.314 146.512 102.664 145.884C106.658 149.568 110.131 160.128 115.009 159.741Z" fill="white"/>
<path fill-rule="evenodd" clip-rule="evenodd" d="M107.157 152.886C107.157 152.656 106.658 152.718 106.793 152.886C106.928 153.053 107.157 153.043 107.157 152.886Z" fill="white"/>
<path fill-rule="evenodd" clip-rule="evenodd" d="M106.772 153.775C106.772 153.775 106.668 153.43 106.585 153.482C106.252 153.639 106.616 154.215 106.772 153.775Z" fill="white"/>
<path fill-rule="evenodd" clip-rule="evenodd" d="M107.157 154.267C106.117 154.341 107.157 154.738 107.292 155.241C108.01 155.534 107.448 154.372 107.157 154.267Z" fill="white"/>
<path fill-rule="evenodd" clip-rule="evenodd" d="M108.03 155.544C107.635 155.544 108.332 156.151 108.322 155.9C108.322 155.9 108.124 155.492 108.03 155.544Z" fill="white"/>
<path fill-rule="evenodd" clip-rule="evenodd" d="M108.79 156.559C108.384 156.559 109.143 157.25 109.123 157.072C109.102 156.894 108.987 156.465 108.79 156.559Z" fill="white"/>
<path fill-rule="evenodd" clip-rule="evenodd" d="M108.519 156.266C108.301 156.266 108.519 156.622 108.634 156.413C108.634 156.465 108.623 156.245 108.519 156.266Z" fill="white"/>
<path fill-rule="evenodd" clip-rule="evenodd" d="M111.015 159.605C111.119 159.762 111.525 159.867 111.317 159.605C111.255 159.532 110.932 159.469 111.015 159.605Z" fill="white"/>
<path fill-rule="evenodd" clip-rule="evenodd" d="M114.25 153.074C113.886 153.001 113.928 153.639 114.25 153.451C114.978 153.849 114.541 153.148 114.25 153.074Z" fill="white"/>
<path fill-rule="evenodd" clip-rule="evenodd" d="M114.136 153.901C114.302 153.681 113.938 153.441 113.813 153.671C113.688 153.901 114.052 154.058 114.136 153.901Z" fill="white"/>
<path fill-rule="evenodd" clip-rule="evenodd" d="M115.02 155.335C114.76 155.46 115.977 156.633 116.278 156.601C117.048 157.648 115.852 154.686 115.446 154.958C115.737 155.733 114.999 154.54 115.02 155.335Z" fill="white"/>
<path fill-rule="evenodd" clip-rule="evenodd" d="M117.349 156.622C117.672 156.497 117.828 157.669 117.974 156.79C119.253 157.512 117.745 155.283 117.349 156.622Z" fill="white"/>
<path fill-rule="evenodd" clip-rule="evenodd" d="M120.126 154.801C120.126 154.686 120.438 154.644 120.407 154.55C120.106 154.142 119.586 154.728 120.126 154.801Z" fill="white"/>
<path fill-rule="evenodd" clip-rule="evenodd" d="M120.293 154.299C120.293 154.194 119.783 153.933 119.71 154.069C119.638 154.205 120.054 154.372 120.293 154.299Z" fill="white"/>
<path fill-rule="evenodd" clip-rule="evenodd" d="M119.378 155.251C119.378 155.251 119.378 155.105 119.315 155.073C118.91 154.916 119.253 155.419 119.378 155.251Z" fill="white"/>
<path fill-rule="evenodd" clip-rule="evenodd" d="M122.851 163.268C127.293 164.315 125.171 162.87 122.799 161.374C120.397 160.254 121.811 161.918 119.138 161.489C118.098 160.359 117.058 160.442 115.779 160.285C113.532 162.431 120.48 162.965 122.851 163.268Z" fill="white"/>
<path fill-rule="evenodd" clip-rule="evenodd" d="M114.843 161.07C114.624 160.945 114.583 161.175 114.77 161.185C114.77 161.185 114.947 161.143 114.843 161.07Z" fill="white"/>
<path fill-rule="evenodd" clip-rule="evenodd" d="M123.912 162.064C124.162 161.928 125.992 161.698 124.609 161.646C124.089 161.478 123.028 161.489 123.912 162.064Z" fill="white"/>
<path fill-rule="evenodd" clip-rule="evenodd" d="M126.679 161.698C127.251 161.813 126.679 161.342 126.45 161.468C126.221 161.594 126.533 162.106 126.679 161.698Z" fill="white"/>
<path fill-rule="evenodd" clip-rule="evenodd" d="M125.66 163.404C126.315 163.812 126.502 163.98 126.96 163.31C126.929 162.849 125.254 162.902 125.66 163.404Z" fill="white"/>
<path fill-rule="evenodd" clip-rule="evenodd" d="M126.876 163.906C126.876 163.906 126.876 163.708 126.793 163.739C126.71 163.77 126.72 164.084 126.876 163.906Z" fill="white"/>
<path fill-rule="evenodd" clip-rule="evenodd" d="M128.114 163.383C127.147 163.132 126.897 164.367 127.979 164.053C127.844 163.875 128.249 163.551 128.114 163.383Z" fill="white"/>
<path fill-rule="evenodd" clip-rule="evenodd" d="M130.361 163.906C131.786 164.325 130.704 163.038 129.716 163.08C128.676 163.289 130.236 163.551 130.049 163.739C127.303 162.808 128.145 165.173 130.361 163.906Z" fill="white"/>
<path fill-rule="evenodd" clip-rule="evenodd" d="M131.338 163.634C131.338 164.262 131.692 163.823 131.546 163.551C131.411 163.498 131.349 163.498 131.338 163.634Z" fill="white"/>
<path fill-rule="evenodd" clip-rule="evenodd" d="M131.65 163.99C131.858 164.137 131.858 163.729 131.734 163.76C131.609 163.791 131.578 163.98 131.65 163.99Z" fill="white"/>
<path fill-rule="evenodd" clip-rule="evenodd" d="M131.619 165.204C132.285 166.251 133.991 165.707 132.43 164.943C131.931 164.168 129.653 164.838 131.619 165.204Z" fill="white"/>
<path fill-rule="evenodd" clip-rule="evenodd" d="M135.01 163.99C137.392 162.598 133.731 163.697 132.243 163.373C130.995 164.681 134.407 163.791 135.01 163.99Z" fill="white"/>
<path fill-rule="evenodd" clip-rule="evenodd" d="M136.56 163.676C136.986 163.331 136.872 163.122 136.383 163.373C136.081 163.572 136.227 163.927 136.56 163.676Z" fill="white"/>
<path fill-rule="evenodd" clip-rule="evenodd" d="M136.934 163.561C136.937 163.595 136.948 163.628 136.966 163.658C136.983 163.687 137.007 163.712 137.035 163.731C137.064 163.75 137.096 163.763 137.13 163.767C137.164 163.772 137.198 163.769 137.231 163.759C137.263 163.748 137.293 163.731 137.318 163.707C137.343 163.684 137.362 163.655 137.375 163.623C137.387 163.591 137.392 163.557 137.39 163.522C137.387 163.488 137.377 163.455 137.36 163.425C137.256 163.425 136.934 163.446 136.934 163.561Z" fill="white"/>
<path fill-rule="evenodd" clip-rule="evenodd" d="M137.828 163.561C137.828 163.561 138.39 163.331 138.307 163.268C138.057 163.017 137.1 163.362 137.828 163.561Z" fill="white"/>
<path fill-rule="evenodd" clip-rule="evenodd" d="M139.014 163.31C138.962 163.31 138.775 163.226 138.858 163.383L139.014 163.31Z" fill="white"/>
<path fill-rule="evenodd" clip-rule="evenodd" d="M136.144 163.258C135.946 163.184 135.956 163.394 136.071 163.425C136.185 163.456 136.227 163.299 136.144 163.258Z" fill="white"/>
<path fill-rule="evenodd" clip-rule="evenodd" d="M135.894 163.572C135.831 163.572 135.644 163.823 135.696 163.833C135.748 163.844 135.946 163.687 135.894 163.572Z" fill="white"/>
<path fill-rule="evenodd" clip-rule="evenodd" d="M139.285 162.849C139.524 162.713 140.886 162.849 140.231 162.347C139.919 162.619 139.097 162.159 139.285 162.849Z" fill="white"/>
<path fill-rule="evenodd" clip-rule="evenodd" d="M141.146 162.337C141.146 162.337 141.146 162.148 141.042 162.19C140.938 162.232 141.094 162.462 141.146 162.337Z" fill="white"/>
<path fill-rule="evenodd" clip-rule="evenodd" d="M142.623 161.698C142.311 161.928 142.623 162.023 142.779 161.897C142.935 161.771 142.727 161.698 142.623 161.698Z" fill="white"/>
<path fill-rule="evenodd" clip-rule="evenodd" d="M143.84 161.311C143.84 161.206 143.622 161.164 143.694 161.311C143.767 161.457 143.84 161.311 143.84 161.311Z" fill="white"/>
<path fill-rule="evenodd" clip-rule="evenodd" d="M144.339 160.83C144.537 160.83 144.537 160.673 144.339 160.662C144.142 160.652 144.214 160.819 144.339 160.83Z" fill="white"/>
<path fill-rule="evenodd" clip-rule="evenodd" d="M134.355 166.303C134.355 166.303 134.355 165.958 134.24 166.042C133.897 166.219 134.105 166.481 134.355 166.303Z" fill="white"/>
<path fill-rule="evenodd" clip-rule="evenodd" d="M135.894 166.46C136.466 165.78 135.311 166.46 135.322 166.607C135.332 166.753 135.738 166.533 135.894 166.46Z" fill="white"/>
<path fill-rule="evenodd" clip-rule="evenodd" d="M138.452 164.838C144.693 162.996 136.154 163.341 136.476 165.738C135.519 166.46 138.224 165.487 138.452 164.838Z" fill="white"/>
<path fill-rule="evenodd" clip-rule="evenodd" d="M136.029 165.686C135.946 165.686 135.811 165.843 135.852 165.885C136.008 166.094 136.196 165.801 136.029 165.686Z" fill="white"/>
<path fill-rule="evenodd" clip-rule="evenodd" d="M138.151 151.002C136.872 153.168 134.043 150.699 132.545 152.049C131.64 153.859 131.682 154.937 130.808 157.03C132.15 157.365 130.902 160.892 132.888 159.647C132.711 158.988 132.482 155.963 133.606 156.371C133.419 157.041 134.157 159.992 134.916 158.694C138.109 157.648 134.708 158.642 135.291 156.811C132.888 154.916 136.05 155.031 136.726 153.744C135.135 153.42 131.702 156.151 132.763 152.624C133.887 152.122 140.325 153.189 138.151 151.002Z" fill="white"/>
<path fill-rule="evenodd" clip-rule="evenodd" d="M133.075 160.505C132.95 159.668 132.503 160.934 132.919 160.976C132.919 160.976 133.138 160.652 133.075 160.505Z" fill="white"/>
<path fill-rule="evenodd" clip-rule="evenodd" d="M133.086 161.928C133.086 161.928 133.086 161.74 132.982 161.751C132.878 161.761 132.961 162.096 133.086 161.928Z" fill="white"/>
<path fill-rule="evenodd" clip-rule="evenodd" d="M134.563 159.249C134.375 159.312 134.427 159.94 134.698 159.825C134.968 159.71 134.698 159.197 134.563 159.249Z" fill="white"/>
<path fill-rule="evenodd" clip-rule="evenodd" d="M135.176 159.605C135.727 159.605 135.821 158.297 135.176 159.008C135.353 159.239 134.854 159.605 135.176 159.605Z" fill="white"/>
<path fill-rule="evenodd" clip-rule="evenodd" d="M136.237 159.406C135.686 159.228 136.237 159.019 136.237 158.799C135.603 157.826 135.457 161.175 136.237 159.406Z" fill="white"/>
<path fill-rule="evenodd" clip-rule="evenodd" d="M136.695 154.927C137.194 154.498 135.655 154.309 135.873 154.927C136.144 155.167 136.289 154.843 136.695 154.927Z" fill="white"/>
<path fill-rule="evenodd" clip-rule="evenodd" d="M136.102 155.419C136.164 155.607 136.383 155.419 136.237 155.345C136.092 155.272 136.081 155.335 136.102 155.419Z" fill="white"/>
<path fill-rule="evenodd" clip-rule="evenodd" d="M136.601 155.304C136.601 155.178 136.372 155.157 136.445 155.304C136.466 155.323 136.494 155.334 136.523 155.334C136.552 155.334 136.58 155.323 136.601 155.304Z" fill="white"/>
<path fill-rule="evenodd" clip-rule="evenodd" d="M136.934 155.052C136.934 154.937 136.705 154.937 136.778 155.052C136.851 155.167 136.861 155.115 136.934 155.052Z" fill="white"/>
<path fill-rule="evenodd" clip-rule="evenodd" d="M134.615 153.618C134.615 153.618 134.479 153.493 134.459 153.503C134.438 153.514 134.583 153.849 134.615 153.618Z" fill="white"/>
<path fill-rule="evenodd" clip-rule="evenodd" d="M134.677 153.556C134.677 153.556 134.812 153.556 134.812 153.503C134.812 153.451 134.521 153.399 134.677 153.556Z" fill="white"/>
<path fill-rule="evenodd" clip-rule="evenodd" d="M137.797 155.105C137.308 155.754 138.369 155.481 138.608 155.366C139.347 155.22 138.057 154.937 137.797 155.105Z" fill="white"/>
<path fill-rule="evenodd" clip-rule="evenodd" d="M138.941 155.188C138.941 155.68 139.763 155.377 139.981 155.304C139.784 155.063 139.149 155.22 138.941 155.188Z" fill="white"/>
<path fill-rule="evenodd" clip-rule="evenodd" d="M139.669 156.109C139.669 155.942 139.576 155.712 139.503 155.555C139.201 155.586 139.607 156.109 139.669 156.109Z" fill="white"/>
<path fill-rule="evenodd" clip-rule="evenodd" d="M139.43 157.187C139.222 158.035 140.938 157.794 141.229 157.428C141.161 157.255 141.048 157.104 140.903 156.989C140.757 156.875 140.583 156.802 140.4 156.777C140.217 156.752 140.03 156.778 139.86 156.85C139.689 156.922 139.541 157.038 139.43 157.187Z" fill="white"/>
<path fill-rule="evenodd" clip-rule="evenodd" d="M142.249 155.094C142.249 154.372 140.845 154.812 141.562 155.251C141.687 155.073 142.041 155.262 142.249 155.094Z" fill="white"/>
<path fill-rule="evenodd" clip-rule="evenodd" d="M141.853 153.88C141.583 153.441 141.042 153.441 141.396 153.995C141.645 153.901 141.968 154.309 141.853 153.88Z" fill="white"/>
<path fill-rule="evenodd" clip-rule="evenodd" d="M141.261 154.058C141.313 153.849 140.938 153.838 141.021 154.058C141.094 154.11 141.281 154.131 141.261 154.058Z" fill="white"/>
<path fill-rule="evenodd" clip-rule="evenodd" d="M141.094 153.409C141.073 153.401 141.051 153.398 141.028 153.399C141.006 153.401 140.984 153.408 140.964 153.418C140.944 153.429 140.927 153.445 140.913 153.463C140.9 153.481 140.891 153.502 140.886 153.524C140.959 153.859 141.313 153.608 141.094 153.409Z" fill="white"/>
<path fill-rule="evenodd" clip-rule="evenodd" d="M141.687 156.968C141.739 157.156 141.874 156.968 141.791 156.852C141.708 156.737 141.645 156.915 141.687 156.968Z" fill="white"/>
<path fill-rule="evenodd" clip-rule="evenodd" d="M141.833 156.601C141.895 156.821 142.186 156.664 142.051 156.507C141.916 156.35 141.812 156.528 141.833 156.601Z" fill="white"/>
<path fill-rule="evenodd" clip-rule="evenodd" d="M144.329 157.219C147.116 158.548 143.746 155.481 142.249 156.612C141.25 157.732 143.632 156.936 144.329 157.219Z" fill="white"/>
<path fill-rule="evenodd" clip-rule="evenodd" d="M142.478 157.512C142.332 157.428 141.791 157.512 141.833 157.637C141.874 157.763 142.446 157.742 142.478 157.512Z" fill="white"/>
<path fill-rule="evenodd" clip-rule="evenodd" d="M142.935 157.512C142.935 157.376 142.654 157.355 142.738 157.512C142.803 157.523 142.87 157.523 142.935 157.512Z" fill="white"/>
<path fill-rule="evenodd" clip-rule="evenodd" d="M144.214 155.419C144.464 155.701 145.463 155.419 144.724 155.105C144.516 155.052 144.152 155.199 144.214 155.419Z" fill="white"/>
<path fill-rule="evenodd" clip-rule="evenodd" d="M140.761 163.184C140.824 163.184 140.897 163.247 140.938 163.184C141.198 162.902 140.616 163.111 140.761 163.184Z" fill="white"/>
<path fill-rule="evenodd" clip-rule="evenodd" d="M141.427 163.258C141.392 163.228 141.354 163.204 141.313 163.184C141.313 163.184 141.323 163.394 141.427 163.258Z" fill="white"/>
<path fill-rule="evenodd" clip-rule="evenodd" d="M141.874 163.383C141.947 163.331 142.27 163.237 142.166 163.122C141.708 163.059 141.281 163.184 141.874 163.383Z" fill="white"/>
<path fill-rule="evenodd" clip-rule="evenodd" d="M142.998 163.32C143.289 163.195 142.821 163.142 142.842 163.247C142.844 163.264 142.851 163.28 142.861 163.294C142.871 163.307 142.885 163.318 142.9 163.325C142.916 163.333 142.933 163.336 142.95 163.335C142.966 163.334 142.983 163.329 142.998 163.32Z" fill="white"/>
<path fill-rule="evenodd" clip-rule="evenodd" d="M144.131 162.933C144.246 162.766 143.975 162.546 143.84 162.713C143.838 162.75 143.845 162.786 143.86 162.819C143.875 162.852 143.898 162.88 143.927 162.902C143.956 162.924 143.99 162.938 144.025 162.943C144.061 162.949 144.097 162.945 144.131 162.933Z" fill="white"/>
<path fill-rule="evenodd" clip-rule="evenodd" d="M144.214 163.184C144.37 162.891 143.954 163.111 144.017 163.184C144.079 163.258 144.069 163.279 144.214 163.184Z" fill="white"/>
<path fill-rule="evenodd" clip-rule="evenodd" d="M146.388 162.399C146.617 161.457 145.962 161.981 145.785 162.452C145.577 163.122 146.295 162.965 146.388 162.399Z" fill="white"/>
<path fill-rule="evenodd" clip-rule="evenodd" d="M145.369 163.237C145.473 163.31 145.764 163.163 145.691 163.027C145.619 162.891 145.255 163.195 145.369 163.237Z" fill="white"/>
<path fill-rule="evenodd" clip-rule="evenodd" d="M147.865 160.212C147.948 160.631 148.24 159.615 148.219 159.563C147.938 159.521 147.896 160.045 147.865 160.212Z" fill="white"/>
<path fill-rule="evenodd" clip-rule="evenodd" d="M147.584 159.752C147.491 159.752 147.584 159.992 147.584 160.066C147.771 160.767 147.771 159.814 147.584 159.752Z" fill="white"/>
<path fill-rule="evenodd" clip-rule="evenodd" d="M150.091 160.107C150.018 159.469 149.415 159.752 149.56 160.233C149.633 160.306 150.018 160.275 150.091 160.107Z" fill="white"/>
<path fill-rule="evenodd" clip-rule="evenodd" d="M150.101 160.327C150.101 160.181 149.831 160.327 149.789 160.327C149.311 160.652 150.361 161.133 150.101 160.327Z" fill="white"/>
<path fill-rule="evenodd" clip-rule="evenodd" d="M149.415 160.474C149.217 160.557 149.768 160.986 149.685 160.798C149.654 160.798 149.415 160.432 149.415 160.474Z" fill="white"/>
<path fill-rule="evenodd" clip-rule="evenodd" d="M149.332 160.756C149.207 161.102 149.519 161.112 149.332 161.342C149.831 161.939 149.893 160.861 149.332 160.756Z" fill="white"/>
<path fill-rule="evenodd" clip-rule="evenodd" d="M149.831 160.903C149.696 161.028 149.893 161.206 149.976 161.06C150.06 160.913 149.852 160.84 149.831 160.903Z" fill="white"/>
<path fill-rule="evenodd" clip-rule="evenodd" d="M150.028 161.259C150.028 161.332 150.028 161.416 150.112 161.321C150.195 161.227 150.07 161.185 150.028 161.259Z" fill="white"/>
<path fill-rule="evenodd" clip-rule="evenodd" d="M143.018 151.672C143.497 150.008 141.978 151.672 141.885 151.913C141.604 151.483 142.519 151.159 141.968 150.521C141.583 148.961 141.198 154.707 142.509 153.995C141.427 152.038 142.602 153.022 143.018 151.672Z" fill="white"/>
<path fill-rule="evenodd" clip-rule="evenodd" d="M142.758 150.468C143.008 150.269 142.904 149.83 142.519 150.05C142.134 150.102 142.446 150.604 142.758 150.468Z" fill="white"/>
<path fill-rule="evenodd" clip-rule="evenodd" d="M143.871 152.991C143.206 152.572 143.871 153.43 144.038 153.2C144.038 153.2 143.965 153.032 143.871 152.991Z" fill="white"/>
<path fill-rule="evenodd" clip-rule="evenodd" d="M146.107 153.399C146.867 152.708 143.882 153.2 145.629 153.524C145.702 152.917 145.463 153.399 146.107 153.399Z" fill="white"/>
<path fill-rule="evenodd" clip-rule="evenodd" d="M145.806 154.173C145.66 153.953 145.411 154.173 145.359 154.309C145.421 154.77 145.941 154.613 145.806 154.173Z" fill="white"/>
<path fill-rule="evenodd" clip-rule="evenodd" d="M145.119 153.995C144.901 154.393 145.327 154.152 145.4 154.1C145.473 154.048 145.15 153.901 145.119 153.995Z" fill="white"/>
<path fill-rule="evenodd" clip-rule="evenodd" d="M145.66 153.922C145.66 153.922 145.567 153.723 145.556 153.817C145.546 153.912 145.577 154.027 145.66 153.922Z" fill="white"/>
<path fill-rule="evenodd" clip-rule="evenodd" d="M152.681 155.094C152.421 154.77 151.474 155.042 151.068 154.969C151.12 155.01 152.535 155.419 152.681 155.094Z" fill="white"/>
<path fill-rule="evenodd" clip-rule="evenodd" d="M151.36 153.922C151.63 154.006 151.516 154.362 151.713 154.403C153.024 154.205 150.143 153.325 151.36 153.922Z" fill="white"/>
<path fill-rule="evenodd" clip-rule="evenodd" d="M150.32 154.016C150.07 154.016 150.32 154.393 150.424 154.267C150.528 154.142 150.455 153.974 150.32 154.016Z" fill="white"/>
<path fill-rule="evenodd" clip-rule="evenodd" d="M150.663 154.833C150.663 155.073 150.902 154.99 150.819 154.833C150.798 154.833 150.663 154.78 150.663 154.833Z" fill="white"/>
<path fill-rule="evenodd" clip-rule="evenodd" d="M154.99 162.274C154.158 161.719 153.949 163.038 153.44 163.32C154.033 163.561 155.322 163.059 154.99 162.274Z" fill="white"/>
<path fill-rule="evenodd" clip-rule="evenodd" d="M154.979 163.352C154.979 163.279 155.042 163.059 154.979 163.069C154.459 163.059 154.678 163.551 154.979 163.352Z" fill="white"/>
<path fill-rule="evenodd" clip-rule="evenodd" d="M140.834 147.548C140.616 147.234 140.335 147.172 140.533 147.548C140.46 147.925 140.761 147.873 140.834 147.548Z" fill="white"/>
<path fill-rule="evenodd" clip-rule="evenodd" d="M140.501 147.956C140.377 148.093 140.699 148.438 140.647 148.145C140.647 148.145 140.533 147.904 140.501 147.956Z" fill="white"/>
<path fill-rule="evenodd" clip-rule="evenodd" d="M139.243 148.804C139.555 148.71 139.004 148.155 138.952 148.176C138.9 148.197 138.91 148.961 139.243 148.804Z" fill="white"/>
</svg>
