<?xml version="1.0" encoding="utf-8"?>
<!-- Generator: Adobe Illustrator 26.0.3, SVG Export Plug-In . SVG Version: 6.00 Build 0)  -->
<svg version="1.1" id="Layer_1" xmlns="http://www.w3.org/2000/svg" xmlns:xlink="http://www.w3.org/1999/xlink" x="0px" y="0px"
	 viewBox="0 0 430 430" style="enable-background:new 0 0 430 430;" xml:space="preserve">
<style type="text/css">
	.st0{fill:#FFFFFF;}
	.st1{fill:#0072CE;}
</style>
<g>
	<g>
		<path class="st0" d="M322.4,401c25.4-14.7,41.2-46,21.8-79.5l-8-13.8l14.6,3.9c19,5.1,35.1,1.9,47.5-6
			c10.1-6.2,17.6-15.8,22.2-26.7c3.6-8.5,5.4-17.6,5.1-26.8c-0.1,0-0.2,0.1-0.2,0.1c-0.2-7-1.7-14-4.4-20.5l0.2,0
			c-1.4-3.3-3.2-6.4-5.3-9.3c-7.2-10.6-18.7-19.2-35-23.6l-14.6-3.9l13.8-8C447,148.4,388.5,47,321.6,85.6l-13.8,8l1.1-7l3-7.7
			c5.7-21.2,1.1-38.8-8.9-51.6c-17.4-23.1-53.3-30.7-78.1-14.9c-11.6,7-21.1,18.9-25.8,36.4l-1.1,6.9l-2.9,7.5l-7.9-13.7
			C167.8,16,132.7,14,107.4,28.7c-25.4,14.7-41.1,46-21.8,79.5l8,13.8L79,118.1c-19-5.1-35.1-1.9-47.5,6
			c-10.1,6.2-17.6,15.8-22.2,26.7c-3.6,8.5-5.4,17.6-5.1,26.8l0.3-0.1c0.2,7,1.7,14,4.4,20.5l-0.2,0c1.4,3.3,3.2,6.4,5.3,9.4
			c7.2,10.6,18.7,19.2,35,23.6l14.5,3.9l-13.9,8c-66.9,38.6-8.3,140.1,58.6,101.5l13.8-8l-1.1,7l-3,7.7c-5.7,21.2-1.1,38.8,8.9,51.6
			c17.4,23.1,53.3,30.8,78.1,14.9c11.6-7,21.1-18.9,25.8-36.4l1-7l2.9-7.5l7.9,13.7C262,413.7,297,415.7,322.4,401z"/>
		<path class="st1" d="M351.4,176.1l-69.3,126v-77.5l-1,0.1l0,0l-9.4,0.6c-9.3,1.4-21-2.3-29.2-8.2c14.4-6.1,26.2-17.1,33.4-31l0,5
			c0,4.4,0.9,8.7,2.5,12.7s4.1,7.7,7.2,10.8l2.1,2.1l45.4-53.1c1.8-2.1,4.4-3.5,7.2-3.8c2.8-0.3,5.6,0.5,7.9,2.2h0
			c2.1,1.6,3.5,3.9,4.1,6.5C353.1,171.1,352.7,173.8,351.4,176.1z M280.4,305.3L280.4,305.3L280.4,305.3z M161.7,225.2l-23.2-1.5
			l9.1-9.1c6.2-6.2,9.7-14.7,9.7-23.6l0-5c7.2,13.9,19,24.9,33.5,31C182.8,223,171,226.6,161.7,225.2z M250.2,107.2
			c9.7,6.5,17.2,15.7,21.6,26.5c0.4,1,0.7,2,1.1,3.1c0.4,1.1,0.8,2.2,1.1,3.4c2.2,7.6,2.9,15.6,1.9,23.5c0,0,0,0.1,0,0.1
			c-0.6,0.1-1.2,0.2-1.9,0.2h-0.4l-0.2,0.1c-1,0.2-2.1,0.3-3.2,0.4c-0.9,0.1-1.9,0.4-2.8,0.4l-1.5,0l-1.5,0h-3.1
			c-6-0.9-11.8-2.7-17.2-5.6c-13.8-7.7-26-18-35.7-30.4l0,0c-0.5-0.6-1.1-1.1-1.7-1.4c-0.7-0.3-1.4-0.5-2.2-0.5H204h-0.1
			c-0.8,0.1-1.5,0.3-2.2,0.7c-0.7,0.4-1.3,0.9-1.7,1.6l0,0c-3.3,4.6-7.7,8.4-12.7,11c-5.1,2.6-10.7,4-16.4,4H170h-0.2l-1.5,0l-1.5,0
			c-1-0.1-2-0.2-3-0.4h-0.1c-1.4-0.2-2.9-0.6-4.3-1c0.7-2.9,1.5-5.8,2.6-8.6c0.7-1.7,1.5-3.1,2.3-4.7c0.8-1.6,1.1-2.3,1.7-3.4
			c0.6-1.1,1.4-1.9,2-2.8c8.8-13,22.3-22,37.7-25C221.3,95.2,237.2,98.4,250.2,107.2L250.2,107.2z M236.4,211.5
			c-8.1,2.9-16.7,3.9-25.3,3.1c-8.5-0.8-16.8-3.5-24.2-7.8c-7.4-4.3-13.8-10.2-18.7-17.2c-4.9-7-8.2-15.1-9.7-23.5
			c-0.3-1.6-0.6-3.2-0.7-4.9c-0.1-1.3,0-2.7,0-4c0-0.7,0-1.5,0-2.2v-5.1l3.2,1l3.6,0.7l3.4,0.4c5,0.4,10.1-0.1,14.9-1.4
			c8.2-2.3,15.6-7,21.3-13.4c6.5,7.6,13.9,14.5,21.8,20.5c9.4,7.6,20.7,12.6,32.7,14.4h6.2c3,0,6-0.4,8.9-1.2
			c-1.4,5.3-3.5,10.4-6.4,15.1l-2.1,3.2l-2.1,2.8C256.4,201,247,207.8,236.4,211.5"/>
		<path class="st1" d="M147.8,323.1L97,382.6c-17.1,5.1-19.8-6.3-19.8-6.3V375c0.1-1.5,0.5-2.9,1.2-4.2l6.2-11.4l1.7-3.2l1.8-3.2
			l59.6-108.6L147.8,323.1z"/>
		<path class="st1" d="M273.9,431.4H155.6v-187c0-3.2,1.3-6.2,3.5-8.4c2.2-2.2,5.3-3.5,8.4-3.5h13.1c0.5,8.8,4.4,17,10.7,23
			c6.4,6,14.8,9.4,23.6,9.4c8.8,0,17.2-3.3,23.6-9.4c6.4-6,10.2-14.2,10.8-23h13.1c3.2,0,6.2,1.3,8.4,3.5c2.2,2.2,3.5,5.3,3.5,8.4
			L273.9,431.4z"/>
	</g>
</g>
</svg>
