<?xml version="1.0" encoding="utf-8"?>
<!-- Generator: Adobe Illustrator 26.0.3, SVG Export Plug-In . SVG Version: 6.00 Build 0)  -->
<svg version="1.1" xmlns="http://www.w3.org/2000/svg" xmlns:xlink="http://www.w3.org/1999/xlink" x="0px" y="0px"
	 viewBox="0 0 293 220" style="enable-background:new 0 0 293 220;" xml:space="preserve">
<style type="text/css">
	.st0{fill:#0078BF;}
	.st1{fill:#EC008C;}
	.st2{clip-path:url(#SVGID_00000119831294952698234810000007269896190849235627_);fill:#DEE229;}
	.st3{clip-path:url(#SVGID_00000119831294952698234810000007269896190849235627_);fill:#EEBD1D;}
	.st4{clip-path:url(#SVGID_00000119831294952698234810000007269896190849235627_);fill:#023C4B;}
	.st5{clip-path:url(#SVGID_00000119831294952698234810000007269896190849235627_);fill:#FFD300;}
	.st6{clip-path:url(#SVGID_00000119831294952698234810000007269896190849235627_);fill:#5AC8E5;}
	.st7{clip-path:url(#SVGID_00000119831294952698234810000007269896190849235627_);fill:#0078BF;}
</style>
<g id="Layer_2">
	<path class="st0" d="M269.1,18.7L13.2,39.8l13.7,165.8l255.9-21.2L269.1,18.7z"/>
</g>
<g id="Layer_1">
	<path class="st1" d="M143.2,61.2c-8.6-6-25.4-14.6-27.4-25.6c-2.6-14.8,19.6-18.7,22.2-3.9c-2.6-14.8,19.5-18.7,22.2-3.9
		C162.2,38.7,149.3,52.6,143.2,61.2z"/>
	<g>
		<defs>
			
				<rect id="SVGID_1_" x="20.4" y="28.5" transform="matrix(0.9963 -8.597755e-02 8.597755e-02 0.9963 -9.0682 13.1575)" width="255.6" height="166.7"/>
		</defs>
		<clipPath id="SVGID_00000058554566089118191630000016602871032732635801_">
			<use xlink:href="#SVGID_1_"  style="overflow:visible;"/>
		</clipPath>
		<path style="clip-path:url(#SVGID_00000058554566089118191630000016602871032732635801_);fill:#DEE229;" d="M258.8,80.7
			c-5.1-3.6-12.2-2.3-15.8,2.9l-14,20.3l-4,5.8c-5.8,6.9-13.2,10.8-23.3,11.7c-9.9,0.8-19.2-2.6-26.1-8.8l-3.6-3.6l-0.3-0.4
			l-17.2-17.7c-4.4-4.5-11.5-4.5-16.1-0.3c-4.5,4.4-4.5,11.5-0.3,16.1l36.4,37.5l4,48.4l3.8,46.5c0.5,6.9,6.6,12.1,13.6,11.5
			c6.9-0.5,12.1-6.6,11.5-13.6l-3.8-45.8l7-0.4l3.7,45.7c0.5,6.9,6.6,12.1,13.6,11.5c6.9-0.5,12.1-6.6,11.5-13.6l-3.7-45.2l-4.1-50
			l29.6-42.8C265.3,91.3,263.9,84.3,258.8,80.7z"/>
		<path style="clip-path:url(#SVGID_00000058554566089118191630000016602871032732635801_);fill:#EEBD1D;" d="M154.7,90.9
			c-4.4-4.5-11.5-4.5-16.1-0.3c-4.5,4.4-4.5,11.5-0.3,16.1L154.7,90.9z"/>
		<path style="clip-path:url(#SVGID_00000058554566089118191630000016602871032732635801_);fill:#EEBD1D;" d="M243.1,83.6
			c3.6-5.1,10.6-6.5,15.8-2.9c5.1,3.6,6.4,10.6,2.9,15.8L243.1,83.6z"/>
		<path style="clip-path:url(#SVGID_00000058554566089118191630000016602871032732635801_);fill:#023C4B;" d="M177,172.4l1.8,20.2
			l3.8,46.5c0.5,6.9,6.6,12.1,13.6,11.5c6.9-0.5,12.1-6.6,11.5-13.6l-3.8-45.8l7-0.4l3.7,45.7c0.5,6.9,6.6,12.1,13.6,11.5
			c6.9-0.5,12.1-6.6,11.5-13.6l-3.7-45.2l-1.9-21.5L177,172.4z"/>
		<path style="clip-path:url(#SVGID_00000058554566089118191630000016602871032732635801_);fill:#EEBD1D;" d="M226,84.5
			c-1.2-15-14.4-26.2-29.4-25c-15,1.2-26.2,14.4-25,29.4c1.2,15,14.4,26.2,29.4,25C216.1,112.7,227.3,99.5,226,84.5z"/>
		<path style="clip-path:url(#SVGID_00000058554566089118191630000016602871032732635801_);fill:#FFD300;" d="M143.7,205.7
			c-0.4-4.9-4.8-8.5-9.7-8.1c-4.9,0.4-8.5,4.8-8.1,9.7l3.3,36.2c0.4,4.9,4.8,8.5,9.7,8.1c4.9-0.4,8.5-4.8,8.1-9.7L143.7,205.7z"/>
		<path style="clip-path:url(#SVGID_00000058554566089118191630000016602871032732635801_);fill:#FFD300;" d="M101.3,209.6
			c-0.4-4.9,3.2-9.3,8.1-9.7c4.9-0.4,9.3,3.2,9.7,8.1l3.3,36.2c0.4,4.9-3.2,9.3-8.1,9.7c-4.9,0.4-9.3-3.2-9.7-8.1L101.3,209.6z"/>
		<path style="clip-path:url(#SVGID_00000058554566089118191630000016602871032732635801_);fill:#5AC8E5;" d="M169.6,91.7
			c-4.9-3.3-11.7-2.1-15,2.9l-13.2,19.4l-3.7,5.5c-5.4,6.6-12.5,10.4-22.1,11.3c-5.1,0.4-10-0.3-14.5-1.9v-0.1h-0.3
			c-3.7-1.4-7.1-3.4-10-6l-3.4-3.4l-0.3-0.3l-16.5-16.7c-4.1-4.3-11-4.3-15.2-0.1c-4.3,4.1-4.3,11-0.1,15.2l34.9,35.4l0.1,1.4
			l-0.4,11.9l-5.4,45.4c0.4,4.8,4.7,8.4,9.5,7.8l58.9-5.4c4.8-0.4,8.4-4.7,7.8-9.5l-13.3-43.6l-2.9-13.2l27.9-40.9
			C175.8,101.7,174.6,95,169.6,91.7z"/>
		<path style="clip-path:url(#SVGID_00000058554566089118191630000016602871032732635801_);fill:#FFD300;" d="M70.7,102.1
			c-4.1-4.3-11-4.3-15.2-0.1c-4.3,4.1-4.3,11-0.1,15.2L70.7,102.1z"/>
		<path style="clip-path:url(#SVGID_00000058554566089118191630000016602871032732635801_);fill:#FFD300;" d="M154.7,94.4
			c3.3-4.9,10-6.2,15-2.9c4.9,3.3,6.2,10,2.9,15L154.7,94.4z"/>
		<path style="clip-path:url(#SVGID_00000058554566089118191630000016602871032732635801_);fill:#FFD300;" d="M138.5,95.5
			c-1.2-14.3-13.9-24.8-28.1-23.5c-14.3,1.2-24.8,13.9-23.6,28.1c1.4,14.3,14,24.7,28.3,23.5C129.1,122.4,139.7,109.8,138.5,95.5z"
			/>
		<path style="clip-path:url(#SVGID_00000058554566089118191630000016602871032732635801_);fill:#DEE229;" d="M128.3,143.7
			c-4-2.7-9.5-1.8-12.4,2.2l-11,15.8l-3.2,4.5c-4.4,5.4-10.3,8.5-18.3,9.1c-7.7,0.7-15-2.1-20.3-6.9l-2.7-2.9l-0.3-0.3l-13.4-13.9
			c-3.4-3.6-9.1-3.6-12.5-0.1c-3.6,3.4-3.6,9.1-0.1,12.5L62.6,193l3.2,37.9l3,36.2c0.4,5.4,5.2,9.5,10.6,8.9
			c5.4-0.4,9.5-5.2,8.9-10.6l-3-35.8l5.5-0.3l2.9,35.7c0.4,5.4,5.2,9.5,10.6,8.9c5.4-0.4,9.5-5.2,8.9-10.6l-2.9-35.3l-2.7-38.7
			l23.2-33.5C133.4,152.1,132.4,146.6,128.3,143.7z"/>
		<path style="clip-path:url(#SVGID_00000058554566089118191630000016602871032732635801_);fill:#FFD300;" d="M47.1,151.6
			c-3.4-3.6-9.1-3.6-12.5-0.1c-3.4,3.4-3.6,9.1-0.1,12.5L47.1,151.6z"/>
		<path style="clip-path:url(#SVGID_00000058554566089118191630000016602871032732635801_);fill:#FFD300;" d="M116.1,146
			c2.7-4,8.2-4.9,12.4-2.2c4,2.7,4.9,8.2,2.2,12.4L116.1,146z"/>
		<path style="clip-path:url(#SVGID_00000058554566089118191630000016602871032732635801_);fill:#0078BF;" d="M63.8,206.8l2.1,24.3
			l3,36.2c0.4,5.4,5.2,9.5,10.6,8.9c5.4-0.4,9.5-5.2,8.9-10.6l-3-35.8l5.5-0.3l2.9,35.7c0.4,5.4,5.2,9.5,10.6,8.9
			c5.4-0.4,9.5-5.2,8.9-10.6l-2.9-35.3l-2.1-25.4L63.8,206.8z"/>
		<path style="clip-path:url(#SVGID_00000058554566089118191630000016602871032732635801_);fill:#FFD300;" d="M102.8,146.7
			c-1-11.7-11.3-20.4-22.9-19.5c-11.7,1-20.4,11.3-19.5,22.9c1,11.7,11.3,20.4,22.9,19.5C95,168.7,103.7,158.4,102.8,146.7z"/>
	</g>
</g>
</svg>
