<svg width="139" height="53" viewBox="0 0 139 53" fill="none" xmlns="http://www.w3.org/2000/svg">
<path fill-rule="evenodd" clip-rule="evenodd" d="M3.11416 50.8912C3.11416 51.3326 2.52566 51.3326 2.47662 51.6759C2.47662 51.6759 2.32949 51.7249 2.28045 51.7249C1.10344 51.4797 0.662067 50.9402 0.514941 49.8123C0.514941 49.6161 0.662067 49.3219 0.171647 49.4199C-0.0735629 49.469 -0.024521 49.0276 0.122605 48.9786C0.711109 48.7824 0.76015 48.1939 1.25057 47.9487C1.54482 47.8016 1.29961 47.7525 1.15249 47.6544C0.122605 47.0659 0.0735629 46.4284 1.00536 45.6927C1.34865 45.4475 1.3977 45.1042 1.00536 44.9571C0.465899 44.761 0.662067 44.3686 0.76015 44.2215C0.907276 43.9763 1.15249 43.8292 0.76015 43.5349C0.662067 43.4859 0.76015 43.2897 1.00536 43.2407C1.79003 43.0445 1.79003 42.6031 1.25057 42.0146C1.00536 41.7204 0.613025 41.2299 1.20153 40.8866C1.44674 40.7395 1.44674 40.5924 1.44674 40.3962C1.44674 39.7096 1.15249 39.0721 1.25057 38.3855C1.25057 38.2874 1.25057 38.1893 1.10344 38.1403C0.367815 37.6989 0.711109 37.3556 1.20153 37.0123C0.465899 36.4729 0.367815 35.7372 0.907276 35.0997L0.956318 35.0506C0.613025 34.2169 1.34865 33.4813 1.34865 32.6476C1.29961 31.8629 0.514941 31.2744 0.711109 30.4407C0.76015 30.1955 0.613025 29.9503 1.00536 29.8032C1.20153 29.7541 1.25057 29.5579 1.10344 29.3618C0.907276 28.9694 1.00536 28.6752 1.59386 28.5281C0.956318 28.2338 0.858234 27.8905 1.25057 27.4001C1.44674 27.2039 1.44674 26.9587 1.25057 26.7626C0.711108 26.2721 0.711109 25.8308 1.15249 25.3403C1.20153 25.2913 1.29961 25.2913 1.25057 25.1932C0.858234 24.0652 1.3977 22.9373 1.44674 21.7603C1.49578 20.7794 0.563983 20.0928 0.809192 19.161C0.858234 19.0139 0.711109 18.9649 0.563983 18.9158C0.367815 18.9158 0.269731 18.7197 0.318773 18.6706C0.809192 18.4745 0.662067 17.886 1.0544 17.6898C1.79003 17.3465 1.88812 17.0032 1.29961 16.4637C1.0544 16.2185 0.76015 16.2185 1.34865 15.9733C1.9862 15.6791 1.9862 14.5511 1.49578 14.0607C1.20153 13.7664 1.25057 13.4231 1.44674 13.1779C1.74099 12.8346 1.83907 12.6385 1.3977 12.3442C1.34865 12.2952 1.29961 12.2461 1.20153 12.1971C1.88812 11.6576 0.613025 11.0201 1.34865 10.3335C1.88812 9.84307 1.15249 8.86223 1.74099 8.22469C1.9862 7.97948 1.59386 7.97948 1.49578 7.83235C1.29961 7.48906 1.0544 7.09672 1.83907 6.99864C1.9862 6.99864 2.23141 7.14576 2.23141 6.80247C2.23141 6.55726 2.28045 6.31205 1.9862 6.26301C1.49578 6.21397 1.64291 5.91971 1.64291 5.72355C1.69195 5.38025 2.03524 5.47834 2.23141 5.47834C3.01608 5.52738 3.75171 5.52738 3.89884 4.59558C3.94788 4.30133 4.24213 4.39941 4.4383 4.39941C7.28273 4.39941 10.0291 4.30133 12.7754 4.35037C13.7563 4.35037 14.7371 4.05612 15.767 4.30133C16.0122 4.35037 16.4536 3.76187 16.993 3.90899C17.2873 3.95804 17.6796 3.76187 17.8758 4.25229C18.0229 4.54654 18.9057 4.4975 19.0528 4.30133C19.3961 3.85995 19.7394 4.05612 20.0827 4.05612C20.9654 4.05612 21.7992 4.05612 22.6819 4.05612C22.8781 4.05612 22.9271 4.05612 23.0252 3.90899C23.2704 3.61474 23.6627 3.5657 23.8589 3.95803C24.006 4.25229 24.2513 4.20325 24.3984 4.1542C25.5754 3.5657 26.8505 4.00708 28.0765 3.85995C28.616 3.81091 29.2045 4.00708 29.6949 3.5657C29.842 3.46762 30.1853 3.46762 30.4305 3.61474C30.7248 3.85995 31.0681 4.1542 31.3623 3.5657C31.4604 3.36953 31.8037 3.51666 31.9508 3.71283C32.196 4.05612 32.4413 4.10516 32.7355 3.76187C32.8826 3.5657 33.1278 3.66378 33.275 3.66378C34.1577 3.66378 34.9914 3.66378 35.8742 3.66378C36.0704 3.66378 36.3156 3.85995 36.3646 3.51666C36.3646 3.36953 36.6589 3.41857 36.757 3.46762C37.7378 4.10516 38.6205 3.17336 39.6014 3.41857C40.6313 3.71283 41.7592 3.61474 42.8382 3.5657C43.3286 3.5657 43.868 3.71283 44.2604 3.27145C44.3094 3.22241 44.6037 3.17336 44.6527 3.27145C45.3883 3.90899 46.0259 3.07528 46.8106 3.22241C47.6443 3.41857 48.527 3.36953 49.4098 3.41857C49.704 3.41857 50.0964 3.5657 50.1945 3.07528C50.2435 2.83007 51.7148 2.9772 51.96 3.22241C52.3033 3.5657 53.0879 3.5657 53.4312 3.22241C53.5783 3.02624 53.7745 3.12432 53.9707 3.12432C54.7554 3.17336 55.491 3.07528 56.2757 3.22241C56.668 3.32049 57.2565 3.51666 57.6979 2.92815C57.894 2.6339 58.6787 2.78103 59.1691 2.87911C59.5615 2.9772 59.9048 2.9772 60.2481 2.9772C62.4549 2.87911 64.6618 3.22241 66.9178 3.12432C67.212 3.12432 67.6044 3.27145 67.7024 2.78103C67.7515 2.58486 67.9476 2.6339 68.0948 2.78103C68.5361 3.22241 68.7814 3.22241 69.1737 2.83007C69.2718 2.73199 69.3208 2.78103 69.4189 2.78103C70.1055 2.92815 70.8902 2.53582 71.3806 3.27145C71.4296 3.32049 71.5768 3.36953 71.6258 3.32049C72.4595 2.53582 73.4894 3.07528 74.4702 2.9772C75.1078 2.92815 76.0396 3.17336 76.4809 2.9772C77.0695 2.68294 77.3147 2.78103 77.707 3.07528C77.756 3.12432 78.0503 3.07528 78.0993 3.02624C78.3445 2.58486 78.5407 2.33965 78.7369 3.02624C78.7369 3.07528 79.0311 3.07528 79.0311 3.07528C79.6196 2.19252 80.6005 2.6339 81.2871 2.68294C83.6411 2.87911 85.9951 2.87911 88.3491 3.02624C89.1338 3.07528 89.9184 3.12432 90.7031 3.12432C91.0464 3.12432 91.4878 3.32049 91.684 2.78103C91.733 2.68294 92.2725 2.48678 92.4686 2.92815C92.6158 3.27145 93.0081 3.27145 93.3023 3.07528C93.8908 2.6339 94.087 2.6339 94.4793 3.27145C94.8717 3.02624 95.264 2.29061 95.8035 3.22241C95.9016 3.36953 96.2449 3.51666 96.5391 3.32049C97.1767 2.92815 97.8142 2.73199 98.4027 3.41857C98.5008 3.51666 98.6479 3.51666 98.795 3.41857C99.6288 2.87911 100.904 2.83007 101.639 3.36953C101.885 3.51666 101.983 3.41857 102.179 3.32049C102.522 3.12432 103.062 2.92815 103.16 3.5657C103.209 3.90899 103.503 3.81091 103.699 3.81091C105.661 3.81091 107.623 3.81091 109.584 3.81091C109.633 3.81091 109.731 3.81091 109.731 3.81091C110.222 3.36953 110.761 3.66378 111.301 3.61474C111.497 3.61474 111.987 3.81091 111.987 3.27145C111.987 3.12432 112.478 3.12432 112.625 3.22241C113.262 3.5657 113.851 3.46762 114.39 3.07528C114.439 3.02624 114.538 2.92815 114.734 3.07528C115.077 3.36953 115.518 3.32049 115.715 2.92815C115.764 2.83007 116.499 2.73199 116.548 2.83007C116.646 3.07528 116.99 3.07528 116.99 3.12432C117.627 4.20325 117.774 3.12432 117.872 2.92815C118.167 2.24157 118.804 2.48678 119.197 2.6339C119.589 2.78103 119.981 2.83007 120.226 2.68294C121.354 1.94731 122.678 2.09444 123.905 2.0454C126.504 1.84923 129.054 1.55498 131.653 1.40785C131.8 1.40785 132.045 1.35881 132.045 1.30977C132.242 0.279888 133.272 0.917433 133.86 0.672224C134.203 0.525098 134.596 0.427014 134.939 0.279888C135.969 -0.063406 137.146 -0.0143641 138.274 0.0346779C138.568 0.0346779 138.372 0.377972 138.47 0.525098C138.568 0.721265 138.862 0.32893 138.911 0.623182C139.009 0.966475 138.519 0.819349 138.47 0.966475C138.421 1.60402 137.587 1.84923 137.489 2.33965C137.391 2.83007 137.293 3.46762 137.734 3.85995C138.274 4.35037 138.176 4.98792 137.98 5.42929C137.832 5.77259 137.931 6.06684 137.882 6.36109C137.783 6.99864 138.274 7.63618 137.783 8.27373C137.685 8.42085 137.244 9.20553 138.225 9.20553C138.225 9.20553 138.323 9.45074 138.274 9.54882C138.078 10.0883 138.029 10.6768 137.931 11.2162C137.783 12.05 137.636 12.148 138.225 12.8837C138.323 13.0308 138.323 13.3251 138.274 13.3741C137.881 13.7174 138.127 14.3549 137.685 14.6492C137.685 14.6492 137.685 14.6982 137.636 14.6982C137.244 15.1396 138.274 15.2377 137.98 15.63C137.734 15.9733 137.685 16.3166 138.176 16.5618C138.274 16.6109 138.372 16.758 138.323 16.807C137.587 17.1503 138.372 17.935 137.783 18.2783C137.734 18.3273 137.734 18.4254 137.734 18.4745C138.568 18.6216 138.029 19.2591 138.274 19.6515C138.372 19.7986 138.372 20.0438 138.078 20.1419C137.882 20.24 137.832 20.4361 137.882 20.5833C138.029 21.3189 138.176 22.0545 138.029 22.8392C137.98 23.0844 138.274 23.4767 138.372 23.8691C138.666 24.8499 138.421 25.7327 138.274 26.6645C138.176 27.253 138.323 27.8415 138.47 28.43C138.519 28.7733 138.764 29.0675 138.176 29.2146C137.98 29.2637 138.078 29.5089 138.127 29.7051C138.372 30.9311 138.813 32.1572 138.519 33.3342C138.323 34.1679 138.862 35.1487 138.029 35.9334C137.931 36.0315 137.881 36.62 138.274 36.7671C138.617 36.8652 138.568 37.0614 138.617 37.2575C138.764 37.7479 138.666 38.1403 138.176 38.4345C137.931 38.5817 137.734 38.6797 138.176 38.7778C138.421 38.8269 138.421 38.974 138.421 39.1211C138.47 39.6115 137.931 40.102 138.568 40.5433C138.617 40.5924 138.666 40.9357 138.421 40.9357C137.636 40.9847 137.783 41.4261 137.832 41.8675C137.882 42.1617 137.882 42.456 137.587 42.7502C137.391 42.9954 137.391 43.4859 137.783 43.8782C138.225 44.2705 138.274 44.9571 138.029 45.4475C137.881 45.7418 137.783 45.987 137.783 46.2322C137.783 47.0169 137.391 47.8016 137.685 48.5862C137.734 48.7333 136.95 49.0276 136.754 48.9786C136.214 48.7333 135.527 48.9295 135.429 49.2238C135.282 49.7142 134.988 49.6651 134.645 49.6651C133.762 49.6651 132.879 49.6651 131.996 49.8123C131.065 49.9594 130.084 49.6161 129.103 49.6651C128.514 49.7142 127.926 49.6651 127.485 50.1065C127.436 50.1556 127.092 50.4498 126.847 50.0575C126.7 49.8123 125.131 49.8613 124.885 50.0575C124.199 50.5969 124.052 50.5479 122.973 50.2046C122.728 50.1556 121.943 49.9594 121.698 50.5479C121.6 50.7931 121.452 50.8912 121.158 50.8422C120.717 50.8422 120.275 50.8912 119.785 50.9893C119.491 51.0383 119.098 51.1364 118.804 50.695C118.51 50.2537 117.774 50.695 117.284 50.7931C116.695 50.8912 116.45 50.9402 116.45 50.3027C116.45 49.9594 116.107 49.9594 115.813 49.9594C112.87 49.9594 109.928 49.9594 106.985 49.9594C106.74 49.9594 106.397 49.8613 106.446 50.2537C106.495 50.7931 106.102 50.7441 105.71 50.695C101.836 50.4989 97.9613 50.5479 94.087 50.2537C93.7437 50.2537 93.2533 50.0084 93.0081 50.5969C92.91 50.7931 92.2234 50.8422 91.9292 50.5479C91.3897 50.0084 90.8993 50.1065 90.3108 50.4008C90.2127 50.4498 90.1637 50.4989 90.0165 50.4498C89.0357 49.9594 89.0357 49.9594 87.9077 50.4989C87.5644 50.646 87.025 50.7441 86.7307 50.3517C86.4855 50.0084 86.0932 50.0084 85.946 50.1556C85.2595 50.695 84.5238 50.2537 83.8372 50.4008C83.3468 50.4989 83.592 49.9594 83.2487 49.9104C82.8074 49.8613 82.5621 50.2046 82.1698 50.2046C80.6495 50.2537 79.0802 50.2537 77.5599 50.1556C77.2166 50.1556 76.7752 50.2046 76.4809 49.8123C76.2848 49.518 76.0886 50.0575 75.7944 50.0575C74.7645 50.0575 73.7346 50.1556 72.7538 50.0084C71.4787 49.8123 70.2036 49.8613 68.9775 49.9594C68.4381 50.0084 67.8005 50.2046 67.212 50.2046C66.8687 50.2046 66.5254 50.3027 66.3293 49.9104C66.2312 49.7142 65.8879 49.7142 65.8879 49.8613C65.9369 50.5969 65.2994 50.2046 65.1032 50.2046C64.1714 50.0575 63.1906 50.1065 62.2588 50.1065C62.0626 50.1065 61.8664 50.0575 61.7193 50.2537C61.5231 50.4989 61.376 50.5479 61.2779 50.2046C61.2779 50.1556 61.0327 50.1556 60.9837 50.1556C60.0028 50.7441 58.973 50.2537 57.9431 50.4008C57.796 50.4498 57.5998 50.4008 57.5507 50.2046C57.5017 49.8613 57.0603 49.9104 56.9622 49.9594C56.2266 50.4498 55.4419 50.1556 54.6573 50.2537C54.363 50.3027 53.9707 50.1556 53.8236 50.5479C53.8236 50.5969 53.6764 50.646 53.6274 50.646C52.4504 49.9594 51.2734 50.8912 50.0964 50.5969C49.9002 50.5479 49.8021 50.646 49.7531 50.8422C49.655 51.1855 49.4588 51.0383 49.3117 50.8912C48.9684 50.4498 48.9194 50.4498 48.7232 50.8422C48.5761 51.1855 48.4289 51.0383 48.1347 51.0383C46.6144 50.8912 45.045 50.7931 43.6228 51.0383C42.5929 51.2345 41.5631 51.3326 40.5332 51.2345C39.3071 51.0874 38.0811 50.9893 36.9531 51.1854C35.9723 51.3326 34.9914 51.4307 33.9616 51.4307C33.4711 51.4307 32.9317 51.5287 32.4413 51.3326C32.2941 51.2835 31.9999 51.2835 31.9018 51.3816C31.1662 52.1172 30.2344 51.6268 29.4007 51.7249C28.9102 51.774 28.4198 51.4307 27.9784 51.872C27.8804 51.9701 27.6842 51.9701 27.5861 51.823C27.3899 51.5287 27.1938 51.4797 26.9976 51.823C26.9486 51.872 26.7524 51.9211 26.7034 51.872C25.7716 51.4797 24.7907 52.0682 23.8589 51.872C22.9762 51.6759 22.1915 51.3326 21.2106 51.4797C19.1509 51.774 17.0911 52.0682 14.9823 52.0682C13.7563 52.9019 12.285 52.5586 10.9609 52.7548C9.5877 52.951 8.16549 52.9019 6.74327 53C6.35093 53 5.37009 52.4605 5.07584 52.1663C4.68351 51.774 4.04596 51.774 3.55554 51.6759C3.40842 51.3326 3.31033 51.1364 3.11416 50.8912Z" fill="white"/>
<path d="M59.2676 15.8754C59.2676 13.7666 60.2975 12.6387 62.2591 12.6387H67.2614C72.656 12.6387 75.5986 14.9927 75.5986 19.5045C75.5986 24.0164 72.7541 26.2233 67.4085 26.2233H65.1526V31.5198H59.2676V15.8754ZM65.0545 21.9566H67.2124C68.9779 21.9566 69.9097 21.0739 69.9097 19.5045C69.9097 17.9352 68.9288 17.0524 67.1143 17.0524H65.0545V21.9566Z" fill="#0072CE"/>
<path d="M77.217 15.2373C77.217 13.3738 78.0507 12.54 79.6691 12.54H80.5028C82.1703 12.54 83.053 13.4228 83.053 15.2373V26.468H88.7909C90.6055 26.468 91.4882 27.3017 91.4882 28.871V28.9691C91.4882 30.6365 90.6055 31.5193 88.7909 31.5193H77.168V15.2373H77.217Z" fill="#0072CE"/>
<path d="M104.975 27.6452H98.8444L97.3731 31.5685H91.5371L98.3049 14.1096C98.5992 13.1778 99.3838 12.4912 102.032 12.4912C104.68 12.4912 105.367 13.1778 105.661 14.1096L112.723 31.5685H106.593L104.975 27.6452ZM99.8742 23.4276H103.945L101.885 17.9349L99.8742 23.4276Z" fill="#0072CE"/>
<path d="M113.459 15.2373C113.459 13.4228 114.342 12.54 115.862 12.54H116.402C117.775 12.54 118.216 12.9324 119.05 13.9132L125.818 22.7408V12.6381H131.31V28.9691C131.31 30.7837 130.428 31.6664 128.956 31.6664H128.466C127.044 31.6664 126.651 31.3231 125.867 30.3913L118.952 21.4166V31.5193H113.459V15.2373Z" fill="#0072CE"/>
<path d="M59.709 37.7473C59.709 37.2569 60.0032 37.0117 60.4446 37.0117H60.6898C61.1312 37.0117 61.4255 37.2569 61.4255 37.7473V42.5535H59.709V37.7473Z" fill="#0072CE"/>
<path d="M62.7012 37.7964C62.7012 37.2569 62.9464 37.0117 63.3878 37.0117H63.5349C63.9272 37.0117 64.0743 37.1098 64.3196 37.4041L66.2812 39.9542V37.0117H67.8996V41.7688C67.8996 42.3083 67.6544 42.5535 67.213 42.5535H67.0659C66.6736 42.5535 66.5264 42.4554 66.3303 42.1611L64.3196 39.5619V42.5044H62.7012V37.7964Z" fill="#0072CE"/>
<path d="M68.7812 37.7972C68.7812 37.3067 69.0755 37.0615 69.5659 37.0615H73.0969C73.6364 37.0615 73.8816 37.3067 73.8816 37.7481V37.7972C73.8816 38.2876 73.6364 38.5328 73.0969 38.5328H72.2142V42.5542H70.4977V38.5328H69.5659C69.0755 38.5328 68.7812 38.2876 68.7812 37.7972Z" fill="#0072CE"/>
<path d="M74.8145 41.7205V37.9933C74.8145 37.3558 75.1087 37.0615 75.6972 37.0615H79.3753V38.5328H76.5309V39.0722H78.6397V40.4454H76.5309V41.132H79.3753V42.6033H75.6972C75.1577 42.5542 74.8145 42.309 74.8145 41.7205Z" fill="#0072CE"/>
<path d="M83.2973 41.9165L82.5127 40.8866H82.2184V42.6031H80.502V38.0421C80.502 37.4046 80.7962 37.1104 81.3847 37.1104H83.1012C84.6215 37.1104 85.4061 37.7479 85.4061 38.9249C85.4061 39.7096 85.0138 40.2981 84.2291 40.5433L85.4552 42.0636C85.5042 42.1126 85.21 42.6521 84.4744 42.6521C83.8859 42.603 83.6406 42.4069 83.2973 41.9165ZM82.1694 39.6605H82.905C83.3954 39.6605 83.6897 39.4153 83.6897 39.023C83.6897 38.5816 83.4445 38.3854 82.905 38.3854H82.2184V39.6605H82.1694Z" fill="#0072CE"/>
<path d="M86.4355 37.7964C86.4355 37.2569 86.6808 37.0117 87.1221 37.0117H87.2693C87.6616 37.0117 87.8087 37.1098 88.0539 37.4041L90.0156 39.9542V37.0117H91.634V41.7688C91.634 42.3083 91.3888 42.5535 90.9474 42.5535H90.8003C90.4079 42.5535 90.2608 42.4554 90.0646 42.1611L88.0539 39.5619V42.5044H86.4355V37.7964Z" fill="#0072CE"/>
<path d="M96.2437 41.4257H94.4782L94.0368 42.5537H92.3203L94.282 37.4533C94.3801 37.1591 94.5762 36.9629 95.3609 36.9629C96.1456 36.9629 96.3418 37.1591 96.4398 37.4533L98.4996 42.5537H96.7341L96.2437 41.4257ZM94.7724 40.1997H95.9494L95.3609 38.5813L94.7724 40.1997Z" fill="#0072CE"/>
<path d="M98.8457 37.7972C98.8457 37.3067 99.14 37.0615 99.6304 37.0615H103.161C103.701 37.0615 103.946 37.3067 103.946 37.7481V37.7972C103.946 38.2876 103.701 38.5328 103.161 38.5328H102.279V42.5542H100.562V38.5328H99.6304C99.0909 38.5328 98.8457 38.2876 98.8457 37.7972Z" fill="#0072CE"/>
<path d="M104.926 37.7473C104.926 37.2569 105.22 37.0117 105.661 37.0117H105.907C106.348 37.0117 106.642 37.2569 106.642 37.7473V42.5535H104.926V37.7473Z" fill="#0072CE"/>
<path d="M107.672 39.8075C107.672 38.1401 108.898 36.9141 110.565 36.9141C112.282 36.9141 113.459 38.0911 113.459 39.8075C113.459 41.475 112.233 42.701 110.565 42.701C108.898 42.701 107.672 41.524 107.672 39.8075ZM111.84 39.8075C111.84 39.0229 111.35 38.4344 110.614 38.4344C109.879 38.4344 109.388 38.9738 109.388 39.8075C109.388 40.6413 109.879 41.1807 110.614 41.1807C111.35 41.1807 111.84 40.6413 111.84 39.8075Z" fill="#0072CE"/>
<path d="M114.539 37.7964C114.539 37.2569 114.784 37.0117 115.226 37.0117H115.373C115.765 37.0117 115.912 37.1098 116.157 37.4041L118.119 39.9542V37.0117H119.738V41.7688C119.738 42.3083 119.492 42.5535 119.051 42.5535H118.904C118.511 42.5535 118.364 42.4554 118.168 42.1611L116.157 39.5619V42.5044H114.539V37.7964Z" fill="#0072CE"/>
<path d="M124.347 41.4257H122.582L122.14 42.5537H120.424L122.386 37.4533C122.484 37.1591 122.68 36.9629 123.464 36.9629C124.249 36.9629 124.445 37.1591 124.543 37.4533L126.603 42.5537H124.838L124.347 41.4257ZM122.876 40.1997H124.053L123.464 38.5813L122.876 40.1997Z" fill="#0072CE"/>
<path d="M127.238 37.7964C127.238 37.2569 127.483 37.0117 127.974 37.0117H128.219C128.71 37.0117 128.955 37.2569 128.955 37.7964V41.0822H130.622C131.162 41.0822 131.407 41.3274 131.407 41.7688V41.8178C131.407 42.3083 131.162 42.5535 130.622 42.5535H127.238V37.7964Z" fill="#0072CE"/>
<path d="M12.7742 14.6487C12.3819 14.8939 10.5674 16.8065 10.3712 17.1007C10.2731 17.2479 9.92982 17.8364 9.88077 17.8854C9.83173 17.9345 9.58652 18.2778 9.53748 18.3268C9.48844 18.3758 9.29227 18.9643 9.24323 19.0134C9.14514 19.1605 8.85089 19.4057 8.80185 19.5038C8.80185 19.5528 8.94898 19.8961 8.5076 20.2885C8.21335 20.5337 8.01718 21.5145 7.96814 21.5636C7.91909 21.7597 7.52676 22.2011 7.5758 22.5934C7.62484 22.7896 7.47772 22.9367 7.37963 23.0839C7.33059 23.231 7.33059 23.7214 7.03634 23.8195C6.79113 23.9176 6.88921 24.3099 6.93826 24.457C7.13442 24.8003 6.9873 25.1436 6.9873 25.1927C6.9873 25.2417 6.88921 25.536 7.03634 25.7321C7.23251 26.0264 7.03634 26.5168 6.9873 26.6639C6.93826 27.5467 7.52676 27.7919 7.37963 28.3314C7.28155 28.6747 7.47772 28.9199 7.42868 29.2632C7.37963 29.5084 7.5758 29.6555 7.62484 29.7536C7.67389 29.8026 7.82101 30.244 7.82101 30.3421C7.72293 30.8325 8.45856 31.5191 8.40952 32.2057C8.36047 32.7942 9.0961 33.0884 9.14514 33.1375C9.48844 33.5788 9.48844 34.0693 9.88077 34.3145C9.92982 34.3635 10.3222 34.6578 10.3712 34.6578C10.6164 34.8049 10.3712 34.952 10.4202 35.0011C10.7145 35.6386 11.352 36.08 11.352 36.08C12.8723 37.8455 16.5014 40.1014 16.8938 40.1505C17.2371 40.1995 17.5804 40.2486 17.8256 40.4938C18.1198 40.739 19.3949 41.2294 19.444 41.2294C19.6401 41.3275 19.8363 41.2784 20.0325 41.3765C20.2286 41.4256 21.3566 41.8669 21.5037 41.916C21.7489 42.0141 21.9941 42.1612 22.8279 42.3574C23.1711 42.4554 23.5635 42.6516 23.9558 42.7497C24.3972 42.8478 24.7405 42.4554 25.0838 42.7007C25.4761 42.9459 26.0156 43.093 26.2608 43.142C28.0753 43.5344 30.6746 43.6325 32.4891 43.5344C32.4891 43.5344 33.0776 43.6815 33.7152 43.5344C34.3527 43.4853 35.0883 43.2892 35.7259 43.2401C36.6577 42.9949 37.7366 42.7497 38.6194 42.3083C38.9136 42.2593 39.2569 41.916 39.4531 41.8669C39.8945 41.7198 40.483 41.1804 40.532 41.1313C40.581 41.0823 41.1695 40.739 41.1695 40.739C41.1695 40.739 41.3657 40.6409 41.5619 40.4938C41.709 40.3957 43.1803 39.2187 43.1803 39.2187C43.2784 38.9735 43.5726 38.8754 43.8178 38.7283C43.8178 38.6792 43.8669 38.6792 43.9159 38.6302C44.014 38.5321 44.1121 38.483 44.2101 38.434C44.2592 38.385 44.3082 38.385 44.3573 38.3359L44.4063 38.2869C44.4063 38.2378 44.4063 38.2378 44.4554 38.1888C44.4554 38.1888 44.4554 38.1398 44.5044 38.1398C44.5534 38.1398 44.5534 38.1888 44.5534 38.1398L44.6025 38.0907C44.6025 38.0417 44.6515 38.0417 44.6515 38.0417C44.7006 37.9926 44.7006 37.9436 44.6515 37.9436C44.6025 37.9436 44.6025 37.8945 44.5534 37.8455C44.5534 37.7965 44.6025 37.7474 44.6515 37.6984C44.7006 37.6493 44.7496 37.6984 44.7987 37.6984C44.8477 37.7474 44.8477 37.7965 44.8967 37.7965C44.9458 37.7965 44.9948 37.7474 44.9948 37.6984C44.9948 37.6493 44.9948 37.6493 45.0439 37.6003C45.0929 37.5513 44.9948 37.5512 44.9458 37.5512C44.8967 37.5512 44.9458 37.5022 44.9948 37.5022C44.9948 37.4532 44.9458 37.4041 44.8967 37.4041C44.8477 37.4041 44.7987 37.4532 44.7496 37.4532L44.7006 37.5022H44.6515V37.5512C44.6515 37.6003 44.6025 37.5512 44.6025 37.5512C44.5534 37.5512 44.5534 37.5512 44.5044 37.5512C44.4554 37.5512 44.4063 37.5512 44.4063 37.5512C44.3573 37.5512 44.3573 37.6003 44.3573 37.6003C44.3082 37.6003 44.3082 37.6493 44.2592 37.6493C44.1611 37.6493 44.063 37.6984 43.9649 37.7474C43.9159 37.7965 43.8178 37.8455 43.7688 37.8455C43.7197 37.8455 43.7197 37.8455 43.6707 37.8455C43.6216 37.8455 43.6216 37.8455 43.6216 37.8455L43.5726 37.8945L43.5236 37.9436C43.5236 37.9926 43.5236 37.9926 43.4745 38.0417C43.4255 38.0907 43.4255 38.0907 43.3764 38.0907C43.2784 38.1398 43.1312 38.0907 43.0331 37.9926C42.9351 37.8945 42.886 37.7474 42.886 37.6003C42.886 37.5513 42.886 37.5022 42.7879 37.5022C42.7389 37.5022 42.7389 37.5513 42.6898 37.6003C42.5918 37.7474 42.4446 37.8455 42.2485 37.8945C42.1504 37.8945 42.0523 37.9436 42.0033 37.9436C41.9542 37.9436 41.8561 37.8945 41.8071 37.9436C41.7581 37.9436 41.7581 37.9926 41.7581 38.0417C41.7581 38.0907 41.709 38.0907 41.709 38.1398C41.66 38.1888 41.6109 38.2378 41.5619 38.1888C41.5128 38.1888 41.4148 38.1398 41.5128 38.0417C41.5619 37.9926 41.66 37.9926 41.6109 37.8945C41.6109 37.8455 41.5619 37.8945 41.5128 37.8945C41.4638 37.9436 41.4148 37.9436 41.3657 37.9436C41.2676 37.9436 41.1695 37.8945 41.1695 37.7965V37.7474L41.2186 37.6984L41.2676 37.6493C41.2676 37.6003 41.2676 37.6003 41.2676 37.5512C41.2676 37.5022 41.3657 37.4532 41.3657 37.4532C41.4148 37.4041 41.4148 37.3551 41.5128 37.306C41.5619 37.306 41.709 37.306 41.709 37.257C41.7581 37.1589 41.709 37.1099 41.7581 37.0118C41.8071 36.9137 41.9052 36.9137 41.8071 36.8156C41.709 36.7175 41.6109 36.8156 41.5128 36.8647C41.4638 36.9137 41.4148 36.9627 41.3657 36.9627C41.2676 36.9627 41.3167 36.9137 41.3657 36.8647C41.4148 36.8156 41.4638 36.7666 41.5128 36.7175C41.5619 36.6685 41.5619 36.5704 41.709 36.5704C41.7581 36.5704 41.8071 36.5704 41.8561 36.5214C41.9052 36.4233 41.8561 36.3742 41.7581 36.3742C41.66 36.3742 41.5619 36.4233 41.4638 36.4723C41.3657 36.5214 41.3167 36.5704 41.2676 36.6195C41.2186 36.6685 41.1696 36.7175 41.0715 36.6685H41.0224C40.9734 36.6685 40.9243 36.7175 40.8753 36.7666C40.7772 36.8156 40.6791 36.8647 40.6301 36.7175C40.6301 36.6685 40.7282 36.6195 40.7282 36.6195C40.7282 36.6195 40.9734 36.5704 41.0224 36.5704C41.0715 36.5704 41.2186 36.5214 41.2676 36.4723C41.2676 36.4723 41.2676 36.4233 41.3167 36.4233C41.4148 36.3252 41.2676 36.129 41.1695 36.2271C41.0715 36.2762 41.0224 36.3742 40.9243 36.4723C40.8753 36.5214 40.7772 36.5704 40.7282 36.5704C40.6791 36.5704 40.532 36.5214 40.581 36.4233C40.581 36.3742 40.6791 36.3742 40.7282 36.3252C40.7772 36.2762 40.8263 36.2271 40.8753 36.1781C40.9734 36.129 41.0715 36.08 41.1695 36.0309C41.2186 36.0309 41.3657 36.031 41.3657 35.9329C41.3657 35.8838 41.3167 35.8838 41.2676 35.8838C41.2186 35.8838 41.1695 35.8838 41.1205 35.8838C41.0224 35.8838 40.9734 35.8838 40.8753 35.8348C40.8263 35.7857 40.8753 35.6877 40.7772 35.6877C40.6301 35.6877 40.7282 35.7367 40.6791 35.8348C40.6301 35.8838 40.4339 35.9329 40.3849 35.8838C40.3358 35.7857 40.483 35.6877 40.532 35.6877C40.581 35.6386 40.6791 35.6386 40.7772 35.6386C40.8263 35.6386 40.8263 35.6386 40.8753 35.6386C40.9243 35.6386 40.9243 35.5405 40.9734 35.5405C41.0224 35.5405 41.0224 35.4424 40.9734 35.4424C40.9243 35.4424 40.8753 35.4424 40.8753 35.4424C40.8263 35.4424 40.7772 35.4424 40.7772 35.4424C40.6791 35.4915 40.6791 35.5405 40.6301 35.5896C40.581 35.6386 40.483 35.6877 40.4339 35.6877C40.3358 35.6877 40.3358 35.5896 40.2378 35.5896C40.1397 35.5405 40.1397 35.6877 40.1397 35.7367C40.0906 35.8348 40.0416 35.8348 39.9435 35.8348C39.8945 35.8838 39.8454 35.9329 39.7964 35.9819C39.6492 36.129 39.4531 36.08 39.306 36.129C39.1588 36.1781 39.2079 36.1781 39.1588 36.2271C39.0117 36.3252 38.8646 36.1781 38.7175 36.2271L38.6194 36.2762C38.5703 36.2762 38.5703 36.2271 38.5213 36.2271C38.3251 36.2271 38.227 36.1781 38.178 36.1781C38.1289 36.1781 38.0799 36.2271 38.0309 36.2762C37.9818 36.3742 37.7857 36.4233 37.7366 36.4233C37.6876 36.4233 37.6385 36.3742 37.5895 36.3252C37.5404 36.2762 37.4914 36.2762 37.4424 36.3252C37.3933 36.3742 37.3933 36.4723 37.3443 36.4723C37.2952 36.4723 37.2462 36.4723 37.2462 36.4233C37.2462 36.3742 37.2952 36.3742 37.2952 36.3252C37.2952 36.2762 37.2952 36.2762 37.2462 36.2762L37.1481 36.3252C37.0991 36.3252 37.001 36.3252 36.9029 36.3252C36.8539 36.3252 36.8539 36.3252 36.8048 36.2762C36.7558 36.2762 36.7558 36.2271 36.7067 36.2271C36.6577 36.2271 36.6577 36.2762 36.6086 36.3252C36.5596 36.3252 36.5106 36.3252 36.4615 36.3252C36.4125 36.3252 36.3634 36.2762 36.3144 36.3252L36.2163 36.4233C36.1673 36.4233 36.0692 36.4233 35.9711 36.4233C35.9221 36.4233 35.5297 36.4233 35.3826 36.4723C35.0883 36.5214 34.8431 36.6195 34.5489 36.6685C34.2546 36.7175 33.0286 36.7666 32.8324 36.7666C32.6362 36.7666 31.8516 36.7175 31.8025 36.8156C31.8025 36.8156 31.6064 36.8156 31.5573 36.8156C31.5083 36.8156 31.5083 36.7175 31.4102 36.7175C31.2631 36.6685 31.3612 36.8156 31.165 36.6685C31.0179 36.5704 30.8707 36.6195 30.6255 36.6195C30.2822 36.6195 29.6447 36.5214 29.5466 36.5214C29.3014 36.4723 29.1052 36.3742 28.9581 36.2271C28.86 36.08 28.6638 36.08 28.6638 35.8838C28.6148 35.4424 28.7619 34.8049 28.811 34.6087C28.86 34.4126 28.9091 33.726 28.9581 33.6769C29.0071 33.6279 28.9581 33.6279 29.0071 33.5788C29.2523 33.3336 29.1543 33.3336 29.2033 33.0884C29.3014 32.6961 29.4485 32.0586 29.8899 31.9605C30.1351 31.9114 30.3803 31.7643 30.5274 31.7153C30.7236 31.6662 31.0669 31.7153 31.3612 31.5681C31.4102 31.5191 31.4592 31.5191 31.5573 31.47C31.8516 31.421 32.0968 31.5191 32.391 31.47C32.6853 31.421 32.9795 31.421 33.0286 31.421C33.1267 31.421 33.0286 31.3229 33.0776 31.3229C33.2247 31.2739 33.2247 31.421 33.3719 31.47C33.47 31.5191 33.9604 31.5191 34.0585 31.5191C34.1075 31.5191 34.0585 31.47 34.1075 31.421C34.2056 31.3229 34.2546 31.5191 34.3037 31.5191C34.4018 31.6172 36.4615 31.8624 36.6086 31.8624C36.8539 31.9114 37.1971 31.9114 37.4424 31.7643C37.5895 31.7153 37.9818 31.5191 38.0799 31.421C38.1289 31.372 38.0799 31.3229 38.0799 31.2739C38.178 31.1758 38.227 31.0287 38.227 30.8325C38.227 30.7835 38.227 30.6854 38.2761 30.6363C38.3251 30.5382 38.2761 30.4892 38.2761 30.3911C38.2761 30.293 38.2761 30.195 38.3742 30.1459C38.4722 30.0478 38.4722 29.9007 38.4232 29.8026C38.3251 29.6555 38.178 29.5574 38.178 29.5574C38.0799 29.5084 38.178 29.5574 38.178 29.4593C38.178 29.4103 38.0309 29.4103 38.0309 29.4103C38.0309 29.4103 37.7366 29.4103 37.6385 29.3612C37.3443 29.2632 37.0991 29.2141 36.8048 29.2141C36.3634 29.2141 35.9221 29.0179 35.4316 29.067C35.3336 29.067 35.1864 29.116 35.1374 29.116C35.0393 29.116 35.1374 28.9689 34.8431 28.9689C34.5979 28.9689 34.3037 28.9199 34.1075 28.8708C33.9113 28.8218 33.2247 28.8708 33.1757 28.8218C33.1267 28.8218 33.0776 28.8218 33.0286 28.7727C32.9305 28.7237 32.8815 28.6256 32.6853 28.5766C32.6362 28.5766 32.5872 28.5275 32.5872 28.5275C32.4891 28.5275 32.391 28.5766 32.342 28.5275C32.2439 28.4785 32.0477 28.4294 32.0477 28.2823C31.9987 28.0371 32.4401 27.7429 32.6362 27.6448C32.7834 27.5467 32.9305 27.3505 33.1267 27.3996C33.2247 27.3996 33.2738 27.3015 33.3719 27.2524C33.519 27.0563 34.1565 26.2226 34.3527 26.0754C34.5489 25.9283 34.4018 25.6831 34.696 25.4869C34.7941 25.4379 34.8922 25.1436 34.9412 25.0946C35.0883 24.8494 35.0393 24.457 35.2845 24.2609C35.2845 24.2609 35.3336 24.1628 35.3826 24.0647C35.4316 23.9666 35.3336 23.9176 35.3336 23.8685C35.2845 23.8195 35.3336 23.7214 35.3336 23.6233C35.3336 23.5743 35.3336 23.0348 35.3336 22.8877C35.3336 22.7406 35.3826 22.6425 35.5788 22.6425C35.6768 22.6425 35.5788 22.3973 35.5788 22.2992C35.5297 22.103 35.3336 21.7597 34.9903 21.7597C34.5979 21.7107 34.3037 22.0049 34.0585 22.2992C33.9113 22.4954 33.4209 23.1329 33.3719 23.182C33.2247 23.28 33.3719 23.3291 33.2248 23.5252C33.1757 23.5743 33.0776 23.5743 33.0286 23.6233C32.9795 23.7214 32.8815 23.9176 32.8815 23.9666C32.8815 24.0157 32.9305 24.1138 32.8324 24.1628C32.6362 24.3099 32.6362 24.1138 32.5382 24.1628C32.4891 24.2118 32.4401 24.2609 32.391 24.3099C32.1949 24.457 32.1458 24.5551 31.9497 24.6042C31.8516 24.6042 31.6064 24.6532 31.5083 24.8003C31.4592 24.8984 31.214 24.8984 31.214 24.7513C31.214 24.6532 31.3121 24.2118 31.3612 24.1628C31.4102 23.9666 31.0669 23.8195 31.2631 23.6233C31.3612 23.5252 31.3612 23.3781 31.2631 23.28C31.214 23.231 31.165 22.9858 31.165 22.9367C31.0669 22.7896 31.214 22.7896 31.0669 22.5934C31.0179 22.4954 30.9198 22.6425 30.8707 22.3973C30.8707 22.2502 30.7236 22.2011 30.6255 22.103C30.5274 22.0049 30.3803 21.9069 30.2822 21.8088C29.9389 21.5636 29.5956 21.4164 29.2033 21.3184C28.811 21.2203 28.4186 21.2203 28.0263 21.2693C27.9282 21.2693 27.7811 21.2693 27.7811 21.1712C27.7811 21.1222 27.732 21.1222 27.732 21.1222C27.634 21.0731 27.4868 21.1222 27.3888 21.1712C27.1435 21.2693 27.3888 21.3674 27.2416 21.4164C27.0455 21.4655 26.6041 21.6126 26.457 21.6617C26.4079 21.6617 26.3098 21.7107 26.1627 21.7107C26.0156 21.7107 26.0156 21.8088 25.8685 21.9069C25.5742 22.054 25.6232 22.7896 25.6232 22.9858C25.6232 23.0348 25.6232 23.0839 25.7213 23.0839C25.7704 23.0839 25.8685 23.1329 25.8685 23.3291C25.8685 23.4762 25.8685 23.5743 25.8194 23.7705C25.7704 23.9666 25.8685 23.8685 25.8685 24.0157C25.8685 24.1628 26.0646 24.6532 26.0156 24.7513C26.0156 24.8003 26.0646 24.8494 26.0646 24.8984C26.0646 24.9475 26.1137 24.9475 26.1137 24.9475C26.2117 24.9475 26.2117 25.1436 26.2608 25.2908C26.3098 25.3888 26.3589 25.585 26.457 25.6341C26.506 25.6831 26.506 25.7321 26.555 25.7812C26.6041 25.8302 26.6531 25.8793 26.6041 25.9283C26.555 25.9773 26.4079 26.1245 26.3589 26.0754C26.2608 26.0264 26.0156 26.0264 25.9175 25.9773C25.7213 25.9283 25.5252 26.0264 25.4761 25.9773C25.4271 25.9283 25.329 25.9283 25.2309 25.8793C25.1328 25.8302 25.1328 25.9283 25.0838 25.9283C24.9857 25.8793 24.9857 25.8302 24.9367 25.7812C24.7895 25.6341 24.6424 25.6341 24.4462 25.585C24.201 25.4869 24.0049 25.4379 23.8087 25.2908C23.6125 25.1436 22.8769 24.8984 22.8769 24.8003C22.8279 24.7023 22.6317 24.7513 22.5826 24.7023C22.5826 24.6042 22.3374 24.6042 22.3374 24.5551C22.3374 24.457 22.1903 24.5061 22.1413 24.457C22.0922 24.408 21.9941 24.359 21.8961 24.408C21.847 24.457 21.7489 24.457 21.6999 24.408C21.6508 24.359 21.6508 24.359 21.5528 24.3099C21.4056 24.2609 21.3076 24.3099 21.2095 24.408C21.0623 24.5061 20.9643 24.6042 20.8662 24.7513C20.8171 24.8494 20.7681 24.8984 20.719 24.9965C20.67 25.0946 20.621 25.1436 20.5719 25.1927C20.5229 25.2908 20.5229 25.3888 20.67 25.4379C20.7681 25.4869 20.67 25.585 20.7681 25.6341C20.9152 25.6831 20.9643 25.9773 21.1114 26.1245C21.3076 26.3206 21.4056 26.6149 21.4547 26.762C21.5528 26.9582 21.847 26.8111 21.9451 27.0072C21.9941 27.1053 22.1413 27.2524 22.4846 27.5467C22.6317 27.6448 23.1221 27.939 23.3183 27.939C23.8577 27.9881 24.1029 28.2333 24.2991 28.3804C24.3972 28.4294 24.5934 28.3804 24.8386 28.8218C24.9367 28.9689 24.9857 29.5574 25.0347 29.8517C25.1328 30.4892 25.378 30.3911 25.2799 30.5873C25.1328 30.8815 25.378 31.1758 25.378 31.9114C25.378 32.0585 25.28 32.3528 25.1819 32.549C25.0347 32.9413 25.28 33.4808 25.2309 33.6279C25.1328 33.8731 25.0838 34.7559 24.8876 34.952C24.7895 35.0501 24.6424 35.0011 24.5443 34.952C24.0049 35.2463 23.4164 35.3934 23.2692 35.2463C23.024 35.0011 22.6807 35.0501 22.5336 35.0011C22.3865 35.0011 22.1413 34.8539 22.0432 34.8049C21.798 34.6578 20.719 34.3145 20.3267 34.0693C19.3459 33.5788 18.0217 32.9903 17.9237 32.4509C17.8746 32.2547 16.4034 31.2739 16.2072 30.9796C16.0601 30.7835 15.8149 30.5382 15.7658 30.4402C15.7168 30.3421 15.6677 30.0478 15.6187 29.9497C15.4225 29.7045 15.1773 29.6555 15.0792 29.1651C15.0302 28.9689 14.9321 29.067 14.6869 28.5766C14.1474 27.2524 14.2455 25.6831 14.2455 25.1436C14.2455 24.6532 14.6869 23.5743 14.834 23.182C14.9321 22.9367 15.1773 22.7896 15.2754 22.3973C15.2754 22.2502 15.9129 21.8578 16.1581 21.4655C16.3543 21.1712 16.7957 20.7789 17.0899 20.5827C17.2861 20.4846 19.542 18.7682 19.7382 18.572C19.8363 18.4739 20.0325 18.1306 20.5229 18.1306C20.621 18.1306 20.9152 17.9835 20.9152 17.8854C20.9643 17.6402 23.3183 17.0517 23.6616 16.6594C23.7596 16.5122 24.4953 16.3161 24.8386 16.267C24.9367 16.267 24.9367 16.3651 25.1328 16.169C25.329 16.0218 25.6723 16.267 25.9175 16.0709C26.2117 15.7766 26.2608 15.7276 26.8003 15.7276C27.3397 15.7276 27.2907 15.4333 27.683 15.4333C27.9282 15.4333 28.3206 15.2862 28.4186 15.041C28.5167 14.8448 29.5466 14.7958 29.7428 14.6487C30.2332 14.2563 30.5765 14.6977 31.214 14.5506C31.3121 14.5506 31.5573 14.5996 31.7044 14.5996C31.8516 14.5996 32.0968 14.4034 32.1458 14.5506C32.1949 14.6487 33.1267 14.5996 33.3719 14.5996C33.4209 14.5996 33.568 14.5015 33.568 14.5506C33.519 14.6487 34.1565 14.5996 34.2546 14.6977C34.4018 14.8448 34.647 14.9429 34.9903 14.8939C35.1864 14.8448 35.873 14.9429 36.1182 15.041C36.3144 15.09 35.9711 15.1881 36.6577 15.2372C37.0991 15.2372 38.5213 16.1199 38.8155 16.169C39.1588 16.169 39.2569 16.5613 39.6493 16.7084C40.3358 16.9536 41.1205 17.5421 42.7879 18.8172C42.886 18.8663 42.9351 19.1605 43.0331 19.1605C43.4745 19.1605 43.8669 19.9452 44.063 20.1904C44.1121 20.2394 44.4063 20.0923 44.3573 20.5827C44.3573 20.6808 44.5534 20.5337 44.6025 20.877C44.6025 21.2693 45.2891 21.4655 45.4852 22.2992C45.4852 22.3973 45.5833 22.4463 45.6324 22.5444C45.7795 22.8387 46.2209 24.2609 46.2209 24.7513C46.2209 24.8984 46.319 25.8302 46.1718 26.5168C46.0247 27.1053 45.8285 27.6938 45.5833 28.2823C45.4362 28.6256 45.0929 29.116 45.0929 29.2632C45.0929 29.4103 44.9948 29.5084 44.9948 29.6555C44.9948 29.7536 44.9948 29.8517 44.9458 29.9007C44.8477 29.9497 44.7006 29.9988 44.6515 30.1459C44.6515 30.244 44.4554 30.244 44.4554 30.3421C44.4554 30.4892 44.2101 30.4402 44.2101 30.5873C44.2101 30.6854 44.014 30.7344 44.063 30.8815C44.063 30.9306 43.9649 30.9306 43.9159 30.9796C43.8178 31.0287 43.6216 31.3229 43.6216 31.372C43.6216 31.421 43.5236 31.372 43.4745 31.5681C43.4745 31.6662 43.3274 31.7153 43.2784 31.8133C43.2293 31.9114 43.1312 31.9114 43.1312 31.9605C43.0822 32.0095 43.0822 32.1076 43.0822 32.2057C43.0822 32.3038 42.9351 32.549 43.1312 32.549C43.1803 32.549 43.2293 32.4509 43.2784 32.4018C43.3274 32.3528 43.4255 32.2547 43.5236 32.2547C43.6217 32.2057 43.7688 32.1566 43.8669 32.0585C43.9159 32.0095 43.9649 31.8624 44.063 31.8624C44.1121 31.8624 44.1121 31.8624 44.1611 31.8624C44.2102 31.8624 44.2101 31.8133 44.2101 31.8133C44.2592 31.7643 44.3082 31.6662 44.3573 31.6172C44.4063 31.5681 44.4554 31.6172 44.5044 31.5681C44.5044 31.5191 44.5044 31.5191 44.5534 31.47C44.6025 31.47 44.6515 31.47 44.6515 31.421C44.7006 31.421 44.7006 31.372 44.7496 31.3229C44.7987 31.2739 44.8967 31.2248 44.9458 31.2739C45.0439 31.3229 44.7006 31.6172 44.7006 31.6662C44.6025 31.7643 44.6025 31.8624 44.5044 31.9605C44.4554 32.0095 44.3573 32.1076 44.3082 32.1566C44.2592 32.1566 44.2592 32.2057 44.2101 32.2057C44.2101 32.2547 44.1611 32.2547 44.1611 32.3038C44.1121 32.3528 44.063 32.4018 44.014 32.4509C43.9649 32.4999 43.9649 32.549 43.9159 32.598C43.8669 32.6471 43.8178 32.6961 43.8669 32.8432C43.8669 32.8923 43.9159 32.9413 43.9649 32.8923C44.014 32.8432 44.063 32.7942 44.063 32.7451C44.1121 32.6961 44.1121 32.6471 44.1611 32.598C44.2102 32.549 44.2592 32.549 44.3082 32.4999C44.3573 32.4999 44.3573 32.4509 44.4063 32.4018C44.4554 32.3038 44.5534 32.2057 44.6515 32.1076C44.7006 32.0585 44.7496 32.0095 44.7987 31.9605C44.8477 31.9605 44.8967 31.9605 44.8967 31.9114C44.8967 31.8624 44.8967 31.8133 44.9458 31.8133C44.9948 31.8133 44.9948 31.8624 44.9948 31.9114C44.9948 31.9605 44.9948 31.9605 45.0439 31.9605C45.0929 31.9605 45.1419 31.9114 45.1419 31.8624C45.1419 31.8133 45.191 31.7643 45.24 31.7153C45.2891 31.6662 45.3381 31.6662 45.3872 31.6172C45.4362 31.5681 45.5343 31.47 45.5833 31.421C45.6324 31.372 45.6814 31.3229 45.7305 31.2739C45.7795 31.2248 45.7795 31.1758 45.8776 31.1268C45.9266 31.1268 45.9266 31.1268 45.9757 31.1268C46.0247 31.1268 46.0247 31.1268 46.0247 31.0777L46.0737 31.0287C46.1228 31.0287 46.1228 31.1268 46.1228 31.1758C46.1228 31.1758 46.1228 31.2248 46.1228 31.2739C46.1228 31.2739 46.1718 31.2739 46.2209 31.2739C46.2699 31.2739 46.319 31.2739 46.2699 31.3229C46.2699 31.372 46.2209 31.372 46.2209 31.421C46.1718 31.47 46.0737 31.5681 46.0247 31.6172C45.9757 31.6662 45.9757 31.6662 45.9266 31.7153C45.8285 31.8133 45.7795 31.9114 45.6814 32.0095C45.6324 32.1076 45.5343 32.1566 45.4852 32.2547C45.4362 32.3038 45.3872 32.3528 45.3381 32.4018C45.2891 32.4509 45.24 32.4999 45.24 32.549C45.191 32.6471 45.1419 32.6961 45.0439 32.7451C44.9948 32.7942 44.9948 32.8432 44.9948 32.8923C44.9948 32.9413 44.9458 32.9903 44.8967 32.9903C44.7987 33.0884 44.7496 33.1865 44.7006 33.2846C44.7006 33.3336 44.7006 33.4317 44.7496 33.3827C44.7987 33.3336 44.7987 33.2846 44.8477 33.2846C44.8967 33.2356 44.9458 33.2356 44.9948 33.2356C45.0439 33.2356 45.1419 33.1865 45.1419 33.0884C45.1419 33.0394 45.1419 32.9413 45.191 32.9413C45.24 32.8923 45.2891 32.9413 45.3381 32.8923C45.3872 32.8923 45.4362 32.8432 45.4852 32.8432C45.5343 32.8432 45.5833 32.8432 45.6324 32.7942C45.6324 32.7942 45.6324 32.7942 45.6324 32.7451V32.6961C45.6324 32.6471 45.5833 32.6471 45.6324 32.6471L45.6814 32.598C45.6814 32.549 45.6814 32.549 45.6324 32.4999C45.5833 32.4509 45.5343 32.4509 45.5343 32.4018C45.5343 32.3528 45.5343 32.3528 45.5833 32.3038C45.5833 32.3038 45.6324 32.2547 45.6324 32.2057V32.1566C45.6324 32.1566 45.6324 32.1076 45.6814 32.1076L45.7305 32.0585C45.7795 32.0585 45.8285 32.1076 45.8776 32.1076C45.9266 32.1076 45.9757 32.1076 46.0247 32.1076C46.0737 32.1076 46.1228 32.1076 46.1718 32.1076C46.2209 32.1076 46.2699 32.1076 46.2699 32.0585V32.0095C46.2699 31.9605 46.2209 31.9605 46.2209 31.9114C46.2209 31.8624 46.2209 31.8133 46.2699 31.8133C46.319 31.7643 46.319 31.7643 46.368 31.7643C46.4661 31.7643 46.5642 31.9114 46.6622 31.8624C46.7113 31.8624 46.7113 31.8133 46.7113 31.7643L46.6622 31.7153C46.6622 31.7153 46.6622 31.6662 46.6132 31.6662C46.5642 31.6172 46.6132 31.5191 46.6622 31.47C46.7113 31.421 46.7603 31.372 46.8094 31.3229C46.8584 31.3229 46.8584 31.2739 46.9075 31.2739C46.9565 31.2739 46.9565 31.3229 46.9565 31.372C46.9565 31.421 46.9565 31.47 46.9075 31.47C46.8584 31.5191 46.8094 31.6172 46.8584 31.6662C46.9075 31.7153 46.9565 31.7153 47.0546 31.7153C47.1036 31.7153 47.1036 31.7153 47.1527 31.7153C47.1527 31.7153 47.2017 31.7153 47.2508 31.7153C47.2998 31.7153 47.2998 31.8133 47.2998 31.8133C47.2998 31.8624 47.2508 31.9114 47.2017 31.9605C47.1527 32.0095 47.1036 32.0585 47.0546 32.1076C47.0055 32.1076 46.9565 32.1566 46.9565 32.1566C46.9075 32.1566 46.8584 32.2057 46.8094 32.2547C46.8094 32.3038 46.8094 32.3528 46.8584 32.3528C46.9075 32.3528 47.0055 32.4018 47.0055 32.4999C47.0055 32.6471 46.9075 32.6961 46.8094 32.7451C46.7603 32.7451 46.7113 32.7942 46.6622 32.8432L46.6132 32.8923L46.5642 32.9903C46.5151 32.9903 46.4661 32.9413 46.4661 32.9413H46.417C46.417 32.9413 46.417 32.9413 46.368 32.9903C46.368 32.9903 46.319 32.9903 46.319 33.0394V33.0884C46.319 33.1375 46.319 33.1865 46.319 33.2356C46.319 33.2356 46.2699 33.2846 46.2699 33.3336C46.2699 33.3827 46.368 33.3336 46.368 33.3336C46.417 33.3336 46.417 33.2846 46.417 33.2356C46.4661 33.1865 46.5151 33.2846 46.5151 33.3336C46.5151 33.3827 46.4661 33.3827 46.4661 33.4317C46.4661 33.4808 46.4661 33.4808 46.5151 33.5298C46.5642 33.5298 46.7113 33.4808 46.7113 33.4317C46.7113 33.3827 46.6623 33.3336 46.7113 33.2846C46.7603 33.2846 46.7603 33.2846 46.8094 33.3336C46.8094 33.3336 46.8584 33.3827 46.9075 33.3827C46.9565 33.3827 46.9565 33.3336 47.0055 33.2846C47.0546 33.2356 47.1036 33.1865 47.1527 33.1865C47.2508 33.1375 47.3488 33.1375 47.3979 33.0394C47.4469 32.9413 47.496 32.8432 47.545 32.7451C47.545 32.6961 47.594 32.6471 47.594 32.598C47.6921 32.4999 47.7902 32.549 47.8883 32.4509C47.9373 32.4018 47.9373 32.4018 47.9373 32.3528C47.9373 32.3038 47.9864 32.3038 47.9864 32.2547C48.0354 32.2057 47.9864 32.1566 47.9864 32.1566C47.9864 32.1076 48.0354 32.0585 48.0354 32.0585C48.0845 32.0095 48.1335 32.0095 48.1335 32.0585C48.1825 32.1076 48.2806 32.0585 48.3297 32.0585C48.3787 32.1076 48.3297 32.2057 48.2806 32.2547C48.1335 32.3528 48.1825 32.549 48.0354 32.6961C47.9864 32.7451 47.8883 32.7451 47.8393 32.7942C47.7902 32.8432 47.7902 32.9903 47.7412 33.0394C47.6921 33.0884 47.6431 32.9903 47.6431 33.0394C47.6431 33.0394 47.594 33.0884 47.594 33.1375V33.1865C47.594 33.2356 47.496 33.2846 47.545 33.3336C47.545 33.3336 47.594 33.3336 47.6431 33.3336C47.6921 33.3336 47.6921 33.3336 47.7412 33.2846L47.7902 33.2356L47.8393 33.2846C47.8393 33.2846 47.8883 33.3336 47.8883 33.2846V33.2356L47.9373 33.1865C47.9373 33.1865 47.9373 33.1865 47.9864 33.2356C47.9864 33.2846 48.0845 33.2356 48.0845 33.2356L48.1335 33.1865C48.1825 33.1375 48.2316 33.0884 48.2316 33.0394C48.2806 32.9903 48.3297 32.9413 48.3787 32.8923C48.4278 32.8923 48.4768 32.8923 48.4768 32.8432C48.5258 32.8432 48.5749 32.7942 48.5749 32.7451C48.6239 32.6961 48.722 32.6961 48.7711 32.598C48.8201 32.549 48.8691 32.4999 48.8691 32.598V32.6471V32.6961C48.8691 32.7942 48.722 32.7942 48.722 32.8923C48.722 32.9413 48.722 32.9413 48.722 32.9903C48.722 33.0884 48.6239 33.0394 48.5749 33.0884C48.4768 33.1375 48.4278 33.2356 48.3787 33.3336C48.3787 33.3827 48.3787 33.3827 48.3787 33.4317C48.3787 33.4317 48.4278 33.4808 48.4278 33.5298C48.4278 33.5298 48.3787 33.5298 48.3297 33.5298C48.2316 33.5298 48.2806 33.6279 48.2806 33.6769C48.2806 33.726 48.1826 33.6279 48.1826 33.726C48.1826 33.775 48.1825 33.8241 48.1335 33.8731C48.1335 33.9221 48.0354 33.9712 47.9864 33.9712H47.9373C47.9373 33.9712 47.8883 33.9712 47.8883 34.0202C47.8883 34.0202 47.8883 34.0693 47.8883 34.1183C47.8883 34.1183 47.8883 34.1674 47.8393 34.1674C47.7902 34.2164 47.7902 34.2164 47.7412 34.2654C47.7412 34.2654 47.7412 34.3145 47.7902 34.3145H47.8393C47.8393 34.3145 47.8393 34.3145 47.8883 34.3145C47.8883 34.3145 47.8883 34.3145 47.9373 34.3145C47.9373 34.3145 47.9864 34.3145 47.9864 34.2654C48.0354 34.2654 48.0354 34.2164 48.0845 34.2164C48.1825 34.1183 48.2806 34.0693 48.3787 33.9712C48.4768 33.8731 48.5258 33.726 48.6239 33.6769C48.673 33.6279 48.722 33.5788 48.7711 33.5788C48.8691 33.5298 48.8691 33.6769 48.8201 33.726C48.8201 33.726 48.8201 33.775 48.7711 33.8241C48.7711 33.8241 48.722 33.8241 48.722 33.8731C48.722 33.8731 48.673 33.9221 48.673 33.9712C48.6239 34.0202 48.6239 34.1183 48.5258 34.1674C48.4768 34.2164 48.4278 34.2164 48.3787 34.2654C48.3297 34.3145 48.3297 34.3635 48.2806 34.4126C48.2806 34.4616 48.2316 34.5106 48.3297 34.5106C48.4278 34.5106 48.4278 34.4616 48.4768 34.4126C48.5258 34.3635 48.6239 34.3635 48.673 34.3145C48.722 34.2654 48.722 34.2164 48.7711 34.1674C48.7711 34.1183 48.8201 34.0693 48.8691 34.0693C48.8691 34.0202 48.9182 34.0202 48.9672 33.9712C48.9672 33.9221 48.9672 33.9221 49.0163 33.9221C49.0653 33.9221 49.1634 33.8731 49.1634 33.9712C49.1634 34.0202 49.1143 34.0693 49.0653 34.1183C48.9672 34.2164 48.8691 34.3635 48.8201 34.4616C48.7711 34.6087 48.7711 34.7068 48.673 34.8539C48.6239 34.6578 48.5749 34.7559 48.5258 34.7559C48.4768 34.8049 48.4278 34.8049 48.3787 34.8539C48.3297 34.903 48.2806 34.952 48.2316 35.0011C48.1826 35.0992 48.0845 35.1482 47.9864 35.1972C47.9373 35.2463 47.9373 35.2463 47.8883 35.2953C47.8393 35.3444 47.7902 35.3934 47.7412 35.4424C47.6921 35.4915 47.6921 35.5405 47.6431 35.5896C47.594 35.6386 47.545 35.6877 47.545 35.7367C47.496 35.7367 47.496 35.7367 47.4469 35.7367L47.3979 35.7857C47.3979 35.8348 47.3488 35.8348 47.3488 35.8838C47.3488 35.8838 47.2998 35.9329 47.2998 35.9819C47.3488 36.08 47.594 35.8348 47.594 35.8348C47.6921 35.7367 47.7412 35.6877 47.8393 35.5896C48.0354 35.3934 48.2806 35.1482 48.4768 34.952C48.673 34.7559 48.8201 34.5597 48.9672 34.3635C49.0163 34.2654 49.1143 34.1674 49.1634 34.0693C49.2124 34.0202 49.2124 33.8731 49.3105 33.8241C49.3596 33.775 49.4576 33.8241 49.5067 33.775C49.7519 33.6769 49.899 33.3336 50.0461 33.1375C50.4875 32.598 51.076 31.3229 51.1251 31.1758C51.1741 31.0777 51.1741 30.8325 51.4193 30.7835C51.5664 30.7344 51.5664 30.3911 51.5664 30.293C51.6155 30.0969 51.6155 29.9007 51.7626 29.7536C51.9588 29.5084 52.0078 29.067 52.0078 28.9199C52.0569 28.6256 52.6454 26.6149 52.4982 25.0455C52.4492 24.7513 52.4492 22.8877 51.9588 22.2992C51.6155 21.9559 52.0078 21.4655 51.8117 20.926C51.7626 20.7789 51.9588 20.7299 52.0078 20.5827C52.1549 20.1414 51.8607 19.749 51.6155 19.7C51.4193 19.6509 51.1251 19.6509 51.027 19.4057C50.9779 19.3076 51.1741 18.8663 50.9289 18.4249C50.8308 18.2287 50.6347 17.6893 49.1634 16.5613C48.673 16.169 48.3297 15.6785 47.8883 15.2372C47.7412 14.9919 47.0055 14.3054 46.8094 14.1582C46.6623 14.0601 46.4661 13.6188 45.8285 13.3736C45.6324 13.2755 44.2102 12.1475 44.063 12.0985C43.4745 11.9023 42.4446 11.1667 42.2485 11.1176C41.1695 10.8724 40.8263 10.2839 40.4339 10.2349C40.1397 10.1858 39.306 10.1368 38.8646 9.64637C38.6194 9.40116 38.2761 9.30308 37.9328 9.49924C37.7366 9.59733 37.05 9.00882 36.0692 9.15595C35.873 9.20499 35.6768 8.81266 34.9412 8.91074C34.2546 9.00882 33.7642 8.5184 33.519 8.46936C33.2738 8.37128 31.8025 7.97894 31.1159 8.02799H30.7236C29.3014 7.83182 28.0263 7.83182 26.6531 8.02799C26.3098 8.12607 22.1413 9.20499 21.7489 9.40116C21.4056 9.59733 20.5229 9.89158 20.3267 9.98966C19.8853 10.1858 18.1198 10.7743 18.0217 10.9705C17.9727 11.0686 17.7275 11.0686 17.6294 11.1667C17.5804 11.2157 17.139 11.7061 16.5505 11.9023C16.2072 12.0494 14.4417 13.3245 14.0984 13.5697C14.0003 13.8149 12.9704 14.5506 12.7742 14.6487Z" fill="#0072CE"/>
<path d="M52.8422 19.7987C52.8422 19.9458 52.7932 20.093 52.6951 20.1911H52.646H52.597C52.5479 20.1911 52.4989 20.142 52.4499 20.093C52.4499 20.093 52.4008 20.0439 52.4008 19.9949C52.3518 19.9458 52.3518 19.9458 52.3518 19.8968C52.3518 19.8478 52.3027 19.7987 52.3027 19.7987C52.3027 19.7497 52.3027 19.7497 52.3518 19.7006C52.3518 19.6516 52.4008 19.6516 52.4008 19.6026C52.4008 19.6026 52.4499 19.5535 52.4989 19.5535C52.597 19.5045 52.7932 19.6026 52.8422 19.7987Z" fill="white"/>
<path d="M42.3958 32.6473C42.3958 32.7454 42.2977 32.7944 42.2487 32.8434C42.1996 32.8925 42.1996 33.0396 42.1016 32.9906C42.1016 32.8925 42.2487 32.7454 42.2977 32.6963C42.2977 32.6473 42.3468 32.5982 42.3958 32.6473Z" fill="white"/>
<path d="M42.7878 32.844C42.7878 32.893 42.7387 32.893 42.7387 32.942C42.6897 32.9911 42.6407 33.0401 42.5916 33.1382L42.5426 33.1873C42.4445 33.3344 42.3464 33.4325 42.1993 33.5306C42.1502 33.5796 42.0522 33.6286 42.0031 33.6777C41.9541 33.6777 41.856 33.8248 41.807 33.7758C41.7579 33.7267 41.807 33.6777 41.807 33.6286C41.807 33.5796 41.856 33.5796 41.905 33.5306C41.9541 33.4815 41.9541 33.4325 41.9541 33.3834C41.9541 33.3344 42.0031 33.2853 42.0522 33.2363C42.1012 33.1873 42.1993 33.1873 42.2483 33.1873C42.3464 33.1873 42.3464 33.1382 42.3955 33.0401C42.3955 33.0401 42.3955 32.9911 42.4445 32.9911C42.4445 32.942 42.4445 32.942 42.4935 32.942C42.5426 32.942 42.5426 32.893 42.5916 32.893C42.6407 32.844 42.6897 32.7949 42.7387 32.7949C42.8368 32.7949 42.8368 32.844 42.7878 32.844Z" fill="white"/>
<path d="M47.546 33.3832C47.546 33.4323 47.546 33.4323 47.546 33.4813C47.546 33.5304 47.497 33.5304 47.4479 33.5304C47.3989 33.5304 47.3499 33.5794 47.3008 33.5794C47.2518 33.5794 47.2027 33.6284 47.1537 33.6284C47.1537 33.6284 47.0066 33.6775 47.0556 33.6775C47.1046 33.7265 47.0556 33.7265 47.0066 33.7756C46.9575 33.7756 46.9085 33.8246 46.8594 33.7756C46.8104 33.7265 46.9085 33.6284 46.9085 33.5794C46.9575 33.5304 47.0066 33.5304 47.0556 33.4813C47.1046 33.4323 47.1537 33.4323 47.2027 33.3832C47.2518 33.3342 47.3008 33.2852 47.3499 33.2852C47.497 33.3342 47.546 33.3342 47.546 33.3832Z" fill="white"/>
<path d="M44.4574 33.5297C44.4083 33.5297 44.3593 33.5788 44.3102 33.5297C44.2612 33.4807 44.3593 33.4316 44.4083 33.4316C44.5064 33.4316 44.5064 33.5297 44.4574 33.5297Z" fill="white"/>
<path d="M44.5529 33.6289C44.602 33.6779 44.5039 33.6779 44.5529 33.6289C44.4548 33.6779 44.4548 33.678 44.4058 33.727C44.3568 33.776 44.3077 33.776 44.2587 33.8251C44.2096 33.8741 44.2096 33.9232 44.1606 33.9232C44.1115 33.9232 44.0625 33.9232 44.0625 33.8741C44.0625 33.8251 44.1115 33.776 44.1606 33.776C44.2096 33.776 44.2587 33.776 44.2587 33.727C44.3077 33.678 44.3077 33.6289 44.3077 33.6289H44.3568C44.4058 33.6289 44.4058 33.6289 44.4548 33.6289C44.4548 33.6289 44.5039 33.6289 44.5529 33.6289C44.5529 33.6289 44.5039 33.6289 44.5529 33.6289Z" fill="white"/>
<path d="M41.466 34.2666C41.3189 34.4137 41.0737 34.6099 40.9266 34.4628C40.7795 34.3157 40.8775 34.2176 40.9756 34.0704C41.1718 33.9233 41.5151 33.7271 41.6132 33.8252C41.7113 33.9724 41.5151 34.1685 41.466 34.2666Z" fill="white"/>
<path d="M46.7131 34.217C46.6641 34.217 46.6641 34.1189 46.6641 34.1189V34.0699V34.0208C46.6641 33.9718 46.7621 34.0208 46.7621 34.0208C46.8112 34.0208 46.8112 34.0208 46.8112 34.0699C46.8112 34.1189 46.7621 34.1189 46.7621 34.1679C46.7131 34.1189 46.7131 34.1679 46.7131 34.217Z" fill="white"/>
<path d="M43.7705 34.217C43.7215 34.217 43.6724 34.0699 43.7215 34.0208C43.7215 33.9718 43.7705 34.0208 43.7705 34.0208C43.8196 34.0699 43.8196 34.1189 43.7705 34.1189C43.8196 34.1679 43.8196 34.217 43.7705 34.217Z" fill="white"/>
<path d="M43.526 34.413C43.526 34.3639 43.575 34.3639 43.575 34.3149L43.6241 34.2658C43.6241 34.2168 43.575 34.2168 43.526 34.2168C43.477 34.2168 43.4279 34.2658 43.4279 34.2658C43.3789 34.3149 43.2808 34.3149 43.1827 34.3639C43.1337 34.3639 43.0846 34.3639 43.0356 34.3639C42.9865 34.3639 42.9375 34.3639 42.9375 34.413C42.9375 34.462 42.9375 34.511 42.9375 34.511C42.9865 34.6091 43.0846 34.6091 43.1827 34.6091C43.2318 34.6091 43.3298 34.5601 43.3789 34.5601C43.4279 34.511 43.477 34.462 43.526 34.413Z" fill="white"/>
<path d="M47.694 34.4131C47.743 34.4621 47.694 34.4621 47.694 34.4621L47.645 34.5112C47.645 34.5602 47.5959 34.5602 47.5959 34.5602C47.5469 34.5602 47.5469 34.5112 47.5469 34.4621C47.5469 34.4131 47.5959 34.4131 47.645 34.4131C47.645 34.4131 47.694 34.4131 47.694 34.4131Z" fill="white"/>
<path d="M42.8383 34.8546C42.7893 34.8546 42.7402 34.8056 42.7402 34.7565C42.7893 34.7075 42.8874 34.7075 42.8874 34.7565C42.9364 34.8056 42.8874 34.8546 42.8383 34.8546Z" fill="white"/>
<path d="M40.2389 35.5899C40.2389 35.5899 40.2389 35.639 40.2389 35.5899C40.1899 35.639 40.0918 35.5899 40.0918 35.5409C40.0918 35.4918 40.0918 35.4918 40.1408 35.4428C40.1899 35.3938 40.2389 35.3447 40.288 35.3447C40.337 35.2957 40.386 35.2957 40.337 35.3938C40.337 35.4428 40.288 35.4428 40.2389 35.4918C40.1899 35.4918 40.1899 35.5409 40.2389 35.5899Z" fill="white"/>
<path d="M47.2023 36.0312C47.2514 36.0312 47.2023 36.2274 47.1533 36.2274C47.0552 36.2274 47.1533 36.0312 47.2023 36.0312Z" fill="white"/>
<path d="M46.7124 36.1779C46.7615 36.3251 46.6634 36.4232 46.5653 36.5212C46.5163 36.5703 46.4672 36.5703 46.3692 36.5703C46.3201 36.5703 46.2711 36.5212 46.222 36.4722C46.173 36.3741 46.2711 36.276 46.3692 36.1779C46.4182 36.1289 46.4672 36.1289 46.5163 36.1289C46.5653 36.1289 46.6634 36.1289 46.7124 36.1779Z" fill="white"/>
<path d="M46.2704 36.7669L46.2213 36.816C46.2213 36.816 46.1723 36.816 46.1723 36.865C46.1233 36.865 46.0742 36.865 46.0742 36.865V36.816L46.1233 36.7669C46.1233 36.7669 46.1723 36.7179 46.2213 36.7669C46.2213 36.7179 46.2704 36.7669 46.2704 36.7669Z" fill="white"/>
<path d="M33.7671 15.6301C33.7671 15.7772 33.669 15.8753 33.6199 15.9734C33.5709 16.0224 33.5709 16.0715 33.5219 16.1205C33.4728 16.1695 33.4238 16.1695 33.3747 16.2186C33.2767 16.2676 33.2276 16.2676 33.1295 16.2186C33.0314 16.1205 33.1295 16.0224 33.1295 15.9243C33.0805 15.7772 33.1295 15.6301 33.2276 15.483C33.2767 15.3849 33.3747 15.2378 33.4728 15.1397C33.5219 15.0906 33.5709 15.0416 33.669 15.0906C33.7671 15.1887 33.718 15.4339 33.7671 15.6301Z" fill="white"/>
<path d="M31.6566 16.3658C31.7057 16.4639 31.7057 16.611 31.8038 16.7091C31.9019 16.8072 31.9019 17.0524 31.8528 17.0524C31.7057 17.0524 31.7547 17.1505 31.7057 17.1505C31.6076 17.1505 31.2643 17.1505 31.1662 16.9052C31.1172 16.8072 31.1172 16.7581 31.1172 16.66C31.1172 16.562 31.1662 16.2677 31.1172 16.1206C31.1172 15.9735 31.3134 15.9735 31.4114 16.0225C31.5095 16.1206 31.6566 16.3167 31.6566 16.3658Z" fill="white"/>
<path d="M35.8259 16.6103C35.7768 16.7574 35.5316 16.8065 35.6297 17.0026C35.6787 17.1007 35.5316 17.1498 35.4826 17.1498C35.2864 17.1988 35.0902 17.395 34.8941 17.2969C34.796 17.1498 34.5508 17.1007 34.5508 16.9046C34.6489 16.7084 34.845 16.7574 34.9431 16.6103C35.0412 16.6103 35.7278 16.4632 35.8259 16.6103Z" fill="white"/>
<path d="M30.9698 17.9838C30.9698 18.0328 30.9698 18.1309 30.9207 18.229C30.8226 18.3271 30.6265 18.3271 30.5774 18.3271C30.4303 18.3761 30.2341 18.3271 30.1851 18.3271C30.136 18.3271 29.9399 18.229 29.8908 18.18C29.8418 18.1309 29.8418 17.9348 29.8418 17.8857C29.8908 17.7876 29.9889 17.7386 30.087 17.7386C30.1851 17.7386 30.3322 17.6896 30.4303 17.7386C30.6265 17.8367 30.8226 17.7876 30.9207 17.8367C30.9207 17.8367 30.9698 17.9348 30.9698 17.9838Z" fill="white"/>
<path d="M34.6966 19.0138C34.5495 19.308 34.0101 20.0436 33.1273 20.2398C32.784 20.2889 32.3917 20.436 32.0974 20.1908C32.0974 20.1908 31.9503 20.0436 31.8032 19.9946C31.656 19.9456 31.607 19.9946 31.5089 19.8965C31.5089 19.8965 31.4108 19.7003 31.4599 19.6023C31.4599 19.5532 31.4108 19.4551 31.4108 19.4061C31.3618 19.308 31.2637 19.2099 31.2637 19.0628C31.2637 19.0138 31.2147 18.7686 31.3618 18.5724C31.4108 18.5233 31.558 18.2291 31.4108 18.2291C31.3618 18.2291 31.3618 18.082 31.4599 17.9839C31.607 17.8858 31.656 17.3954 32.1465 17.2483C32.4898 17.1502 32.735 16.7088 33.1273 16.7088C33.3235 16.6597 33.4706 16.7088 33.6668 16.7578C33.8139 16.8069 34.0101 16.8559 34.1081 17.003C34.1572 17.1011 34.4514 17.2483 34.5495 17.4444C34.6476 17.5915 34.7947 17.6896 34.8438 17.8368C34.8438 17.9348 34.9419 18.1801 34.9419 18.2781C34.7947 18.4253 34.7457 18.9157 34.6966 19.0138ZM33.8139 18.0329C33.8139 17.9839 33.6177 17.7877 33.5196 17.7877C33.4216 17.7387 33.2744 17.7387 33.1763 17.7387C32.9311 17.6406 32.784 17.8858 32.5878 17.9348C32.4898 17.9348 32.4407 18.0329 32.3917 18.082C32.1955 18.2291 32.0484 18.7195 31.9993 18.8176C31.9013 19.1118 32.1955 19.259 32.2936 19.259C32.4407 19.259 32.6369 19.259 32.784 19.2099C33.0292 19.1118 33.2254 18.9647 33.3725 18.7686C33.5196 18.6214 33.5687 18.4743 33.6668 18.3272C33.8629 18.131 33.8139 18.0329 33.8139 18.0329Z" fill="white"/>
<path d="M36.0693 19.0628C36.1183 19.0628 36.2164 19.1119 36.2164 19.2099C36.2164 19.308 36.1183 19.259 36.0693 19.259C35.9712 19.308 36.0203 19.4551 35.8731 19.4551C35.8241 19.4551 35.726 19.5042 35.677 19.5042C35.5298 19.5042 35.3337 19.5042 35.1865 19.4551C35.1375 19.4551 35.1375 19.4061 35.0885 19.3571C35.0394 19.308 34.9413 19.308 34.9413 19.1609C34.9413 19.1119 34.9413 19.1119 34.8923 19.1119C34.8432 19.0628 34.8923 18.9647 34.9904 18.9157C35.0394 18.9157 35.0885 18.9157 35.1375 18.9157C35.2846 18.8666 35.4317 18.8666 35.5789 18.9157C35.6279 18.9157 35.726 18.9157 35.775 18.9647C35.8731 19.0138 36.0693 19.0628 36.0693 19.0628Z" fill="white"/>
<path d="M30.8715 19.9952L30.9205 20.0443C30.9695 20.1423 30.8715 20.1914 30.8224 20.2404C30.7734 20.2895 30.6753 20.3385 30.6263 20.3875C30.5772 20.4366 30.4301 20.4856 30.381 20.4856C30.332 20.4856 30.1358 20.4856 30.0868 20.4856C29.9887 20.4856 29.8906 20.3875 29.8906 20.2895C29.9397 19.9462 30.381 19.8971 30.6263 19.75C30.7243 19.75 30.8715 19.8481 30.8715 19.9952Z" fill="white"/>
<path d="M34.2561 20.5343C34.3542 20.6324 34.4032 20.6814 34.4523 20.7795C34.5013 20.8776 34.5013 20.9756 34.5504 21.0737C34.5994 21.2209 34.4032 21.2209 34.3542 21.3189C34.3542 21.368 34.3051 21.368 34.3051 21.368C34.2561 21.368 34.158 21.368 34.109 21.3189C34.0599 21.3189 33.9619 21.3189 33.9128 21.2209C33.8638 21.1718 33.8638 21.1228 33.8638 21.0247C33.8638 20.9756 33.8638 20.8776 33.8147 20.7795C33.8147 20.7304 33.7657 20.7304 33.7657 20.6814C33.7657 20.6324 33.7657 20.6324 33.7657 20.5833C33.7166 20.4852 33.8147 20.4852 33.8147 20.3871C33.8147 20.3381 33.8147 20.2891 33.8638 20.2891C33.9128 20.2891 34.0109 20.2891 34.0599 20.3381C34.109 20.5343 34.2561 20.5343 34.2561 20.5343Z" fill="white"/>
<path d="M32.4908 20.8771C32.5889 21.0242 32.5889 21.1713 32.4908 21.3185C32.4418 21.4165 32.3437 21.5637 32.2947 21.6617C32.2456 21.7108 32.2456 21.7598 32.1966 21.8089C32.0495 21.8579 32.0004 21.7598 31.9514 21.7108C31.9514 21.6617 31.9023 21.6127 31.9023 21.6127C31.9023 21.2694 32.1476 20.779 32.2947 20.779C32.3928 20.7299 32.4418 20.828 32.4908 20.8771Z" fill="white"/>
<path d="M43.3298 37.6003C43.2318 37.6493 43.3298 37.8455 43.2808 37.9435C43.2318 38.0416 43.1337 38.0416 43.0356 38.0416C42.9375 37.9926 42.9865 37.9435 42.9865 37.8455V37.7964V37.7474C42.9865 37.7474 43.0356 37.6983 42.9865 37.6493C42.9865 37.6493 42.9375 37.6493 42.9375 37.6003C42.9375 37.6003 42.9375 37.5512 42.9375 37.5022V37.4531H42.9865C43.0356 37.4531 43.0846 37.5022 43.0846 37.5022C43.0846 37.5022 43.1337 37.5022 43.1827 37.5022H43.2318C43.2318 37.5022 43.2808 37.5022 43.2808 37.4531C43.3298 37.4531 43.3789 37.4531 43.3789 37.5022C43.3789 37.5022 43.3789 37.6003 43.3298 37.6003L43.2808 37.5512C43.3789 37.6002 43.3789 37.6003 43.3298 37.6003Z" fill="white"/>
<path d="M40.9747 35.7372C40.9257 35.7372 40.9257 35.7862 40.8766 35.7862C40.8276 35.7862 40.8276 35.7372 40.8766 35.6881C40.8766 35.6391 40.8766 35.59 40.8766 35.59C40.9257 35.492 41.0728 35.59 41.0728 35.492C41.0728 35.4429 41.1709 35.2958 41.2199 35.3448C41.269 35.3939 41.1709 35.492 41.1709 35.541C41.1709 35.59 41.1709 35.59 41.1218 35.6391C41.0728 35.6391 41.0728 35.6881 41.0237 35.7372C41.0728 35.7372 41.0237 35.7372 40.9747 35.7372Z" fill="white"/>
<path d="M43.1822 32.4516L43.1328 32.501C43.1328 32.5505 43.1822 32.5505 43.1822 32.5505C43.1822 32.5505 43.281 32.5011 43.2316 32.4516C43.2316 32.4022 43.1822 32.4516 43.1822 32.4516Z" fill="white"/>
<path d="M45.487 33.0887C45.487 33.0396 45.2909 33.0887 45.3399 33.1377C45.2909 33.1868 45.5361 33.1377 45.487 33.0887Z" fill="white"/>
<path d="M45.7332 32.3043C45.6841 32.3043 45.6841 32.2063 45.6351 32.3043C45.6351 32.3534 45.586 32.4024 45.6351 32.4024C45.6841 32.4515 45.7822 32.4515 45.7822 32.4024C45.8312 32.3534 45.8803 32.3043 45.8312 32.3043C45.7822 32.3043 45.7822 32.3043 45.7332 32.3043Z" fill="white"/>
<path d="M44.7019 32.0098C44.6528 32.0098 44.5548 32.1078 44.5548 32.1078C44.4567 32.2059 44.3586 32.304 44.3095 32.4021C44.2605 32.4511 44.2115 32.5002 44.1624 32.5492C44.1624 32.5492 44.1134 32.5983 44.1624 32.5983C44.2115 32.5983 44.2605 32.5983 44.3095 32.5492C44.3586 32.5492 44.3586 32.5002 44.4076 32.5002C44.4567 32.5002 44.4567 32.4511 44.5057 32.4511L44.5548 32.4021L44.6038 32.3531L44.6528 32.304C44.7019 32.255 44.7019 32.2059 44.7509 32.1569C44.7509 32.1569 44.8 32.0588 44.7019 32.0098C44.7509 32.0098 44.7509 32.0098 44.7019 32.0098Z" fill="white"/>
<path d="M46.517 31.9615C46.468 31.9615 46.468 31.9615 46.4189 31.9615C46.3208 31.9615 46.3208 31.9124 46.2718 32.0105C46.2718 32.0596 46.2228 32.2557 46.2718 32.2557C46.3208 32.2557 46.4189 32.1576 46.4189 32.1086C46.468 32.1086 46.566 31.9615 46.517 31.9615Z" fill="white"/>
<path d="M46.8103 32.5491C46.8593 32.5491 46.7613 32.6472 46.7122 32.6963C46.6632 32.7453 46.6141 32.6963 46.5161 32.7453C46.5161 32.7453 46.418 32.7944 46.418 32.7453C46.418 32.7453 46.418 32.6963 46.418 32.6472C46.418 32.5982 46.467 32.5982 46.5161 32.5982C46.5651 32.5982 46.5651 32.5491 46.6141 32.5491C46.6632 32.5001 46.7122 32.5491 46.8103 32.5491Z" fill="white"/>
<path d="M43.5256 32.8926C43.6237 32.8926 43.5747 32.9907 43.5256 32.9907L43.4275 33.0887C43.3294 33.1868 43.4766 32.9416 43.5256 32.8926Z" fill="white"/>
<path d="M43.2315 33.2364C43.1825 33.1874 43.0844 33.3345 43.0354 33.3836C42.9863 33.4326 42.8392 33.4816 42.9373 33.5797C43.0354 33.6288 43.1335 33.5307 43.1335 33.4816C43.1335 33.4326 43.2806 33.2855 43.2315 33.2364Z" fill="white"/>
<path d="M46.0744 33.3343C46.0744 33.3833 46.0254 33.3833 46.0254 33.3833V33.4324C46.0254 33.4324 46.0254 33.4814 46.0744 33.4814H46.1235C46.1725 33.4814 46.1725 33.4324 46.1725 33.3833C46.1725 33.3833 46.1725 33.3833 46.0744 33.3343C46.0744 33.2853 46.1235 33.3343 46.0744 33.3343Z" fill="white"/>
<path d="M46.1237 33.6289C45.9765 33.6289 45.7313 33.6289 45.6332 33.776C45.5351 33.8741 45.6332 34.0212 45.7804 34.0703C45.8294 34.0703 45.9765 34.0703 46.0256 34.0212C46.0746 33.9722 46.0746 33.8741 46.1237 33.8251C46.1727 33.776 46.2708 33.776 46.2708 33.727C46.2217 33.678 46.1727 33.6289 46.1237 33.6289Z" fill="white"/>
<path d="M48.2335 34.3153C48.1354 34.3644 47.9883 34.4625 47.9883 34.6096C48.0864 34.6096 48.3316 34.2663 48.2335 34.3153Z" fill="white"/>
<path d="M45.6337 34.1188C45.5846 34.1188 45.4375 34.0207 45.4375 34.1188C45.4375 34.2659 45.6337 34.2169 45.6337 34.1188C45.6827 34.1678 45.6827 34.1678 45.6337 34.1188C45.6827 34.1188 45.6827 34.1188 45.6337 34.1188Z" fill="white"/>
<path d="M39.0611 35.7859C39.012 35.7369 38.914 35.7859 38.8649 35.835C38.8159 35.835 38.8159 35.884 38.7668 35.884C38.7178 35.884 38.6688 35.884 38.6688 35.884C38.6197 35.9331 38.6688 35.9331 38.7178 35.9331C38.7668 35.9331 38.8159 35.9331 38.8159 35.9331C38.914 35.9331 38.963 35.9331 39.012 35.835C39.1101 35.835 39.1101 35.835 39.0611 35.7859Z" fill="white"/>
<path d="M38.425 36.0804C38.376 36.0313 38.376 36.0804 38.425 36.0804C38.3269 36.1294 38.3269 36.1294 38.2779 36.1294C38.2288 36.1294 38.2288 36.1294 38.2288 36.1785C38.2288 36.1785 38.1798 36.2275 38.2288 36.2766C38.2288 36.2766 38.2779 36.2766 38.3269 36.2766C38.376 36.2766 38.376 36.2766 38.425 36.2766C38.425 36.1785 38.425 36.1294 38.425 36.0804Z" fill="white"/>
<path d="M41.3678 35.6886C41.3188 35.7376 41.2697 35.7376 41.2697 35.7866L41.2207 35.8357C41.2697 35.8847 41.2697 35.8357 41.3188 35.8357C41.3678 35.8357 41.3678 35.8357 41.4169 35.7866C41.4659 35.7866 41.4659 35.7376 41.515 35.7376C41.564 35.6886 41.6621 35.6395 41.6621 35.5905C41.6621 35.4924 41.515 35.5905 41.515 35.5905C41.4169 35.6395 41.3678 35.6395 41.3678 35.6886Z" fill="white"/>
<path d="M41.4143 36.2763C41.4633 36.3744 41.5124 36.3744 41.5614 36.4234C41.6104 36.4234 41.7576 36.4724 41.7576 36.3744C41.7576 36.3744 41.7085 36.3253 41.7085 36.2763C41.7085 36.2272 41.6595 36.2272 41.6104 36.2272C41.5614 36.2272 41.5614 36.2272 41.5124 36.2272C41.4633 36.2272 41.3652 36.0801 41.3652 36.1291C41.3652 36.1782 41.4143 36.2763 41.4143 36.2763Z" fill="white"/>
<path d="M41.8086 36.1293C41.8086 36.1783 41.8086 36.1783 41.8576 36.2274C42.0048 36.3255 41.9557 36.1783 42.0048 36.0802C42.0048 36.0312 42.1028 35.9822 42.1028 35.9331C42.0538 35.835 41.8086 35.9822 41.8086 36.1293Z" fill="white"/>
<path d="M42.1024 36.4239C42.1515 36.4239 42.1515 36.3749 42.2005 36.3749C42.2495 36.3258 42.2986 36.3258 42.3476 36.2768C42.3476 36.2768 42.3967 36.1787 42.3476 36.1787C42.2986 36.1787 42.2495 36.2768 42.2005 36.3258C42.1515 36.3749 41.9062 36.473 41.9062 36.522C41.9062 36.571 41.9553 36.571 42.0043 36.571C42.0534 36.571 42.0534 36.571 42.0534 36.522C42.0534 36.4239 42.0534 36.4239 42.1024 36.4239Z" fill="white"/>
<path d="M42.1515 36.4727C42.1024 36.4727 42.1024 36.4727 42.0534 36.5217C42.0043 36.5217 42.0043 36.5217 41.9553 36.5707L41.9062 36.6198C41.9062 36.6688 41.9553 36.6688 41.9553 36.6688C42.0043 36.7179 42.0043 36.7179 42.0534 36.7179C42.1024 36.7179 42.1024 36.6688 42.1024 36.6688C42.1024 36.6688 42.1024 36.6688 42.1024 36.6198L42.1515 36.5707C42.2005 36.5707 42.2005 36.5217 42.1515 36.4727C42.2005 36.4727 42.2005 36.5217 42.1515 36.4727Z" fill="white"/>
<path d="M41.9545 36.7178C41.9545 36.7178 41.9055 36.7668 41.9545 36.7178C41.9055 36.7178 41.8565 36.7178 41.8565 36.7668C41.8074 36.7668 41.7584 36.8159 41.8074 36.8649C41.8074 36.8649 41.8565 36.8649 41.9055 36.8649H41.9545C41.9545 36.8649 41.9545 36.8649 42.0036 36.8159C41.9545 36.8159 42.0036 36.8159 41.9545 36.7178C41.9545 36.7668 42.0036 36.7668 41.9545 36.7178Z" fill="white"/>
<path d="M43.8191 37.6006C43.7701 37.6006 43.721 37.6006 43.721 37.6496C43.721 37.6987 43.672 37.7477 43.721 37.7477C43.8191 37.7477 43.9172 37.6987 43.9662 37.6496C43.9662 37.6496 44.1624 37.5516 44.1134 37.5516C44.0643 37.5025 43.9662 37.5516 43.8191 37.6006C43.8681 37.6006 43.8681 37.6006 43.8191 37.6006Z" fill="white"/>
<path d="M41.6608 37.503C41.6118 37.552 41.5137 37.6501 41.5137 37.6992C41.5137 37.7973 41.6118 37.7973 41.7098 37.7973C41.906 37.8463 42.1512 37.8463 42.2983 37.6992C42.3474 37.6501 42.3964 37.503 42.3474 37.4049C42.2983 37.3068 42.2003 37.4049 42.1022 37.4049C41.906 37.4049 41.7589 37.3068 41.6608 37.503Z" fill="white"/>
<path d="M44.8981 37.2082C44.8491 37.2082 44.8491 37.2082 44.8981 37.2082C44.8981 37.3063 44.9472 37.3063 44.9472 37.3063C44.9962 37.3063 45.0943 37.3553 45.1433 37.4044C45.1924 37.4534 45.1924 37.5025 45.2414 37.5025C45.2904 37.5025 45.3395 37.4534 45.3395 37.4044C45.3395 37.3553 45.3395 37.3553 45.3395 37.3063C45.3395 37.2573 45.3885 37.2573 45.3395 37.2573C45.3395 37.2082 45.2414 37.1592 45.1924 37.1592C45.1433 37.1592 45.0943 37.1592 45.0452 37.1592C44.9962 37.1592 44.9962 37.1592 44.9472 37.2082C44.9472 37.2082 44.8981 37.1592 44.8981 37.2082Z" fill="white"/>
</svg>
