<svg id="Layer_1" data-name="Layer 1" xmlns="http://www.w3.org/2000/svg" viewBox="0 0 250 58"><defs><style>.cls-1{fill:#0072ce;}.cls-2{fill:#fff;}</style></defs><g id="Campaign_logo" data-name="Campaign logo"><g id="Plan_Logo" data-name="Plan Logo"><path class="cls-1" d="M7.12,51.42c0,.43-.62.44-.63.82a.53.53,0,0,1-.21.06,1.93,1.93,0,0,1-1.76-1.93c0-.19.15-.48-.37-.41-.25,0-.2-.38-.07-.42.59-.17.65-.75,1.15-1,.32-.16.08-.2-.12-.3-1-.58-1.08-1.25-.13-2,.37-.26.41-.6,0-.75s-.34-.58-.25-.75.37-.42,0-.67c-.12-.07,0-.25.23-.31.75-.18.8-.65.26-1.25-.25-.29-.66-.75-.06-1.16a.49.49,0,0,0,.24-.5,17.55,17.55,0,0,1-.19-2,.24.24,0,0,0-.14-.24c-.76-.44-.37-.82.12-1.16a1.23,1.23,0,0,1-.44-1.68,1.12,1.12,0,0,1,.17-.21L5,35.46c-.37-.86.41-1.58.38-2.43s-.86-1.38-.67-2.21c.06-.23-.08-.51.32-.63.18-.06.22-.22.1-.44-.2-.39-.1-.75.49-.83-.64-.36-.75-.75-.32-1.2a.43.43,0,0,0,0-.61.08.08,0,0,0,0,0c-.52-.51-.57-1-.1-1.43,0-.05.16,0,.12-.15-.4-1.16.15-2.3.2-3.45,0-1-.89-1.67-.63-2.62,0-.14-.1-.22-.27-.23S4.3,19,4.37,19c.51-.19.36-.75.76-1,.75-.37.84-.71.23-1.24-.26-.23-.54-.26,0-.52s.66-1.42.14-1.95a.63.63,0,0,1-.06-.87l0,0c.28-.33.4-.57,0-.83a.93.93,0,0,1-.18-.16c.68-.56-.6-1.18.14-1.86C6,10,5.21,9,5.82,8.39c.23-.24-.17-.24-.24-.36-.19-.37-.42-.76.33-.82.14,0,.4.13.42-.19s0-.52-.24-.55c-.47-.07-.36-.34-.34-.57s.4-.23.62-.22c.78,0,1.5,0,1.66-.89,0-.31.36-.18.56-.19,2.77-.12,5.55-.21,8.33-.17a11.64,11.64,0,0,1,3,0c.25.06.68-.53,1.24-.41.32.08.67-.13.91.35.13.29,1,.24,1.17,0,.33-.44.69-.22,1-.23H26.9c.19,0,.24,0,.37-.15.24-.31.63-.35.82.07a.4.4,0,0,0,.52.21l0,0c1.19-.58,2.47-.16,3.7-.28.55-.06,1.14.12,1.66-.27a.66.66,0,0,1,.75.06c.31.24.61.55,1,0,.11-.18.45-.07.57.13.24.36.5.38.75.07s.38-.11.57-.11h2.61c.18,0,.45.22.5-.16,0-.2.34-.19.43-.13,1,.65,1.88-.31,2.87,0a11.65,11.65,0,0,0,3.28.17c.49,0,1,.17,1.44-.27a.49.49,0,0,1,.41,0c.75.65,1.41-.2,2.16,0a16.2,16.2,0,0,0,2.61.17c.29,0,.67.16.81-.33.06-.24,1.5-.08,1.78.17a1.15,1.15,0,0,0,1.5,0c.17-.19.37-.13.55-.12a15.09,15.09,0,0,1,2.33.11c.41.08,1,.3,1.41-.32.21-.31,1-.17,1.51-.06a4.55,4.55,0,0,0,1.11.11c2.25-.1,4.51.23,6.76.15.29,0,.71.17.75-.34,0-.17.24-.15.42,0,.43.46.68.48,1.06,0,.11-.12.18-.06.28,0,.67.14,1.51-.26,2,.48a.33.33,0,0,0,.23.07c.84-.81,1.91-.24,2.86-.35.66-.07,1.59.2,2,0a1,1,0,0,1,1.25.12.47.47,0,0,0,.4-.06c.23-.44.42-.68.65,0a.55.55,0,0,0,.31,0c.6-.89,1.58-.45,2.3-.4,2.38.2,4.76.22,7.13.34.81,0,1.6.09,2.41.08.35,0,.8.18,1-.36a.51.51,0,0,1,.71,0A.42.42,0,0,1,97.5,3a.56.56,0,0,0,.75.22l.11-.08c.61-.45.79-.44,1.19.2.42-.27.79-1,1.32-.07a.58.58,0,0,0,.75.08c.64-.41,1.28-.6,1.89.09a.27.27,0,0,0,.37,0,2.82,2.82,0,0,1,2.9,0c.21.16.31.08.54-.06s.87-.42,1,.24c.07.33.34.24.54.24H115c.49-.45,1.06-.16,1.61-.19.21,0,.75.21.75-.35,0-.12.47-.14.63-.05a1.51,1.51,0,0,0,1.77-.16.19.19,0,0,1,.28-.05l0,.05a.61.61,0,0,0,.86,0,1.09,1.09,0,0,0,.13-.17c.07-.12.82-.22.86-.1s.43.27.44.28c.64,1.08.81,0,.89-.21.32-.68,1-.43,1.33-.28a1.14,1.14,0,0,0,1,.06c1.14-.75,2.47-.57,3.71-.66,2.61-.18,5.2-.51,7.81-.65.14,0,.38,0,.39-.09.21-1,1.24-.38,1.82-.65.34-.15.75-.26,1.09-.37A9.22,9.22,0,0,1,143.81,0c.32,0,.12.34.22.51s.4-.2.46.11-.41.22-.42.33c0,.64-.87.89-1,1.36a1.61,1.61,0,0,0,.22,1.56,1.37,1.37,0,0,1,.26,1.58,4.22,4.22,0,0,0-.11.93c-.11.63.38,1.27-.12,1.93-.1.12-.55.92.42,1a.5.5,0,0,1,0,.36,9.62,9.62,0,0,0-.34,1.68c-.15.85-.28.92.31,1.69.1.12.12.43,0,.51-.41.36-.12,1-.61,1.28a.06.06,0,0,1,0,.06c-.38.45.62.54.33.95s-.31.7.19.93c.13.06.2.21.14.24-.75.33,0,1.12-.56,1.5-.05,0-.05.12-.08.19.87.13.31.79.55,1.17a.34.34,0,0,1-.09.47l-.13.05c-.21.07-.22.29-.18.47a4.93,4.93,0,0,1,.12,2.26c-.05.23.24.66.34,1a6.8,6.8,0,0,1-.1,2.84,6.12,6.12,0,0,0,.18,1.81c.06.33.29.63-.28.75-.19.05-.1.32-.07.49a9,9,0,0,1,.41,3.65c-.2.86.35,1.83-.48,2.61-.09.08-.15.7.23.84s.29.29.35.5a.91.91,0,0,1-.45,1.18c-.22.13-.46.26,0,.35.25,0,.24.16.26.32,0,.47-.48,1,.16,1.41.06.05.08.38-.13.39-.81.05-.62.49-.57.94a1.05,1.05,0,0,1-.26.93.82.82,0,0,0,.23,1.14,1.39,1.39,0,0,1,.27,1.57,2,2,0,0,0-.24.81c0,.8-.39,1.57-.11,2.39.06.15-.75.46-.93.38-.52-.24-1.23-.07-1.33.23-.17.5-.45.42-.81.43a21.77,21.77,0,0,0-2.68.14c-1,.12-1.94-.23-2.93-.14a2.58,2.58,0,0,0-1.64.42.4.4,0,0,1-.57,0l-.06-.07c-.16-.24-1.75-.17-2,0-.75.54-.82.48-1.91.16-.23-.07-1-.24-1.28.36a.49.49,0,0,1-.52.32,7.93,7.93,0,0,0-1.37.12.82.82,0,0,1-1-.3c-.32-.46-1,0-1.5.08s-.86.16-.86-.47c0-.34-.34-.36-.64-.36h-8.93c-.24,0-.59-.08-.56.3.07.54-.34.48-.75.47C107,51,103,51,99.09,50.72c-.34,0-.81-.23-1,.35-.1.21-.82.24-1.09,0a1.24,1.24,0,0,0-1.63-.13c-.11.05-.16.09-.28,0-1-.52-1-.48-2.12,0a1,1,0,0,1-1.18-.17.59.59,0,0,0-.8-.2c-.67.54-1.44.12-2.13.27-.48.1-.24-.42-.6-.48s-.72.3-1.07.31H82.48a1.24,1.24,0,0,1-1.08-.36c-.22-.28-.37.26-.67.26a22.18,22.18,0,0,1-3,0,16.74,16.74,0,0,0-3.81-.05c-.56.05-1.16.25-1.78.25-.33,0-.7.07-.88-.32-.09-.21-.45-.18-.45,0,0,.75-.61.37-.82.33a19.63,19.63,0,0,0-2.87-.12c-.19,0-.4-.07-.55.13s-.36.3-.45-.06c0,0-.24-.08-.3,0-1,.62-2,.11-3.06.27-.17,0-.36,0-.39-.21,0-.37-.48-.31-.59-.22-.75.5-1.54.19-2.32.28-.31,0-.7-.11-.86.3a.26.26,0,0,1-.19.09c-1.17-.7-2.38.26-3.55-.08a.27.27,0,0,0-.35.17.13.13,0,0,0,0,.06c-.09.37-.29.22-.44,0-.34-.42-.42-.45-.57-.06s-.32.21-.59.18a16.58,16.58,0,0,0-4.56,0,10.41,10.41,0,0,1-3.1.19,14.15,14.15,0,0,0-3.62,0,20.26,20.26,0,0,1-3,.25,4.22,4.22,0,0,1-1.5-.12.69.69,0,0,0-.56.06c-.75.75-1.67.28-2.51.34-.47,0-1-.3-1.41.14a.29.29,0,0,1-.39,0c-.22-.31-.4-.33-.61,0a.41.41,0,0,1-.32.08c-1-.39-1.91.19-2.88,0a7,7,0,0,0-2.68-.41,38,38,0,0,1-6.3.57c-1.23.84-2.72.51-4.08.69s-2.84.23-4.27.24a4,4,0,0,1-1.66-.83A3,3,0,0,0,7.88,52a1.12,1.12,0,0,1-.75-.54"/><path class="cls-2" d="M69.73,22.25h2.15c1.81,0,2.75-.89,2.75-2.48s-1-2.48-2.84-2.48H69.73ZM63.88,16.1c0-2.12,1.07-3.27,3-3.27h5.06c5.46,0,8.44,2.36,8.44,6.93s-2.87,6.77-8.26,6.77h-2.3v5.38H63.88Z"/><path class="cls-2" d="M82,15.43c0-1.86.85-2.75,2.48-2.75h.86c1.68,0,2.56.89,2.56,2.75V26.8h5.82c1.83,0,2.72.82,2.72,2.45v.09c0,1.68-.89,2.6-2.72,2.6H82Z"/><path class="cls-2" d="M104.93,23.72H109L107,18.18ZM110.09,28h-6.18l-1.5,4H96.5l6.83-17.63c.29-1,1.08-1.63,3.75-1.63s3.37.68,3.66,1.63l7.13,17.63h-6.18Z"/><path class="cls-2" d="M118.62,15.43c0-1.83.92-2.75,2.43-2.75h.55a2.88,2.88,0,0,1,2.66,1.39L131.11,23V12.83h5.55V29.37c0,1.83-.91,2.74-2.39,2.74h-.47a2.74,2.74,0,0,1-2.62-1.3l-7-9V32h-5.55Z"/><path class="cls-2" d="M64.34,38.2a.65.65,0,0,1,.55-.75.67.67,0,0,1,.2,0h.25a.68.68,0,0,1,.76.57v5H64.37Z"/><path class="cls-2" d="M67.34,38.26c0-.54.27-.8.71-.8h.17a.85.85,0,0,1,.75.4l2,2.6v-3h1.62v4.81c0,.53-.27.8-.7.8h-.13a.8.8,0,0,1-.75-.37l-2-2.65v3H67.34Z"/><path class="cls-2" d="M73.51,38.24h0a.7.7,0,0,1,.8-.75h3.57c.53,0,.8.24.8.75h0c0,.49-.27.75-.8.75H77v4.08H75.24V39h-.93a.69.69,0,0,1-.79-.59.81.81,0,0,1,0-.16"/><path class="cls-2" d="M79.59,42.2V38.45c0-.62.3-1,.87-1h3.76V39H81.34v.56h2.15v1.39H81.34v.65h2.89v1.5H80.47a.8.8,0,0,1-.88-.69v-.17"/><path class="cls-2" d="M87,40.11h.75c.51,0,.75-.24.75-.65s-.25-.65-.79-.65H87Zm1.14,2.25-.77-1h-.31v1.74H85.35V38.45c0-.61.31-1,.88-1h1.71c1.55,0,2.33.64,2.33,1.83A1.58,1.58,0,0,1,89.07,41l1.25,1.56c.06.07-.25.59-1,.59-.53,0-.8-.23-1.15-.75"/><path class="cls-2" d="M91.34,38.26c0-.54.27-.8.71-.8h.16a.85.85,0,0,1,.75.4l2,2.6v-3h1.62v4.81c0,.53-.26.8-.7.8h-.13a.82.82,0,0,1-.76-.37l-2-2.65v3H91.32Z"/><path class="cls-2" d="M99.76,40.68H101l-.6-1.62Zm1.5,1.24h-1.8L99,43.07H97.3l2-5.14c.08-.27.32-.48,1.09-.48s1,.21,1.07.48l2.07,5.14h-1.79Z"/><path class="cls-2" d="M103.87,38.24h0a.7.7,0,0,1,.79-.75h3.57c.54,0,.81.24.81.75h0c0,.49-.27.75-.81.75h-.9v4.08H105.6V39h-.94a.68.68,0,0,1-.78-.58.91.91,0,0,1,0-.17"/><path class="cls-2" d="M110,38.2a.66.66,0,0,1,.56-.75.61.61,0,0,1,.19,0H111a.67.67,0,0,1,.75.59.43.43,0,0,1,0,.16v4.87H110Z"/><path class="cls-2" d="M117,40.28a1.24,1.24,0,1,0-1.23,1.37A1.23,1.23,0,0,0,117,40.41v-.13m-4.17,0a2.94,2.94,0,1,1,3,2.91h0a2.82,2.82,0,0,1-2.94-2.68,1.77,1.77,0,0,1,0-.23"/><path class="cls-2" d="M119.74,38.26c0-.54.26-.8.7-.8h.16a.83.83,0,0,1,.75.4l2,2.6v-3H125v4.81c0,.53-.26.8-.7.8h-.13a.81.81,0,0,1-.76-.37l-2-2.65v3h-1.62Z"/><path class="cls-2" d="M128.15,40.68h1.19l-.61-1.62Zm1.5,1.24h-1.79l-.45,1.15h-1.7l2-5.14c.08-.27.31-.48,1.09-.48s1,.21,1.06.48l2.08,5.14h-1.8Z"/><path class="cls-2" d="M132.57,38.26c0-.54.25-.8.76-.8h.25c.49,0,.75.26.75.8v3.31H136c.54,0,.75.24.75.75h0a.69.69,0,0,1-.62.76h-3.54Z"/><path class="cls-2" d="M16.9,14.85a22.85,22.85,0,0,0-2.42,2.5c-.1.14-.46.75-.48.75s-.31.42-.37.47a7,7,0,0,0-.28.75c0,.11-.4.42-.42.49a.76.76,0,0,1-.3.75,3.89,3.89,0,0,0-.55,1.31c-.06.18-.45.63-.38,1a.78.78,0,0,1-.18.51c-.07.14,0,.63-.34.75s-.16.52-.09.65a.89.89,0,0,1,0,.75.75.75,0,0,0,.06.55c.2.3,0,.76,0,1-.06.89.57,1.15.39,1.67-.12.33.11.61.06.94s.17.39.21.48a2.34,2.34,0,0,1,.2.58c-.08.47.64,1.18.6,1.87s.68.88.75.94c.36.42.36.93.75,1.18l.49.35c.23.13,0,.29.05.36a2.94,2.94,0,0,0,.94,1.1,23.08,23.08,0,0,0,5.58,4.13,1.83,1.83,0,0,1,1,.34,9.9,9.9,0,0,0,1.62.75c.19.08.39.06.58.13l1.51.52a7.26,7.26,0,0,0,1.36.46c.37.08.75.3,1.12.37s.8-.28,1.16-.06a4,4,0,0,0,1.2.44A30.21,30.21,0,0,0,37,44a3.57,3.57,0,0,0,1.22,0c.65,0,1.39-.26,2-.3a14.94,14.94,0,0,0,2.91-.93c.3-.07.65-.4.84-.42a4.86,4.86,0,0,0,1.1-.75l.64-.38.38-.25,1.64-1.31c.12-.25.41-.34.64-.51a.2.2,0,0,1,.08-.1,1.46,1.46,0,0,1,.28-.21.42.42,0,0,0,.14-.09.18.18,0,0,0,0-.07.19.19,0,0,0,0-.09h.07s0,0,.05-.05a.13.13,0,0,1,.06-.07.07.07,0,0,0,0-.1l0,0a.18.18,0,0,1-.07-.09s0-.12.1-.15a.15.15,0,0,1,.16,0s.06.09.11.11.09,0,.09-.09a.14.14,0,0,1,0-.09s-.06,0-.09-.07,0,0,0-.06-.06-.08-.11-.09a.16.16,0,0,0-.14.08l-.06.06h0v0s0,0-.07,0h-.26l-.11,0a.57.57,0,0,0-.28.11,1,1,0,0,1-.22.09H48s0,.05-.07.06-.05,0-.06,0l0,.1a.18.18,0,0,1-.1.07.42.42,0,0,1-.33-.08.62.62,0,0,1-.18-.38s0-.11-.09-.1-.07.05-.1.08a.83.83,0,0,1-.43.28,1.31,1.31,0,0,1-.28,0h-.21c-.05,0-.06.05-.07.09v.09a.14.14,0,0,1-.16.07h0c-.05,0-.14-.07-.07-.13s.15-.06.12-.14-.07,0-.1,0a.25.25,0,0,1-.15,0c-.09,0-.2,0-.21-.12v-.06h.05a.18.18,0,0,0,.07-.05v-.09s.09-.08.11-.11.06-.12.13-.15.19,0,.22-.06,0-.16.07-.24.14-.08.06-.18-.22,0-.31.05a.33.33,0,0,1-.16.07c-.09,0-.06-.05,0-.09l.13-.14s.07-.15.18-.13h.15s0-.17-.09-.17a.69.69,0,0,0-.31.09l-.21.17c-.06.06-.12.12-.21.07h0l-.14.08c-.09.07-.2.12-.23,0l.12-.1.27,0a.38.38,0,0,0,.26-.11l0-.07a.12.12,0,0,0,0-.18.13.13,0,0,0-.18,0c-.09,0-.16.16-.25.22a.3.3,0,0,1-.2.1c-.08,0-.21-.07-.16-.16s.11,0,.15-.06.08-.1.14-.13a.54.54,0,0,1,.27-.14c.07,0,.18,0,.18-.12s0-.07-.08-.06h-.15a.34.34,0,0,1-.22-.07c-.06,0,0-.15-.1-.15s0,.06-.08.13-.26.12-.3,0,.09-.18.15-.22a.86.86,0,0,1,.23-.06h.1s0-.12.1-.12a.07.07,0,0,0,0-.09s0,0,0,0H45c-.08,0-.1.1-.14.17a.45.45,0,0,1-.19.11c-.1,0-.12-.08-.19-.11s-.09.07-.11.13-.12.08-.18.11a.8.8,0,0,0-.17.15,1.23,1.23,0,0,1-.5.16c-.18.06-.1.06-.17.1s-.29,0-.43,0l-.11.07h-.08a2.63,2.63,0,0,1-.33,0,.31.31,0,0,0-.16.11.51.51,0,0,1-.3.17c-.06,0-.1-.06-.13-.11s-.1,0-.16,0-.06.15-.09.17-.12,0-.11,0,0,0,0-.08,0-.06,0-.05-.08.05-.11.06h-.39c-.06,0-.07.07-.12.07h-.16a.17.17,0,0,0-.14,0l-.1.09h-.24a3.11,3.11,0,0,0-.61,0c-.28,0-.54.15-.82.18s-1.5.09-1.72.09a4.09,4.09,0,0,0-1.05,0h-.24s-.07-.1-.13-.12,0,.1-.24,0a1,1,0,0,0-.54,0,8,8,0,0,1-1.1-.1.91.91,0,0,1-.58-.28c-.11-.13-.3-.16-.32-.34a4.4,4.4,0,0,1,.14-1.3,6.16,6.16,0,0,1,.16-.94V34.2c.24-.25.15-.26.2-.5.08-.42.25-1,.75-1.15.23-.06.5-.2.66-.25a5.89,5.89,0,0,0,.84-.14.48.48,0,0,1,.18-.08,4.82,4.82,0,0,0,.85,0,4.74,4.74,0,0,1,.65,0c.11,0,0-.09.07-.11s.12.12.28.16a5.49,5.49,0,0,0,.7.05V32s.18.09.22.13,2.17.32,2.31.35a1.45,1.45,0,0,0,.85-.1,3.09,3.09,0,0,0,.65-.34V32a.54.54,0,0,0,.13-.47.37.37,0,0,1,0-.18V31a.38.38,0,0,1,.09-.25.27.27,0,0,0,.06-.33.65.65,0,0,0-.26-.26c-.08,0,0,0,0-.1s-.16,0-.16,0a1.74,1.74,0,0,1-.39-.05,2.7,2.7,0,0,0-.85-.13c-.46,0-.91-.19-1.36-.15-.08,0-.24.05-.28,0s0-.13-.27-.12a3.26,3.26,0,0,1-.76-.12c-.21-.07-.87,0-.94-.07a.33.33,0,0,1-.14,0c-.1,0-.15-.16-.34-.17,0,0-.08-.07-.12-.07h-.26a.51.51,0,0,1-.31-.24c0-.13.42-.53.58-.65s.31-.28.5-.26.16-.08.25-.17a14.73,14.73,0,0,1,1-1.19c.2-.17.05-.39.33-.59a1.59,1.59,0,0,0,.21-.41c.15-.24.09-.65.34-.82a.52.52,0,0,0,.11-.19.57.57,0,0,0-.07-.2,1,1,0,0,1,0-.25v-.75c0-.15.07-.25.24-.24s0-.24,0-.32a.73.73,0,0,0-.59-.56,1.24,1.24,0,0,0-1,.54,10.45,10.45,0,0,1-.75.91c-.12.05,0,.13-.16.34,0,.06-.16,0-.2.1a1,1,0,0,0-.17.38v.19c-.18.14-.21-.05-.29,0s-.09.12-.13.14c-.19.18-.23.24-.42.28s-.37.05-.43.18a.16.16,0,0,1-.3-.08,4.29,4.29,0,0,1,.13-.6c.06-.21-.28-.35-.12-.56a.32.32,0,0,0,0-.37,1.2,1.2,0,0,0-.13-.32s0-.17-.07-.34-.17.07-.19-.2-.17-.2-.25-.28-.23-.2-.36-.29a2.93,2.93,0,0,0-1.1-.48,3,3,0,0,0-1.2-.05c-.1,0-.27,0-.27-.09s0,0-.06,0-.24,0-.32,0c-.25.11,0,.22-.14.26l-.8.24a1,1,0,0,1-.29.05c-.14,0-.14.11-.31.19s-.24.88-.22,1.07c0,0,0,.12.08.1s.15.07.14.23a1.25,1.25,0,0,1-.07.43c-.05.19.08.08.06.27s.17.62.15.75.05.09.06.13a.08.08,0,0,0,.08.05c.09,0,.07.19.15.36a.82.82,0,0,0,.18.36c.06.06.06.12.1.16s.08.11.05.16-.2.18-.26.15-.36-.05-.45-.08-.41,0-.46,0-.15-.06-.22-.09-.09.07-.13.06-.11-.09-.16-.15a2.11,2.11,0,0,0-.46-.2,2.83,2.83,0,0,1-.66-.31c-.21-.15-.93-.41-1-.48s-.26-.07-.28-.09-.22-.11-.22-.16-.15-.07-.21-.12-.17-.09-.23-.06a.24.24,0,0,1-.23,0,.25.25,0,0,0-.12-.08.34.34,0,0,0-.34.11,1.61,1.61,0,0,0-.36.33,1.23,1.23,0,0,0-.14.25c0,.09-.11.13-.15.21s0,.2.08.23,0,.12.1.17.19.33.36.5a1.76,1.76,0,0,1,.33.62c.09.18.42,0,.48.26,0,.09.22.26.57.57a2.91,2.91,0,0,0,.85.41,1.83,1.83,0,0,1,1,.47.74.74,0,0,1,.54.46,6.12,6.12,0,0,1,.18,1c.1.63.34.53.23.75s.11.62.11,1.34a1.92,1.92,0,0,1-.18.65c-.16.41.12.94.05,1.11s-.15,1.13-.35,1.31a.32.32,0,0,1-.35,0c-.2-.08-.8.07-.93-.06a1.25,1.25,0,0,0-.75-.22,1.79,1.79,0,0,1-.51-.22c-.27-.13-1.34-.51-1.73-.75-1-.52-2.34-1.09-2.44-1.62,0-.22-1.5-1.17-1.74-1.51-.13-.17-.38-.45-.43-.53a3.84,3.84,0,0,0-.28-.53c-.19-.25-.43-.29-.52-.79,0-.19-.17-.09-.37-.61a8.67,8.67,0,0,1-.45-3.5,10.46,10.46,0,0,1,.58-2c.08-.24.36-.39.42-.8,0-.13.66-.55.88-.91a3.23,3.23,0,0,1,.93-.91c.17-.1,2.49-1.81,2.69-2a.94.94,0,0,1,.75-.44c.11,0,.37-.17.38-.26,0-.26,2.42-.83,2.79-1.23A4.26,4.26,0,0,1,29,16.5c.09,0,.07.11.3-.11s.56.11.76-.11A1,1,0,0,1,31,16c.56,0,.47-.28.91-.31a1,1,0,0,0,.75-.39c.1-.17,1.13-.26,1.33-.41.5-.37.86,0,1.46-.09.08,0,.34.07.48.07s.37-.23.46,0,1,.06,1.21,0,.22-.09.2,0,.6.06.76.16a.73.73,0,0,0,.75.17,3.69,3.69,0,0,1,1.14.15c.17.06-.14.17.52.19a22.45,22.45,0,0,1,2.2,1c.36,0,.46.41.84.54a14.43,14.43,0,0,1,3.14,2.09c.09.07.17.35.26.35.43,0,.84.75,1,1,.06.06.34-.11.3.39,0,.07.22,0,.22.3s.71.62.88,1.46c0,.08.12.15.15.23a9.65,9.65,0,0,1,.57,2.25,8.23,8.23,0,0,1,0,1.79,10.42,10.42,0,0,1-.59,1.79c-.14.36-.48.84-.51,1s-.1.25-.08.38,0,.21-.07.25-.26.11-.27.26-.22.1-.21.21-.23.12-.24.25-.22.16-.17.28-.08.07-.17.1a.92.92,0,0,0-.3.4c0,.06-.12,0-.13.22s-.13.13-.2.23a.44.44,0,0,1-.15.12.51.51,0,0,0,0,.27c0,.09-.14.35,0,.34s.1-.09.14-.14l.26-.17c.12-.06.27-.08.33-.21s.11-.2.19-.21h.09l.07-.06.16-.21s.11,0,.13-.06,0-.06,0-.08.08,0,.11,0l.09-.07c.06-.05.13-.09.19,0s-.24.34-.26.37a1.91,1.91,0,0,1-.18.31,1.34,1.34,0,0,1-.2.21l-.08.07a.47.47,0,0,0-.06.09c0,.06-.1.09-.13.13l-.11.16a.2.2,0,0,0-.06.22c0,.07.06.09.12.06a.24.24,0,0,0,.1-.14.45.45,0,0,1,.11-.13l.15-.09s.06-.07.09-.11a2,2,0,0,1,.23-.28.31.31,0,0,1,.15-.15s.08,0,.1-.06,0-.11.06-.12.05.08.06.11,0,.06.06.06.09,0,.12-.08a.36.36,0,0,1,.1-.14.53.53,0,0,0,.15-.08l.2-.2.13-.13c.05-.05.08-.11.13-.14s.07,0,.11,0h0a.08.08,0,0,1,.07-.05c.06,0,.06.1.06.14v.08s.06,0,.08,0,.08,0,.07.05a.15.15,0,0,1-.06.09,1.89,1.89,0,0,0-.2.2l-.08.1-.25.29-.21.25a.41.41,0,0,1-.12.14.48.48,0,0,0-.12.16,1.12,1.12,0,0,1-.17.2.28.28,0,0,0,0,.13c0,.06,0,.07-.07.12a.55.55,0,0,0-.18.31s0,.14.06.09,0-.09.09-.11l.14,0a.26.26,0,0,0,.15-.12c0-.06,0-.14.06-.18s.09,0,.14,0l.16,0a.38.38,0,0,0,.15,0h0a.09.09,0,0,0,0-.07v-.13a.09.09,0,0,0-.05-.09.14.14,0,0,1-.12-.12c0-.06,0-.06,0-.09v-.37a.08.08,0,0,1,0-.07.09.09,0,0,1,.06-.06c.06,0,.08.06.14.07h.49s.09,0,.1,0a.06.06,0,0,0,0-.06s-.06-.07-.06-.11a.12.12,0,0,1,0-.11.08.08,0,0,1,.11,0c.09,0,.19.12.29.09a.08.08,0,0,0,0-.1h0v-.05l0,0A.19.19,0,0,1,51,32a.47.47,0,0,1,.15-.13h.09s.06.06.07.09a.24.24,0,0,1,0,.12c0,.06-.09.12,0,.18a.19.19,0,0,0,.18,0h.17a.12.12,0,0,1,0,.12c0,.06-.07.1-.1.16a.43.43,0,0,1-.16.14h-.12c-.06,0-.11,0-.13.1s0,.08.07.1.13,0,.13.12-.11.2-.21.25l-.13.08-.05.06s0,.08,0,.08-.08-.06-.12-.08h-.1a.09.09,0,0,0,0,.07v.12s0,.07,0,.1.09,0,.12,0,0-.06.07-.09.09.07.09.11,0,.05-.06.08a.07.07,0,0,0,.05.08s.19-.06.19-.12h0c0-.05-.07-.12,0-.13a.14.14,0,0,1,.1,0s0,0,.08,0,.07-.07.1-.09a.57.57,0,0,1,.15-.12.72.72,0,0,0,.24-.14.73.73,0,0,0,.15-.29.26.26,0,0,1,.06-.13c.09-.09.21,0,.29-.13a.24.24,0,0,0,.07-.12.41.41,0,0,1,0-.09.24.24,0,0,0,0-.12.17.17,0,0,1,.05-.12.13.13,0,0,1,.12,0c.07.06.17,0,.22,0s0,.16-.06.2-.12.32-.26.44-.12,0-.18.08,0,.2-.09.26-.09,0-.12,0,0,.05,0,.08v.06s-.1.09,0,.12a.11.11,0,0,0,.08,0h.14s0,.05,0,0,0,0,0,0,0,0,.06,0h.12l.07-.06.12-.17A.35.35,0,0,1,53,33.1h.1l.12-.09c.06-.06.14-.07.21-.12s.1-.1.11,0h0v0c0,.05-.14.1-.16.17a.14.14,0,0,0,0,.09c0,.1-.11.08-.17.11a.58.58,0,0,0-.18.23v.09s0,0,0,.07-.07,0-.1,0,0,.09-.06.15-.07,0-.1.06v.15a.24.24,0,0,1-.15.13h0s0,0,0,0v.12a.4.4,0,0,0-.07.09.08.08,0,0,0,0,0h.19a3.73,3.73,0,0,0,.3-.26c.09-.1.16-.23.26-.34a.58.58,0,0,1,.15-.11c.11,0,.08.08,0,.13s0,.06,0,.08h-.06l-.07.09a.86.86,0,0,1-.13.2.38.38,0,0,0-.13.09.77.77,0,0,0-.07.16s0,.09,0,.09.09,0,.13-.09a.66.66,0,0,1,.19-.09.22.22,0,0,0,.08-.15s.06-.11.09-.1.07-.06.1-.11l0,0c.05-.05.15-.05.14,0s-.06.11-.09.15a2.42,2.42,0,0,0-.27.36c-.07.12,0,.27-.13.39a.52.52,0,0,1-.14.19l-.16.12a.65.65,0,0,0-.13.16.74.74,0,0,1-.23.2l-.09.09c0,.05-.09.09-.13.14s-.05.1-.08.14-.11.08-.12.17,0,0-.07,0l-.06,0a.16.16,0,0,1-.06.08s-.06.06,0,.08a1.68,1.68,0,0,0,.32-.17s.16-.17.25-.24l.63-.65c.2-.22.35-.39.51-.59a1.61,1.61,0,0,0,.21-.3c0-.06.06-.18.14-.23s.14,0,.2,0c.24-.1.39-.45.55-.65a9.66,9.66,0,0,0,1.08-2c0-.11.08-.36.32-.42s.12-.37.15-.51a1.38,1.38,0,0,1,.19-.56,1.86,1.86,0,0,0,.25-.86,13,13,0,0,0,.51-3.92c0-.31,0-2.18-.54-2.75-.33-.36,0-.82-.17-1.4,0-.14.17-.21.2-.34a.71.71,0,0,0-.38-.91c-.21,0-.5,0-.58-.29a1.76,1.76,0,0,0-.1-1c-.11-.23-.3-.75-1.78-1.87a15,15,0,0,1-1.29-1.36,7,7,0,0,0-1.1-1.07,2.44,2.44,0,0,0-1-.75c-.21-.08-1.64-1.23-1.8-1.28-.61-.2-1.66-1-1.85-1-1.07-.25-1.45-.86-1.85-.89a2.49,2.49,0,0,1-1.61-.58.75.75,0,0,0-.93-.15c-.22.13-.89-.48-1.86-.36-.21,0-.39-.33-1.12-.24a2.4,2.4,0,0,1-1.44-.46,10.1,10.1,0,0,0-2.44-.45H35a15.11,15.11,0,0,0-4.14,0c-.33.08-4.5,1.17-4.93,1.4s-1.22.47-1.45.57a13.81,13.81,0,0,0-2.3,1c-.06.19-.32.12-.39.2a3,3,0,0,1-1.08.75,22,22,0,0,0-2.46,1.71,15,15,0,0,1-1.5,1.07"/><path class="cls-2" d="M57.39,20a.44.44,0,0,1-.17.38h-.11a.48.48,0,0,1-.16-.12l-.06-.08-.08-.09a.24.24,0,0,1,0-.12v-.09l.06-.09H57c.2,0,.38.06.43.25"/><path class="cls-2" d="M46.8,33h0c0,.08-.12.12-.16.16s-.08.17-.17.12a.58.58,0,0,1,.21-.31s.1,0,.11,0"/><path class="cls-2" d="M47.25,33.25s0,.06,0,.08a1.22,1.22,0,0,0-.15.17l0,.06a3.89,3.89,0,0,1-.34.36l-.19.18s-.14.13-.18.08,0-.12,0-.15a.39.39,0,0,1,.08-.1.83.83,0,0,0,0-.15.29.29,0,0,1,.09-.15.59.59,0,0,1,.22-.05.24.24,0,0,0,.15-.13.06.06,0,0,0,0-.06.18.18,0,0,1,.05-.07l.09-.07s.11-.12.17-.09,0,.06,0,.09"/><path class="cls-2" d="M52.06,33.8a.14.14,0,0,1,0,.09S52,34,52,34l-.15.05h-.15s-.17,0-.1.08,0,.06,0,.07-.11,0-.14,0,0-.15,0-.19l.14-.1.16-.08a.49.49,0,0,1,.15-.1.11.11,0,0,1,.14.06"/><path class="cls-2" d="M48.94,33.93h-.12s.06-.09.09-.09a0,0,0,0,1,0,.09"/><path class="cls-2" d="M49.05,34l0,0-.08,0a.28.28,0,0,0-.13.11.58.58,0,0,1-.12.1h0c-.05,0-.11,0-.1-.07a.15.15,0,0,1,.1-.09l.11,0a.15.15,0,0,0,0-.13h.22"/><path class="cls-2" d="M45.9,34.69c-.15.16-.4.34-.55.2s-.07-.25,0-.37.56-.33.63-.26-.07.29-.12.43"/><path class="cls-2" d="M51.17,34.61v-.25s.08,0,.11,0,0,0,0,.06,0,.07,0,.1,0,.08,0,.09h0"/><path class="cls-2" d="M48.21,34.61s-.08-.13-.05-.2.05,0,.08,0a.2.2,0,0,1,0,.11s0,.06-.05.07"/><path class="cls-2" d="M48,34.81l0-.08s0,0,0-.06,0-.07-.05-.07h0s-.08,0-.12.06a.65.65,0,0,1-.23.09h-.27a.2.2,0,0,0,0,.11c0,.1.17.09.25.08a.37.37,0,0,0,.21-.06.65.65,0,0,0,.16-.13"/><path class="cls-2" d="M52.19,34.82h0v0l0,0s0,.05-.07.05-.06-.05,0-.09a.1.1,0,0,1,.11-.06.09.09,0,0,1,.07,0"/><path class="cls-2" d="M47.29,35.26h0s-.09-.07-.06-.11.14-.06.15,0a.07.07,0,0,1,0,.1h0"/><path class="cls-2" d="M44.63,36h0v0s-.1-.07-.11-.1,0,0,0-.08l.14-.1h.06a.41.41,0,0,1-.07.11.17.17,0,0,0,0,.1"/><path class="cls-2" d="M51.7,36.45c.06,0,0,.19-.06.19s0-.2.06-.19"/><path class="cls-2" d="M51.17,36.61A.3.3,0,0,1,51,37a.25.25,0,0,1-.18.06.15.15,0,0,1-.14-.1.24.24,0,0,1,.12-.28.36.36,0,0,1,.17-.07s.15,0,.16,0"/><path class="cls-2" d="M50.75,37.2a.05.05,0,0,1,0,0h-.05a.15.15,0,0,1-.13,0v0h.21"/><path class="cls-2" d="M38.1,15.83a.52.52,0,0,1-.14.35.51.51,0,0,1-.09.16l-.14.09a.21.21,0,0,1-.24,0c-.11-.11,0-.21,0-.33a.56.56,0,0,1,.08-.45,1,1,0,0,1,.21-.3c.07,0,.11-.11.2-.06s.08.39.11.57"/><path class="cls-2" d="M36,16.58a1,1,0,0,0,.16.35c.07.11.09.36,0,.36s-.1.11-.16.11-.45,0-.53-.23a.49.49,0,0,1,0-.24,5.23,5.23,0,0,0,0-.56c0-.14.19-.15.3-.07a1.46,1.46,0,0,1,.21.28"/><path class="cls-2" d="M40.22,16.86c0,.14-.31.2-.2.37s-.09.15-.16.17-.4.26-.6.15-.35-.18-.33-.39.3-.14.42-.27a1,1,0,0,1,.85-.07Z"/><path class="cls-2" d="M35.28,18.22a.38.38,0,0,1-.06.23.79.79,0,0,1-.36.12,1.21,1.21,0,0,1-.38,0,.9.9,0,0,1-.29-.16.71.71,0,0,1-.06-.28.31.31,0,0,1,.24-.16.59.59,0,0,1,.37,0c.21.12.42,0,.48.1a.13.13,0,0,1,.06.13"/><path class="cls-2" d="M38.15,18.28a.9.9,0,0,0-.28-.27,2.25,2.25,0,0,0-.36-.06c-.24-.09-.4.14-.59.18s-.13.1-.2.15-.34.63-.38.75a.38.38,0,0,0,.29.46h0a1.51,1.51,0,0,0,.48,0,1.44,1.44,0,0,0,.62-.44c.12-.14.2-.31.31-.45a.44.44,0,0,0,.1-.27m.91,1a2.35,2.35,0,0,1-1.6,1.24c-.34.06-.75.22-1.06,0a1,1,0,0,0-.3-.21c-.15-.07-.2,0-.32-.09a.49.49,0,0,1-.08-.29.23.23,0,0,0-.06-.19.77.77,0,0,1-.12-.36.76.76,0,0,1,.08-.49c0-.06.17-.33,0-.36s-.06-.15,0-.23.21-.6.7-.75.59-.54,1-.56a.91.91,0,0,1,.54.07c.16.07.36.1.46.23s.36.24.46.42.25.25.28.41.07.3.1.45a4.52,4.52,0,0,1-.13.75"/><path class="cls-2" d="M40.46,19.31a.14.14,0,0,1,.15.16c0,.1-.08.05-.13.07s-.07.22-.2.21a.41.41,0,0,0-.19.05,1.21,1.21,0,0,1-.5-.07.3.3,0,0,1-.08-.08.18.18,0,0,1-.14-.18c0-.13,0,0,0-.07a.1.1,0,0,1,0-.15.09.09,0,0,1,.07,0,.33.33,0,0,0,.14,0,.79.79,0,0,1,.43,0l.23.05.26.06"/><path class="cls-2" d="M35.17,20.24s0,.06,0,.07,0,.18-.1.22l-.23.13-.25.11h-.28a.26.26,0,0,1-.19-.19c.07-.36.47-.42.75-.53s.28,0,.26.19"/><path class="cls-2" d="M38.62,20.81a.76.76,0,0,1,.23.24,1.17,1.17,0,0,1,.09.32c0,.14-.12.17-.18.27s0,.06-.06.07h-.21a.18.18,0,0,1-.18-.08.53.53,0,0,1-.05-.18.46.46,0,0,0,0-.23.59.59,0,0,1,0-.08v-.09s0-.1,0-.18,0-.08,0-.09a.31.31,0,0,1,.19,0h.17"/><path class="cls-2" d="M36.85,21.15a.47.47,0,0,1,0,.46,1.85,1.85,0,0,1-.21.33.18.18,0,0,1-.11.13.22.22,0,0,1-.24-.08s-.07-.08-.07-.11c0-.35.25-.85.39-.86s.15.1.23.13"/><path class="cls-2" d="M47.8,38c-.09,0,0,.26,0,.34a.22.22,0,0,1-.27.08c-.09,0-.06-.1,0-.18v-.09s0-.06,0-.09,0,0,0,0,0-.05,0-.08v-.07h.11a.34.34,0,0,1,.12.06h.19A.08.08,0,0,1,48,38s0,.09,0,.09,0,0,0,0a0,0,0,0,0-.06,0"/><path class="cls-2" d="M45.42,36.18s-.07,0-.12,0,0-.06,0-.09a.17.17,0,0,0,0-.1c.05-.08.18,0,.23-.11s.06-.23.14-.13,0,.14,0,.2v.1s-.05.07-.08.08h-.1"/><path class="cls-2" d="M47.64,32.85a.12.12,0,0,0-.07,0c0,.05,0,.05.08,0s.09-.07.07-.1-.07,0-.08,0"/><path class="cls-2" d="M50,33.46s-.18,0-.17.06.22,0,.17-.06"/><path class="cls-2" d="M50.22,32.69s-.07-.11-.11,0,0,.09,0,.12.13,0,.17,0,.09-.08,0-.12h-.07"/><path class="cls-2" d="M49.19,32.4s-.13.08-.16.1a1.59,1.59,0,0,0-.26.32c0,.07-.09.1-.14.14s0,0,0,.06.11,0,.14,0,.06,0,.08-.07l.09-.05.05-.06.07-.07.06-.06.1-.13s.06-.12,0-.15h0"/><path class="cls-2" d="M51,32.35H50.9c-.11,0-.11-.06-.13.08a1.45,1.45,0,0,0,0,.23l.17-.14s.13-.17.06-.17"/><path class="cls-2" d="M51.31,33c.06,0,0,.11-.09.14s-.12,0-.18,0h-.11V33L51,33a.11.11,0,0,0,.11,0,.19.19,0,0,1,.18,0"/><path class="cls-2" d="M48,33.31c.09,0,0,.09,0,.12s-.1.11-.1.11,0-.21.09-.23"/><path class="cls-2" d="M47.66,33.65s-.14.11-.21.17-.21.09-.1.18.19-.06.22-.12.14-.18.09-.23"/><path class="cls-2" d="M50.55,33.71a.08.08,0,0,1,0,.07.09.09,0,0,0,0,.07h.1s.06,0,0-.08l-.07-.07s0-.06,0,0"/><path class="cls-2" d="M50.59,34a.78.78,0,0,0-.51.14c-.1.11,0,.26.13.29a.36.36,0,0,0,.25,0c0-.05.06-.15.1-.19s.14-.05.14-.11-.05-.09-.11-.1"/><path class="cls-2" d="M52.73,34.73a.27.27,0,0,0-.23.28c.07,0,.33-.34.23-.28"/><path class="cls-2" d="M50.13,34.55c-.06,0-.18-.12-.19,0s.16,0,.22,0h0"/><path class="cls-2" d="M43.49,36.21c0-.06-.14,0-.18,0h-.2s0,.06.06.07h.11c.09,0,.16,0,.2-.08s0-.07,0-.09"/><path class="cls-2" d="M42.8,36.48h0a.21.21,0,0,1-.11,0h-.07a.06.06,0,0,0,0,.08h.09a.11.11,0,0,1,.08,0c.08,0,.1-.05.06-.12"/><path class="cls-2" d="M45.77,36.11a.68.68,0,0,0-.12.12s0,0,0,.07.07,0,.1,0h.11s0,0,.07-.07.15-.08.16-.16-.13,0-.16,0l-.13.09"/><path class="cls-2" d="M45.85,36.69a.21.21,0,0,0,.17.13s.2,0,.2,0V36.7s0,0-.08,0H46c-.05,0-.12-.12-.14-.1a.15.15,0,0,0,0,.13"/><path class="cls-2" d="M46.23,36.54a.15.15,0,0,0,.06.09c.17.1.09,0,.16-.14s.08-.08.08-.13-.31,0-.3.18"/><path class="cls-2" d="M46.51,36.84l.08-.06a.58.58,0,0,0,.15-.11v-.12s-.09.1-.15.14-.28.14-.28.2a.07.07,0,0,0,.09,0s0,0,.05,0l.06-.05"/><path class="cls-2" d="M46.61,36.92a.11.11,0,0,0-.08,0h-.09s0,0,0,0,0,.06,0,.07a.14.14,0,0,0,.1.05s.05-.05,0-.08h0a.06.06,0,0,0,0-.06h0"/><path class="cls-2" d="M46.39,37.15h-.1c-.06,0-.08.05,0,.08a.11.11,0,0,0,.08,0h0a.06.06,0,0,0,0-.09h0"/><path class="cls-2" d="M48.3,38.05s-.07,0-.09.07,0,.09,0,.08a1.19,1.19,0,0,0,.26-.11s.18-.11.14-.12a.64.64,0,0,0-.33.08h0"/><path class="cls-2" d="M46.05,37.94s-.13.12-.13.18.11.09.19.1.46.05.6-.11a.33.33,0,0,0,0-.29c-.07-.11-.14,0-.23,0s-.34-.1-.48.12"/><path class="cls-2" d="M49.34,37.63v0s0,0,.08,0l.2.1s.06.08.1.09a.09.09,0,0,0,.1-.08h0a.11.11,0,0,1,0-.08v-.08s-.11-.09-.17-.1h-.34"/></g><rect class="cls-1" x="152.69" y="0.86" width="1.07" height="55.23"/></g><path class="cls-1" d="M161.86,22.67V4.06H165V19.94h4.64v2.73Z"/><path class="cls-1" d="M170.9,18.4V8.34A4.49,4.49,0,0,1,172.16,5,5.3,5.3,0,0,1,179,5a4.49,4.49,0,0,1,1.26,3.34V18.4A4.51,4.51,0,0,1,179,21.74a5.26,5.26,0,0,1-6.81,0A4.51,4.51,0,0,1,170.9,18.4Zm3.09.05c0,1.21.53,1.81,1.58,1.81s1.57-.6,1.57-1.81V8.28c0-1.19-.53-1.79-1.57-1.79S174,7.09,174,8.28Z"/><path class="cls-1" d="M182.19,18.4V4.06h3.09V18.45c0,1.2.53,1.81,1.57,1.81s1.58-.61,1.58-1.81V4.06h3.09V18.4a4.51,4.51,0,0,1-1.26,3.34,5.26,5.26,0,0,1-6.81,0A4.51,4.51,0,0,1,182.19,18.4Z"/><path class="cls-1" d="M194.05,22.67V4.06h4.43q4.88,0,4.87,5v8.56q0,5-4.87,5Zm3.1-2.65h1.23a1.77,1.77,0,0,0,1.48-.52,2.68,2.68,0,0,0,.4-1.66V8.9a2.72,2.72,0,0,0-.4-1.67,1.8,1.8,0,0,0-1.48-.51h-1.23Z"/><path class="cls-1" d="M205.39,22.67V4.06h8V6.79h-4.87v5h3.59v2.58h-3.59v5.6h5.08v2.73Z"/><path class="cls-1" d="M215.49,22.67V4.06h4.81a5.25,5.25,0,0,1,2.19.41,2.85,2.85,0,0,1,1.33,1.21,5.69,5.69,0,0,1,.63,1.73,12,12,0,0,1,.17,2.23,7.83,7.83,0,0,1-.5,3.26,3.46,3.46,0,0,1-1.73,1.61l2.42,8.16h-3L219.68,15h-1.1v7.72Zm3.09-10.2h1.21a1.55,1.55,0,0,0,1.43-.61,4.67,4.67,0,0,0,.38-2.3,4.74,4.74,0,0,0-.38-2.31,1.55,1.55,0,0,0-1.43-.61h-1.21Z"/><path class="cls-1" d="M227.68,17.38v-.91h3.19v.91H229.8v5.29h-1V17.38Z"/><path class="cls-1" d="M231.39,22.67v-6.2h1v2.61h1.09V16.47h1v6.2h-1V20h-1.09v2.68Z"/><path class="cls-1" d="M235.08,22.67l1.08-6.2h1.22l1.07,6.2h-1l-.18-1.28h-1l-.19,1.28Zm1.3-2.17h.77l-.38-2.56Z"/><path class="cls-1" d="M239,22.67v-6.2H240l1.3,3.66V16.47h.93v6.2h-.85L240,18.86v3.81Z"/><path class="cls-1" d="M160.86,27.71H165l2.27,17.1,2.55-17.1h3.68l2.57,17.1,2.28-17.1h4.12l-4.39,26.05h-3.68l-2.73-16.45-2.75,16.45h-3.68Z"/><path class="cls-1" d="M183.9,47.77V33.69A6.25,6.25,0,0,1,185.67,29a7.36,7.36,0,0,1,9.53,0A6.25,6.25,0,0,1,197,33.69V47.77a6.26,6.26,0,0,1-1.77,4.67,7.33,7.33,0,0,1-9.53,0A6.26,6.26,0,0,1,183.9,47.77Zm4.34.08c0,1.68.73,2.52,2.2,2.52s2.2-.84,2.2-2.52V33.62c0-1.68-.73-2.51-2.2-2.51s-2.2.83-2.2,2.51Z"/><path class="cls-1" d="M199.81,53.76v-26h6.73a7.35,7.35,0,0,1,3.07.57A4,4,0,0,1,211.47,30a7.8,7.8,0,0,1,.88,2.42,17.43,17.43,0,0,1,.25,3.12,11,11,0,0,1-.71,4.56,4.85,4.85,0,0,1-2.43,2.26l3.4,11.43h-4.23l-3-10.82h-1.53V53.76Zm4.33-14.29h1.69a2.19,2.19,0,0,0,2-.84,6.62,6.62,0,0,0,.54-3.23,6.65,6.65,0,0,0-.54-3.23,2.17,2.17,0,0,0-2-.85h-1.69Z"/><path class="cls-1" d="M215.68,53.76v-26h6.19q6.82,0,6.82,7v12q0,7-6.82,7ZM220,50h1.72a2.49,2.49,0,0,0,2.07-.72,3.85,3.85,0,0,0,.56-2.33V34.48a3.87,3.87,0,0,0-.56-2.34,2.49,2.49,0,0,0-2.07-.72H220Z"/><path class="cls-1" d="M231,47.56V44.84h4v2.37c0,2.11.76,3.16,2.28,3.16A2.6,2.6,0,0,0,239,49.8a2.39,2.39,0,0,0,.68-1.92,3.85,3.85,0,0,0-.14-1q-.14-.51-.27-.87a3.18,3.18,0,0,0-.54-.91l-.6-.78a8.62,8.62,0,0,0-.82-.86l-.83-.79-1-.9c-.43-.53-.81-1-1.14-1.31s-.72-.81-1.18-1.39a10.21,10.21,0,0,1-1.07-1.62,9.57,9.57,0,0,1-.66-1.76,8.07,8.07,0,0,1,.08-4.49,6,6,0,0,1,1.07-2,4.85,4.85,0,0,1,1.93-1.4,7.07,7.07,0,0,1,2.78-.51A5.9,5.9,0,0,1,241.88,29q1.6,1.74,1.61,5.31V36h-4V34.56a5.29,5.29,0,0,0-.53-2.74A1.84,1.84,0,0,0,237.3,31a2,2,0,0,0-1.64.67,2.61,2.61,0,0,0-.55,1.74,3.46,3.46,0,0,0,.21,1.18,6.33,6.33,0,0,0,.47,1,6.78,6.78,0,0,0,.88,1.14c.42.45.77.82,1,1.09l1.36,1.28c.64.63,1.15,1.15,1.52,1.56s.76.91,1.19,1.5a9.21,9.21,0,0,1,1,1.63,10,10,0,0,1,.59,1.73,8.24,8.24,0,0,1,.24,2,6.66,6.66,0,0,1-1.74,4.82,6.07,6.07,0,0,1-4.57,1.82,6,6,0,0,1-4.6-1.85A6.8,6.8,0,0,1,231,47.56Z"/></svg>