<svg id="Layer_1" data-name="Layer 1" xmlns="http://www.w3.org/2000/svg" viewBox="0 0 250 58"><defs><style>.cls-1,.cls-3{fill:#fff;}.cls-1{fill-rule:evenodd;}.cls-2{fill:#0072ce;}</style></defs><path class="cls-1" d="M3.88,52.13c0,.45-.58.45-.63.8a1.13,1.13,0,0,1-.2,0A2,2,0,0,1,1.28,51c0-.2.15-.5-.34-.4-.24,0-.2-.41,0-.46.59-.2.64-.8,1.13-1.05.29-.15,0-.2-.1-.3-1-.6-1.08-1.25-.15-2,.35-.25.4-.6,0-.75a.46.46,0,0,1-.24-.76c.15-.25.39-.4,0-.7-.1,0,0-.25.24-.3.79-.2.79-.65.25-1.25-.25-.3-.64-.8-.05-1.15a.47.47,0,0,0,.25-.5A14.36,14.36,0,0,1,2,39.35c0-.1,0-.2-.15-.25-.73-.45-.39-.8.1-1.15a1.26,1.26,0,0,1-.29-2l.05,0c-.35-.85.39-1.61.39-2.46s-.84-1.4-.64-2.25c.05-.25-.1-.5.29-.65.2-.05.25-.25.1-.45-.19-.41-.1-.71.49-.86-.63-.3-.73-.65-.34-1.15a.43.43,0,0,0,0-.65A.9.9,0,0,1,1.92,26C2,26,2.07,26,2,25.88c-.39-1.16.15-2.31.2-3.51,0-1-.89-1.7-.64-2.65,0-.16-.1-.21-.25-.26s-.29-.2-.24-.25c.49-.2.34-.8.73-1,.74-.35.84-.7.25-1.25-.25-.25-.54-.25.05-.5s.64-1.45.15-2a.64.64,0,0,1,0-.9c.29-.35.39-.55-.05-.85A.69.69,0,0,0,2,12.6c.69-.55-.59-1.2.15-1.9.54-.5-.2-1.51.39-2.16.25-.25-.15-.25-.24-.4-.2-.35-.45-.75.34-.85.15,0,.39.15.39-.2s0-.5-.24-.55c-.49,0-.35-.35-.35-.55,0-.35.39-.25.59-.25.79,0,1.52,0,1.67-.9,0-.3.34-.2.54-.2,2.84,0,5.59-.1,8.33,0a11.56,11.56,0,0,1,3,0c.24,0,.68-.56,1.22-.41.3,0,.69-.15.89.36.14.3,1,.25,1.17,0,.35-.46.69-.26,1-.26h2.6c.2,0,.25,0,.34-.15.25-.3.64-.35.84,0a.39.39,0,0,0,.54.21c1.17-.61,2.45-.16,3.68-.31.54,0,1.12.15,1.61-.3a.79.79,0,0,1,.74.05c.29.25.64.56.93-.05.1-.2.44,0,.59.15s.49.41.78,0c.15-.2.4-.1.54-.1h2.6c.2,0,.44.2.49-.15,0-.15.3-.1.4,0,1,.66,1.86-.3,2.84-.05a10,10,0,0,0,3.24.15c.49,0,1,.15,1.42-.3,0,0,.34-.1.39,0,.74.65,1.38-.2,2.16,0a14.8,14.8,0,0,0,2.6.2c.29,0,.69.15.78-.35,0-.25,1.52-.1,1.77.15a1.16,1.16,0,0,0,1.47,0c.15-.2.34-.1.54-.1a17.93,17.93,0,0,1,2.31.1,1.16,1.16,0,0,0,1.42-.3c.19-.3,1-.15,1.47,0a4.1,4.1,0,0,0,1.08.1c2.2-.1,4.41.25,6.67.15.29,0,.68.15.78-.35,0-.2.25-.15.39,0,.45.45.69.45,1.08,0,.1-.1.15,0,.25,0,.68.15,1.47-.25,2,.5,0,0,.2.1.25,0,.83-.8,1.86-.25,2.84-.35.64-.05,1.57.2,2,0a.94.94,0,0,1,1.23.1c0,.05.34,0,.39,0,.24-.45.44-.7.64,0,0,0,.29,0,.29,0,.59-.9,1.57-.45,2.26-.4,2.35.2,4.7.2,7.06.35.78,0,1.57.1,2.35.1.35,0,.79.2,1-.35a.5.5,0,0,1,.79.15.52.52,0,0,0,.83.15c.59-.45.79-.45,1.18.2.39-.25.78-1,1.32,0a.56.56,0,0,0,.74.1c.64-.4,1.27-.6,1.86.1a.29.29,0,0,0,.39,0,2.67,2.67,0,0,1,2.85,0c.24.15.34,0,.54-.05s.88-.4,1,.25c0,.35.34.25.54.25h6c.49-.45,1-.15,1.57-.2.2,0,.69.2.69-.35,0-.15.49-.15.63,0a1.53,1.53,0,0,0,1.77-.15s.15-.15.34,0a.59.59,0,0,0,1-.15c0-.1.79-.2.84-.1.1.25.44.25.44.3.64,1.11.78,0,.88-.2.3-.7.93-.45,1.33-.3a1.25,1.25,0,0,0,1,0c1.12-.75,2.45-.6,3.67-.65,2.6-.2,5.15-.5,7.75-.65.15,0,.39-.05.39-.1.2-1,1.23-.4,1.82-.65.34-.15.74-.25,1.08-.4A9.24,9.24,0,0,1,139,.18c.3,0,.1.35.2.5s.39-.2.44.1-.39.2-.44.35c-.05.65-.88.9-1,1.4a1.6,1.6,0,0,0,.24,1.55,1.35,1.35,0,0,1,.25,1.61,3.24,3.24,0,0,0-.1.95c-.1.65.39,1.3-.1,2-.1.15-.54,1,.44,1,0,0,.1.25,0,.35a11.37,11.37,0,0,0-.34,1.7c-.15.85-.29,1,.29,1.7a.61.61,0,0,1,0,.5c-.39.35-.14,1-.59,1.31,0,0,0,.05,0,.05-.4.45.63.55.34.95s-.3.7.2.95c.09.05.19.2.14.25-.73.35,0,1.15-.54,1.5a.3.3,0,0,0-.05.2c.84.15.3.81.54,1.21a.32.32,0,0,1-.19.5.37.37,0,0,0-.2.45,5.91,5.91,0,0,1,.15,2.3c-.05.25.24.65.34,1.05a6.13,6.13,0,0,1-.1,2.86,4.63,4.63,0,0,0,.2,1.8c0,.35.29.65-.29.81-.2.05-.1.3,0,.5a8.94,8.94,0,0,1,.39,3.7c-.2.85.34,1.86-.49,2.66-.1.1-.15.7.24.85s.3.3.35.5a1,1,0,0,1-.44,1.2c-.25.15-.45.25,0,.35.24,0,.24.2.24.35.05.51-.49,1,.15,1.46,0,0,.1.4-.15.4-.78,0-.64.5-.59.95a.94.94,0,0,1-.24.9.9.9,0,0,0,.19,1.15,1.42,1.42,0,0,1,.25,1.61,1.84,1.84,0,0,0-.25.8c0,.8-.39,1.6-.1,2.4.05.15-.73.45-.93.4-.54-.25-1.22-.05-1.32.25-.15.51-.44.46-.79.46a15.59,15.59,0,0,0-2.64.15,28.75,28.75,0,0,1-2.9-.15,2.31,2.31,0,0,0-1.62.45.38.38,0,0,1-.63,0c-.15-.25-1.72-.2-2,0-.68.55-.83.5-1.91.15-.24,0-1-.25-1.27.35a.43.43,0,0,1-.54.3,6.84,6.84,0,0,0-1.38.15.82.82,0,0,1-1-.3c-.29-.45-1,0-1.52.1s-.83.15-.83-.5c0-.35-.34-.35-.64-.35h-8.83c-.24,0-.58-.1-.53.3,0,.55-.35.5-.74.45-3.87-.2-7.75-.15-11.62-.45-.35,0-.84-.25-1.08.35-.1.2-.79.25-1.08,0a1.2,1.2,0,0,0-1.62-.15c-.1,0-.15.1-.29,0-1-.5-1-.5-2.11,0a1,1,0,0,1-1.18-.15.54.54,0,0,0-.78-.2c-.69.55-1.43.1-2.11.25-.49.1-.25-.45-.59-.5s-.69.3-1.08.3c-1.52,0-3.09,0-4.61,0A1.16,1.16,0,0,1,77.25,51c-.2-.3-.39.25-.69.25a20.46,20.46,0,0,1-3-.05,15.89,15.89,0,0,0-3.77,0c-.54,0-1.18.25-1.77.25-.34,0-.69.1-.88-.3-.1-.2-.44-.2-.44-.05,0,.75-.59.35-.79.35a18,18,0,0,0-2.84-.1c-.2,0-.39,0-.54.15s-.34.3-.44,0c0,0-.25,0-.3,0-1,.6-2,.1-3,.25a.29.29,0,0,1-.39-.2c0-.35-.49-.3-.59-.25-.73.5-1.52.2-2.3.3-.3.05-.69-.1-.84.3,0,0-.14.1-.19.1-1.18-.7-2.36.25-3.53-.05-.2,0-.3.05-.35.25-.1.35-.29.2-.44.05-.34-.45-.39-.45-.59-.05s-.29.2-.59.2a17,17,0,0,0-4.51,0,10.73,10.73,0,0,1-3.09.2,12.31,12.31,0,0,0-3.58,0,19.56,19.56,0,0,1-3,.25,3.91,3.91,0,0,1-1.52-.1.66.66,0,0,0-.54.05c-.73.75-1.67.25-2.5.35-.49.05-1-.3-1.42.15a.25.25,0,0,1-.39-.05c-.2-.3-.4-.35-.59,0-.05.05-.25.1-.3.05-.93-.4-1.91.2-2.84,0a6.7,6.7,0,0,0-2.65-.4,43.09,43.09,0,0,1-6.23.6c-1.22.85-2.7.5-4,.7s-2.8.15-4.22.25a3.77,3.77,0,0,1-1.66-.85,2.79,2.79,0,0,0-1.53-.5A2.77,2.77,0,0,0,3.88,52.13Z"/><path class="cls-2" d="M60,16.36c0-2.16,1-3.31,3-3.31h5c5.39,0,8.34,2.41,8.34,7s-2.85,6.86-8.19,6.86H65.92v5.41H60Zm5.79,6.21H68c1.77,0,2.7-.9,2.7-2.5s-1-2.51-2.8-2.51H65.82v5Z"/><path class="cls-2" d="M78,15.71c0-1.91.83-2.76,2.45-2.76h.83c1.67,0,2.55.9,2.55,2.76V27.18h5.74c1.81,0,2.7.85,2.7,2.45v.1c0,1.71-.89,2.61-2.7,2.61H77.94V15.71Z"/><path class="cls-2" d="M105.75,28.38H99.62l-1.48,4H92.31l6.77-17.84c.29-1,1.08-1.65,3.72-1.65s3.34.7,3.63,1.65l7.06,17.84h-6.13Zm-5.1-4.31h4.07l-2.06-5.61Z"/><path class="cls-3" d="M162.09,11.32c-.07,0-.1,0-.08,0S162.06,11.36,162.09,11.32Zm0,9.49a.12.12,0,0,0-.06-.14l-.13-.1a.26.26,0,0,0,0,.16.09.09,0,0,1,.11,0Zm-.24,1a.14.14,0,0,0-.11,0s0,0,0,.05S161.82,21.9,161.82,21.84Zm-.11-2.1q0,.09,0,.06s0,0,.08,0,0-.1,0-.08S161.75,19.74,161.71,19.74Zm.08,1.2c.05,0,.06,0,0-.05S161.79,20.87,161.79,20.94Zm.14-3.64c0,.05,0,.07,0,.05S162,17.32,161.93,17.3Zm0-.13s0,0,0,0l0,0s0,0,0,0Zm-.13,2.26c0,.05,0,.08,0,.1s.08,0,.08-.1Zm-.05-9.78c0,.07,0,.09,0,0S161.77,9.65,161.72,9.65Zm-.08,4s0,.06,0,.11,0,.07.08.05A.19.19,0,0,0,161.64,13.66Zm.05.51c0-.07,0-.11-.05-.11S161.62,14.17,161.69,14.17Zm-.09,8.6c0,.09,0,.14,0,.16s.11,0,.11-.1S161.64,22.75,161.6,22.77Zm.08-.4c0,.06.07.08.14.08s.09,0,.08-.1A.36.36,0,0,0,161.68,22.37Zm.19,1.25h0s0,0,0-.05S161.87,23.6,161.87,23.62Zm0-1.83c0,.07,0,.11.06.11a.08.08,0,0,0,.05-.11Z"/><path class="cls-2" d="M114.23,15.71c0-1.86.88-2.76,2.4-2.76h.54a2.84,2.84,0,0,1,2.65,1.4l6.77,9V13.05h5.49V29.73c0,1.86-.88,2.76-2.35,2.76h-.49a2.69,2.69,0,0,1-2.6-1.3L119.72,22V32.34h-5.49Z"/><path class="cls-2" d="M60.48,38.7a.68.68,0,0,1,.74-.75h.24a.68.68,0,0,1,.74.75v4.91H60.48Z"/><path class="cls-2" d="M63.47,38.75c0-.55.25-.8.69-.8h.15a.83.83,0,0,1,.78.4l2,2.61V38h1.62v4.86c0,.55-.24.8-.69.8h-.14a.72.72,0,0,1-.74-.4l-2-2.65v3H63.47V38.75Z"/><path class="cls-2" d="M69.55,38.75a.69.69,0,0,1,.79-.75h3.53c.54,0,.78.25.78.7v0c0,.5-.24.75-.78.75H73v4.11H71.27V39.5h-.93A.69.69,0,0,1,69.55,38.75Z"/><path class="cls-2" d="M75.59,42.76V39c0-.65.29-1,.88-1h3.68v1.5H77.3v.55h2.11v1.41H77.3v.7h2.85v1.5H76.47C75.93,43.61,75.59,43.36,75.59,42.76Z"/><path class="cls-2" d="M84.06,43l-.78-1.05H83v1.75H81.27V39c0-.65.29-1,.88-1h1.72c1.52,0,2.3.65,2.3,1.85A1.62,1.62,0,0,1,85,41.56l1.22,1.55s-.24.6-1,.6A1.38,1.38,0,0,1,84.06,43Zm-1.12-2.31h.73c.49,0,.79-.25.79-.65s-.25-.65-.79-.65H83v1.3Z"/><path class="cls-2" d="M87.21,38.75c0-.55.24-.8.68-.8H88a.85.85,0,0,1,.79.4l2,2.61V38h1.62v4.86c0,.55-.25.8-.69.8h-.15a.71.71,0,0,1-.73-.4l-2-2.65v3H87.21Z"/><path class="cls-2" d="M97,42.46H95.25l-.44,1.15H93.09l2-5.21c.1-.3.3-.5,1.08-.5s1,.2,1.08.5l2.06,5.21H97.5Zm-1.47-1.25h1.18l-.59-1.66Z"/><path class="cls-2" d="M99.61,38.75a.7.7,0,0,1,.79-.75h3.53c.54,0,.78.25.78.7v0c0,.5-.24.75-.78.75h-.88v4.11h-1.72V39.5h-.93C99.86,39.5,99.61,39.25,99.61,38.75Z"/><path class="cls-2" d="M105.7,38.7a.67.67,0,0,1,.73-.75h.25a.67.67,0,0,1,.73.75v4.91H105.7Z"/><path class="cls-2" d="M108.44,40.81a2.84,2.84,0,0,1,2.89-3,2.79,2.79,0,0,1,2.9,3,2.84,2.84,0,0,1-2.9,2.95A2.81,2.81,0,0,1,108.44,40.81Zm4.17,0a1.27,1.27,0,0,0-1.23-1.41,1.42,1.42,0,1,0,1.23,1.41Z"/><path class="cls-2" d="M115.31,38.75c0-.55.24-.8.69-.8h.14a.85.85,0,0,1,.79.4l2,2.61V38h1.62v4.86c0,.55-.25.8-.69.8h-.15a.71.71,0,0,1-.73-.4l-2-2.65v3h-1.62Z"/><path class="cls-2" d="M125.11,42.46h-1.76l-.44,1.15h-1.72l2-5.21c.1-.3.3-.5,1.08-.5s1,.2,1.08.5l2.06,5.21h-1.76Zm-1.47-1.25h1.18l-.59-1.66Z"/><path class="cls-2" d="M128,38.75c0-.55.24-.8.73-.8H129c.49,0,.73.25.73.8v3.36h1.67c.54,0,.79.25.79.7v0c0,.5-.25.75-.79.75H128Z"/><path class="cls-2" d="M13.54,15.11a22.4,22.4,0,0,0-2.4,2.5c-.1.15-.44.75-.49.8s-.3.4-.35.45-.24.65-.29.7-.39.41-.44.51a.75.75,0,0,1-.29.8c-.3.25-.5,1.25-.54,1.3s-.45.65-.4,1c.05.2-.09.35-.19.5s-.05.65-.35.75-.14.51-.09.66a1,1,0,0,1,0,.75.79.79,0,0,0,0,.55c.2.3,0,.8,0,.95,0,.9.54,1.15.4,1.7-.1.35.1.6,0,1s.14.41.19.51a2.12,2.12,0,0,1,.2.6c-.1.5.64,1.2.59,1.9s.68.9.73,1c.35.45.35.95.74,1.2a2.55,2.55,0,0,0,.49.36c.24.15,0,.3,0,.35a3.1,3.1,0,0,0,.93,1.1,21.35,21.35,0,0,0,5.54,4.16,1.52,1.52,0,0,1,.93.35,8.57,8.57,0,0,0,1.62.75c.2.1.39.05.59.15s1.32.5,1.47.55a6.29,6.29,0,0,0,1.33.45c.34.1.73.3,1.12.4s.79-.3,1.13-.05a3.85,3.85,0,0,0,1.18.45,26.1,26.1,0,0,0,6.23.4,2.85,2.85,0,0,0,1.22,0c.64,0,1.38-.25,2-.3a15.13,15.13,0,0,0,2.9-1c.29,0,.63-.4.83-.45a4,4,0,0,0,1.08-.75c.05,0,.64-.4.64-.4a3.27,3.27,0,0,0,.39-.25c.15-.1,1.62-1.31,1.62-1.31.1-.25.39-.35.64-.5,0-.05,0-.05.09-.1a1,1,0,0,1,.3-.2c.05,0,.1,0,.14-.1l.05,0s0,0,0-.1a0,0,0,0,1,.05,0s0,0,0,0l0-.05a0,0,0,0,1,.05,0s0-.1,0-.1-.05,0-.1-.1,0-.1.1-.15.1,0,.15,0,0,.1.09.1a.11.11,0,0,0,.1-.1s0,0,.05-.1-.05,0-.1,0,0,0,0,0a.11.11,0,0,0-.1-.1s-.09,0-.14,0l-.05.05h0v0s-.05,0-.05,0h-.2a0,0,0,0,0-.05,0s0,.05-.09.05a.71.71,0,0,0-.3.1.35.35,0,0,1-.19.1h-.15l0,.05-.05,0c0,.05,0,.05,0,.1s-.05,0-.1,0a.32.32,0,0,1-.34-.1.57.57,0,0,1-.15-.4s0-.1-.09-.1-.05,0-.1.1a.73.73,0,0,1-.44.3,2.17,2.17,0,0,0-.25,0c-.05,0-.15,0-.2,0s0,.05,0,.1-.05,0-.05.1-.1.1-.15,0-.15,0,0-.15.15,0,.1-.15-.05,0-.1,0a.18.18,0,0,1-.15,0c-.09,0-.19,0-.19-.15v0l.05-.05,0,0v-.1s.09-.1.09-.1,0-.1.15-.15.2,0,.2,0,0-.15.05-.25.14-.1,0-.2-.19,0-.29,0-.1.1-.15.1-.05,0,0-.1l.15-.15s0-.15.2-.15a.16.16,0,0,0,.14,0c.05-.1,0-.15-.09-.15a.71.71,0,0,0-.3.1.52.52,0,0,0-.19.15c0,.05-.1.1-.2.05h-.05s-.1,0-.15.1-.19.1-.24-.05.1-.1.1-.1l.29,0a.53.53,0,0,0,.25-.1s0,0,0,0,0-.3-.14-.2-.15.15-.25.25a.39.39,0,0,1-.19.1s-.2,0-.15-.15.1-.05.15-.1l.14-.15.3-.15c.05,0,.19,0,.19-.1s-.05-.05-.09-.05h-.15a.45.45,0,0,1-.25,0s0-.15-.1-.15,0,0-.09.15-.25.1-.3,0,.1-.2.15-.2a.36.36,0,0,1,.24-.05h.1s0-.1.1-.1,0-.1,0-.1h-.2c-.09,0-.09.1-.14.15a.38.38,0,0,1-.2.1c-.1,0-.1-.1-.19-.1s-.1.1-.1.15-.1.1-.2.1l-.15.15c-.14.15-.34.1-.49.15s-.09.05-.14.1-.3,0-.45,0l-.09.05s0-.05-.1-.05a1.49,1.49,0,0,1-.34,0c-.05,0-.1,0-.15.1s-.25.15-.3.15-.09-.05-.14-.1a.09.09,0,0,0-.15,0c-.05,0-.05.15-.1.15s-.1,0-.1,0,.05-.05.05-.1,0,0-.05,0l-.09,0h-.25c-.05,0-.05,0-.1,0s0-.05-.1-.05,0,.05-.09.1h-.15s-.1,0-.15,0l-.1.1h-.24a2.78,2.78,0,0,0-.59,0c-.29.05-.54.15-.83.2s-1.52.1-1.72.1-1-.05-1,0h-.25s0-.1-.14-.1,0,.1-.25,0-.29-.05-.54-.05-1-.1-1.08-.1a1.08,1.08,0,0,1-.58-.3c-.1-.15-.3-.15-.3-.35a4.4,4.4,0,0,1,.15-1.3c.05-.2.1-.91.15-1s0,0,0-.1c.25-.25.15-.25.2-.5s.25-1,.69-1.15a4.11,4.11,0,0,0,.63-.25,3,3,0,0,0,.84-.15s.1,0,.19-.1c.3,0,.54.05.84,0a4.06,4.06,0,0,1,.64,0c.09,0,0-.1.05-.1s.14.1.29.15a3.21,3.21,0,0,0,.69.05s0-.05,0-.1.15.1.2.1a17.12,17.12,0,0,0,2.31.35,1.22,1.22,0,0,0,.83-.1,2.63,2.63,0,0,0,.64-.35c0-.05,0-.1,0-.15a.61.61,0,0,0,.14-.45.3.3,0,0,1,0-.2c.05-.1,0-.15,0-.25s0-.2.1-.25a.31.31,0,0,0,0-.35,1.08,1.08,0,0,0-.24-.25c-.1-.05,0,0,0-.1s-.15,0-.15,0a1.31,1.31,0,0,1-.39-.05,2.28,2.28,0,0,0-.84-.16,11.48,11.48,0,0,0-1.37-.15c-.1,0-.25.05-.3.05s0-.15-.29-.15a3.39,3.39,0,0,1-.74-.1c-.19-.05-.88,0-.93-.05a.16.16,0,0,1-.14,0c-.1-.05-.15-.15-.35-.2a.17.17,0,0,1-.1,0c-.09,0-.19,0-.24,0s-.29-.1-.29-.25.39-.55.58-.65.3-.3.49-.25.15-.1.25-.15a11.39,11.39,0,0,1,1-1.2c.2-.15.05-.4.34-.6.1-.05.2-.35.25-.4.15-.25.1-.65.34-.86l.1-.2c.05-.1,0-.15,0-.2s0-.15,0-.25v-.75c0-.15,0-.25.25-.25s0-.25,0-.35-.25-.55-.59-.55a1.1,1.1,0,0,0-.93.55c-.15.2-.64.85-.69.9s0,.15-.15.35c-.05,0-.14,0-.19.1a1.81,1.81,0,0,0-.15.35c0,.05.05.15,0,.2s-.2-.05-.29,0l-.15.16c-.2.15-.25.25-.44.3a.58.58,0,0,0-.44.2c-.05.1-.3.1-.3-.05a2.18,2.18,0,0,1,.15-.61c0-.2-.3-.35-.1-.55a.24.24,0,0,0,0-.35.93.93,0,0,1-.1-.35c-.1-.15.05-.15-.1-.35s-.14.05-.19-.2-.15-.2-.25-.3-.24-.2-.34-.3a3,3,0,0,0-1.08-.5,3.12,3.12,0,0,0-1.18-.05c-.09,0-.24,0-.24-.1a0,0,0,0,0-.05-.05.41.41,0,0,0-.34.05c-.25.1,0,.2-.15.25s-.64.2-.79.25a1.43,1.43,0,0,1-.29.05c-.15,0-.15.1-.29.2-.3.15-.25.9-.25,1.1s0,.1.1.1.15.05.15.25a1.54,1.54,0,0,1-.05.45c-.05.2.05.1.05.25s.19.66.14.76,0,.1,0,.15a0,0,0,0,0,.05.05c.1,0,.1.2.15.35s.1.3.19.35.05.1.1.15.1.1.05.15-.19.2-.24.15-.35-.05-.45-.1-.39.05-.44,0-.14-.05-.24-.1-.1.05-.15.05-.1-.1-.15-.15-.29-.15-.49-.2a2.45,2.45,0,0,1-.63-.3c-.2-.15-.94-.4-.94-.5s-.24-.05-.29-.1-.25-.1-.25-.15-.14-.05-.19-.1a.22.22,0,0,0-.25-.05.14.14,0,0,1-.19,0,.38.38,0,0,0-.15-.1.28.28,0,0,0-.34.1,1.17,1.17,0,0,0-.35.35c-.05.1-.09.15-.14.25a.69.69,0,0,1-.15.2c-.05.1-.05.2.1.25s0,.15.1.2.19.35.34.5a1.78,1.78,0,0,1,.34.65c.1.2.39.05.49.25a2.64,2.64,0,0,0,.54.55,2.6,2.6,0,0,0,.84.4,1.65,1.65,0,0,1,1,.45c.09.05.29,0,.54.45a5.83,5.83,0,0,1,.19,1.06c.1.65.35.55.25.75s.1.6.1,1.35a1.91,1.91,0,0,1-.2.65c-.15.4.1,1,.05,1.1s-.15,1.16-.34,1.36-.25,0-.35,0c-.54.3-1.13.45-1.27.3s-.59-.2-.74-.25a1.44,1.44,0,0,1-.49-.2c-.24-.15-1.32-.51-1.72-.76-1-.5-2.3-1.1-2.4-1.65-.05-.2-1.52-1.2-1.72-1.5s-.39-.45-.44-.55-.09-.4-.14-.5-.45-.3-.54-.81c0-.2-.15-.1-.4-.6a9.28,9.28,0,0,1-.44-3.5,8.53,8.53,0,0,1,.59-2c.1-.25.34-.4.44-.8,0-.15.64-.55.89-.95a3.79,3.79,0,0,1,.93-.9c.19-.1,2.45-1.86,2.65-2.06a1,1,0,0,1,.78-.45c.1,0,.39-.15.39-.25s2.41-.85,2.75-1.25a3,3,0,0,1,1.18-.4c.09,0,.09.1.29-.1s.54.1.78-.1a.89.89,0,0,1,.89-.35c.54,0,.49-.3.88-.3a.86.86,0,0,0,.74-.4c.09-.2,1.12-.25,1.32-.4.49-.4.83.05,1.47-.1.1,0,.34.05.49.05s.39-.2.44-.05a4.63,4.63,0,0,0,1.23.05s.2-.1.2-.05.58.05.68.15a.83.83,0,0,0,.74.2,3.09,3.09,0,0,1,1.13.15c.19.05-.15.15.54.2a17.31,17.31,0,0,1,2.15.95c.35,0,.44.4.84.55a14.57,14.57,0,0,1,3.14,2.15c.09.05.14.35.24.35.44,0,.83.81,1,1.06.05.05.34-.1.29.4,0,.1.2-.05.25.3s.69.6.88,1.45c0,.1.1.15.15.25A9.19,9.19,0,0,1,47,25.43a7.63,7.63,0,0,1-.05,1.8,12.6,12.6,0,0,1-.59,1.8,8.62,8.62,0,0,0-.49,1c0,.16-.1.26-.1.41a.37.37,0,0,1,0,.25c-.09,0-.24.1-.29.25s-.2.1-.2.2-.24.1-.24.25-.2.15-.15.3-.1,0-.15.1a1.12,1.12,0,0,0-.29.4c0,.05-.1,0-.15.2s-.15.15-.19.25-.15.1-.15.15a.37.37,0,0,0,0,.25c0,.1-.15.35,0,.35s.1-.1.15-.15a.37.37,0,0,1,.24-.15,1.08,1.08,0,0,0,.34-.2s.1-.2.2-.2h.1a0,0,0,0,0,0,0,2.43,2.43,0,0,0,.14-.2c.05,0,.1,0,.15,0s0,0,0-.1.1,0,.1,0,0-.05.1-.1.14-.1.19,0-.24.35-.24.4-.1.2-.2.3l-.19.2s0,0-.1,0,0,.05,0,.1l-.15.15c-.05.05-.05.1-.1.15s-.09.1,0,.25,0,.1.1.05.1-.1.1-.15.05-.1.1-.15.1,0,.15-.1,0-.05.09-.1a1.33,1.33,0,0,1,.25-.3l.15-.15s.09,0,.09,0,0-.1.05-.1,0,0,0,.1,0,0,.05,0a.11.11,0,0,0,.1-.1s.05-.1.1-.15.1,0,.14-.1l.2-.2.15-.15c0-.05,0-.1.14-.15h.1s0,0,0-.05l.05-.05s0,.1,0,.15v.1H47s.1,0,0,0,0,0,0,.1l-.2.2-.1.1c-.09.1-.14.2-.24.3s-.15.15-.2.25l-.14.15s-.1.1-.1.15a.39.39,0,0,1-.2.2.18.18,0,0,0-.05.15.11.11,0,0,1-.1.1,1.25,1.25,0,0,0-.19.3s0,.15.05.1,0-.1.1-.1a.16.16,0,0,1,.14,0,.16.16,0,0,0,.15-.15s0-.15.05-.15.1,0,.15,0,.09-.05.14-.05a.18.18,0,0,0,.15,0v-.1s0,0,0,0l.05-.05s0,0-.05-.1-.1-.05-.1-.1,0-.05.05-.1a.17.17,0,0,0,0-.1v0a0,0,0,0,1,.05-.05l0,0s.1,0,.14,0h.3c.05,0,.1,0,.1,0v0c0-.05,0-.05,0-.1s0-.1,0-.1.05,0,.1,0,.19.15.29.1,0,0,0-.1l0-.05a0,0,0,0,0,0,0c-.05-.05,0-.15,0-.2l.15-.15c.05,0,.05,0,.09,0s0,0,0,.1,0,.1,0,.1-.09.15,0,.2.09,0,.19,0H48s0,.1,0,.1,0,.1-.1.15l-.15.15a.17.17,0,0,0-.1.05s-.09,0-.14.1,0,.1.05.1a.16.16,0,0,1,.14.15c0,.15-.1.2-.19.25s-.1,0-.15.1l0,.05-.05.1a.17.17,0,0,1-.1-.05h0l0,.05a0,0,0,0,0,0,0v.2a.17.17,0,0,0-.05.1c0,.05.1,0,.1,0s0,0,0-.1.1,0,.1.1-.05.05-.05.1,0,.05.05.1.2,0,.2-.1,0-.1,0-.15.05,0,.1,0,.05.05.09.05,0-.05.1-.1.1-.1.15-.1.2,0,.25-.15l.14-.3c0-.05,0-.1,0-.15s.2,0,.3-.15,0,0,0-.1,0,0,0-.1a.07.07,0,0,0,0-.1.17.17,0,0,1,0-.1c.05,0,.1,0,.1,0s.15,0,.2,0,0,.15-.05.2-.1.3-.25.45-.14.05-.19.1,0,.2-.1.25-.1,0-.1,0a.17.17,0,0,0,0,.1v0c0,.05-.1.1,0,.15h.1c.05,0,.05,0,.1,0l.05,0,0,0s0,0,0,0v0l0-.05,0,.05s.1,0,.1,0l0-.05c.05,0,.1-.1.1-.15l.15-.15c.05,0,.09,0,.09-.05a.11.11,0,0,0,.1-.1c0-.05.15-.05.2-.15s.1-.1.1,0v.1c0,.1-.15.1-.15.2v.1c0,.1-.1,0-.15.1a.48.48,0,0,0-.19.25v.1a.17.17,0,0,1,.05.1h-.1c-.1,0-.05.1-.05.15s-.1,0-.1.05a.18.18,0,0,1-.05.15s-.1.1-.15.1h0s0,0,0,0V35a0,0,0,0,1,0,0l-.1.1a0,0,0,0,0,.05,0h.14a0,0,0,0,0,0,0s0,0,.1,0,.2-.15.3-.25.14-.25.24-.3.1-.1.15-.1.1.1.05.15a.15.15,0,0,1-.05.1,0,0,0,0,0,0,.05.17.17,0,0,0-.05.1s0,.15-.15.2-.09.05-.14.1,0,.11-.1.16,0,.1.05.1.1,0,.14-.1.15,0,.2-.11.05-.1.1-.15a.11.11,0,0,1,.1-.1s0,0,.09-.1,0-.05.05-.05.15,0,.15.05,0,.1-.1.15a1.5,1.5,0,0,0-.24.36,1.31,1.31,0,0,1-.15.4c0-.2-.1-.1-.15-.1s-.09.05-.14.1L49,35.9a.5.5,0,0,1-.25.2l-.09.1-.15.15s0,.1-.1.15-.1.1-.1.15h-.1l0,.05s-.05,0-.05.1a.17.17,0,0,0,0,.1c0,.1.29-.15.29-.15l.25-.25.63-.65a4.31,4.31,0,0,0,.49-.6c.05-.11.15-.21.2-.31s0-.2.15-.25.15,0,.19,0c.25-.1.4-.45.54-.65a10.93,10.93,0,0,0,1.08-2c0-.1,0-.35.3-.4s.14-.4.14-.5a1,1,0,0,1,.2-.55,1.63,1.63,0,0,0,.25-.86,14.77,14.77,0,0,0,.49-3.95c-.05-.3-.05-2.21-.54-2.81-.35-.35.05-.85-.15-1.4,0-.15.15-.2.2-.35a.71.71,0,0,0-.4-.9c-.19-.05-.49-.05-.59-.3a1.93,1.93,0,0,0-.09-1c-.1-.2-.3-.75-1.77-1.9a16.22,16.22,0,0,1-1.27-1.35,8.76,8.76,0,0,0-1.08-1.11,2.67,2.67,0,0,0-1-.8c-.2-.1-1.62-1.25-1.77-1.3-.59-.2-1.62-.95-1.81-1-1.08-.25-1.43-.85-1.82-.9a2.59,2.59,0,0,1-1.57-.6.73.73,0,0,0-.93-.15c-.2.1-.88-.51-1.86-.36-.2,0-.4-.35-1.13-.25s-1.18-.4-1.42-.45a8.69,8.69,0,0,0-2.41-.45h-.39a13.88,13.88,0,0,0-4.07,0c-.34.1-4.51,1.2-4.9,1.41s-1.23.5-1.43.6a15.36,15.36,0,0,0-2.3,1c-.05.1-.3.1-.39.2a2.88,2.88,0,0,1-1.08.75c-.35.15-2.11,1.45-2.45,1.7A5.61,5.61,0,0,1,13.54,15.11Z"/><path class="cls-3" d="M53.61,20.37a.61.61,0,0,1-.14.4h-.1s-.1-.05-.15-.1a.17.17,0,0,1,0-.1c-.05-.05-.05-.05-.05-.1a.17.17,0,0,0,0-.1c0-.05,0-.05,0-.1s.05-.05.05-.1a.17.17,0,0,1,.1-.05C53.37,20.07,53.56,20.17,53.61,20.37Z"/><path class="cls-3" d="M43.17,33.49c0,.1-.1.15-.15.2s-.05.2-.15.15.15-.25.2-.3S43.12,33.44,43.17,33.49Z"/><path class="cls-3" d="M43.56,33.69c0,.05-.05.05-.05.1a.69.69,0,0,0-.15.2l0,0a1.14,1.14,0,0,1-.34.35s-.15.1-.2.15-.14.15-.19.1,0-.1,0-.15.05-.05.09-.1a.18.18,0,0,0,0-.15c0-.05.05-.1.1-.15A.3.3,0,0,1,43,34c.1,0,.1,0,.14-.15a0,0,0,0,1,.05,0c0-.05,0-.05,0-.05s.05,0,.1,0,.1-.1.15-.1S43.61,33.69,43.56,33.69Z"/><path class="cls-3" d="M48.31,34.24v.1s-.05,0-.09,0-.1,0-.15,0-.1.05-.15.05-.15,0-.1,0,0,.05,0,.1-.09,0-.14,0,0-.15,0-.2.09,0,.14-.1.1-.05.15-.1.1-.1.15-.1S48.31,34.19,48.31,34.24Z"/><path class="cls-3" d="M45.23,34.39s-.1,0-.15,0,.05-.1.1-.1S45.28,34.39,45.23,34.39Z"/><path class="cls-3" d="M45.32,34.49s0,0,0,0-.1,0-.14.1-.1,0-.15.1-.05.1-.1.1-.1,0-.1,0a.11.11,0,0,1,.1-.1s.1,0,.1,0a.15.15,0,0,0,0-.1h.24Z"/><path class="cls-3" d="M42.24,35.14c-.15.16-.4.36-.54.21s-.05-.26,0-.41.54-.35.64-.25S42.28,35,42.24,35.14Z"/><path class="cls-3" d="M47.48,35.09s0-.1,0-.1v-.1s.1,0,.1,0,0,0,0,0,0,.05,0,.1S47.48,35,47.48,35.09Z"/><path class="cls-3" d="M44.54,35.09s-.1-.15,0-.2,0,0,0,0,.05.1,0,.1S44.59,35.09,44.54,35.09Z"/><path class="cls-3" d="M44.3,35.3s0,0,0-.11l0,0s0,0-.09,0a.17.17,0,0,0-.1,0c-.05,0-.15,0-.25.11H43.8s-.09,0-.09,0v.1c0,.1.14.1.24.1s.15,0,.2,0Z"/><path class="cls-3" d="M48.46,35.3c0,.05,0,.05,0,.05l-.05,0c0,.05,0,.05,0,.05s0-.05,0-.1,0-.05.09-.05Z"/><path class="cls-3" d="M43.61,35.75a.11.11,0,0,1-.1-.1c.05,0,.15,0,.15,0S43.66,35.75,43.61,35.75Z"/><path class="cls-3" d="M41,36.5h0a.1.1,0,0,1-.15,0c0-.05,0-.05,0-.1s.1-.1.15-.1.1,0,0,0,0,.05-.1.1S41,36.45,41,36.5Z"/><path class="cls-3" d="M48,37c.05,0,0,.2,0,.2S47.92,37,48,37Z"/><path class="cls-3" d="M47.48,37.1c.05.15,0,.25-.14.35s-.1,0-.2,0-.1,0-.15-.1,0-.2.15-.3a.18.18,0,0,1,.15-.05A.27.27,0,0,1,47.48,37.1Z"/><path class="cls-3" d="M47,37.7l0,0a0,0,0,0,0-.05,0h-.1v0l0,0a.07.07,0,0,1,.1,0C47,37.65,47,37.7,47,37.7Z"/><path class="cls-3" d="M34.54,16.11a.75.75,0,0,1-.15.35c0,.05,0,.1-.1.15s-.1.05-.15.1a.21.21,0,0,1-.24,0c-.1-.1,0-.2,0-.3A.51.51,0,0,1,34,16a1.46,1.46,0,0,1,.24-.35s.1-.1.2,0S34.49,15.91,34.54,16.11Z"/><path class="cls-3" d="M32.43,16.86c0,.1,0,.25.14.35s.1.35,0,.35-.1.1-.14.1-.45,0-.54-.25a.45.45,0,0,1-.05-.25,2,2,0,0,0,0-.55c0-.15.19-.15.29-.1A1.15,1.15,0,0,1,32.43,16.86Z"/><path class="cls-3" d="M36.6,17.11c-.05.15-.3.2-.2.4s-.1.15-.15.15-.39.25-.59.15-.34-.2-.34-.4.29-.15.39-.3C35.81,17.11,36.5,17,36.6,17.11Z"/><path class="cls-3" d="M31.74,18.51a.54.54,0,0,1,0,.25.51.51,0,0,1-.34.1,1,1,0,0,1-.39,0,.84.84,0,0,1-.3-.15c-.05-.05-.05-.25-.05-.3a.27.27,0,0,1,.25-.15c.1,0,.24-.05.34,0s.39,0,.49.1A.5.5,0,0,1,31.74,18.51Z"/><path class="cls-3" d="M35.47,19.57a2.54,2.54,0,0,1-1.57,1.25c-.34.05-.74.2-1-.05a1,1,0,0,0-.3-.2c-.14-.05-.19,0-.29-.1s-.1-.2-.05-.3,0-.15,0-.2a.74.74,0,0,1-.14-.35.78.78,0,0,1,.09-.51c0-.05.2-.35,0-.35s0-.15,0-.25.2-.6.69-.75c.34-.1.59-.55,1-.55a1,1,0,0,1,.54.05.79.79,0,0,1,.44.25c0,.1.34.25.44.45s.25.25.3.4.09.35.09.45S35.52,19.47,35.47,19.57Zm-.88-1a.51.51,0,0,0-.3-.25.8.8,0,0,0-.34,0c-.25-.1-.39.15-.59.2s-.15.1-.2.15a2.39,2.39,0,0,0-.39.76.35.35,0,0,0,.29.45,1.7,1.7,0,0,0,.5-.05,1.31,1.31,0,0,0,.58-.45,2.76,2.76,0,0,0,.3-.46C34.63,18.66,34.59,18.56,34.59,18.56Z"/><path class="cls-3" d="M36.84,19.61a.16.16,0,0,1,.15.15c0,.11-.1.06-.15.06s-.05.2-.2.2-.14.05-.19.05A1.6,1.6,0,0,1,36,20c-.05,0-.05-.05-.1-.1s-.15-.05-.15-.21,0-.05-.05-.05,0-.15.1-.2h.15a.66.66,0,0,1,.44,0,.3.3,0,0,1,.2.05A1.65,1.65,0,0,0,36.84,19.61Z"/><path class="cls-3" d="M31.64,20.57l.05.05c0,.1-.05.15-.1.2s-.15.1-.19.15a.53.53,0,0,1-.25.1h-.29a.22.22,0,0,1-.2-.2c.05-.35.49-.4.74-.55A.27.27,0,0,1,31.64,20.57Z"/><path class="cls-3" d="M35,21.12a.88.88,0,0,1,.2.25c.05.1.05.2.1.3s-.15.15-.2.25a0,0,0,0,1,0,0,.27.27,0,0,1-.19,0,.2.2,0,0,1-.2-.1c0-.05,0-.1,0-.2a.54.54,0,0,0-.05-.25c0-.05,0-.05,0-.1v-.1c-.05-.1,0-.1,0-.2s0-.1.05-.1a.3.3,0,0,1,.2.05C34.88,21.12,35,21.12,35,21.12Z"/><path class="cls-3" d="M33.26,21.47a.37.37,0,0,1,0,.45c0,.1-.15.25-.2.35s-.05.1-.09.15-.2-.05-.25-.1a.17.17,0,0,0,0-.1c0-.35.25-.85.39-.85S33.21,21.42,33.26,21.47Z"/><path class="cls-3" d="M44.1,38.55c-.1.05,0,.25-.05.35s-.15.1-.25.1,0-.1,0-.2v-.1a.08.08,0,0,0,0-.1,0,0,0,0,1,0-.05V38.4h0s.09.05.09.05H44a0,0,0,0,0,0-.05c.05,0,.1,0,.1.05s0,.1,0,.1l-.05,0C44.15,38.55,44.15,38.55,44.1,38.55Z"/><path class="cls-3" d="M41.74,36.65s0,.05-.09.05,0-.05,0-.1v-.1c.05-.1.19,0,.19-.1s.1-.2.15-.15-.05.15-.05.2,0,0,0,.1,0,.05-.1.1Z"/><path class="cls-3" d="M44,33.29l-.05.05a0,0,0,0,0,.05,0s.1,0,0-.1S44,33.29,44,33.29Z"/><path class="cls-3" d="M46.26,33.94s-.2,0-.15.05S46.31,34,46.26,33.94Z"/><path class="cls-3" d="M46.5,33.14s0-.1-.1,0,0,.1,0,.1.15,0,.15,0,.1-.1.05-.1Z"/><path class="cls-3" d="M45.47,32.84s-.15.1-.15.1a1.58,1.58,0,0,0-.24.3l-.15.15s0,0,0,0a.18.18,0,0,0,.15,0c.05,0,.05,0,.1,0s0-.05.1-.05l0,0,0-.05.05,0s0-.1.1-.15a.11.11,0,0,0-.05-.15Z"/><path class="cls-3" d="M47.29,32.79h-.1c-.1,0-.1,0-.15.05s0,.25,0,.25a.23.23,0,0,0,.15-.15C47.24,32.94,47.34,32.79,47.29,32.79Z"/><path class="cls-3" d="M47.58,33.39c.05,0,0,.1-.1.15s-.1,0-.19.05-.1,0-.1,0v-.1c0-.05.05-.05.1-.05s0,0,.09,0S47.48,33.39,47.58,33.39Z"/><path class="cls-3" d="M44.29,33.74c.1,0,.05.1,0,.1l-.09.1C44.1,34,44.25,33.79,44.29,33.74Z"/><path class="cls-3" d="M44,34.09c0-.05-.14.1-.19.15s-.2.1-.1.2a.14.14,0,0,0,.19-.1C43.9,34.29,44.05,34.14,44,34.09Z"/><path class="cls-3" d="M46.84,34.19a0,0,0,0,1-.05.05v0a0,0,0,0,0,.05.05h0s0-.05,0-.1l-.1-.05S46.89,34.19,46.84,34.19Z"/><path class="cls-3" d="M46.89,34.49c-.14,0-.39,0-.49.15s0,.25.15.3.2,0,.24,0,.05-.15.1-.2.15,0,.15-.1S46.94,34.49,46.89,34.49Z"/><path class="cls-3" d="M49,35.2c-.1,0-.24.15-.24.3S49.1,35.15,49,35.2Z"/><path class="cls-3" d="M46.4,35s-.19-.1-.19,0,.19.1.19,0Z"/><path class="cls-3" d="M39.83,36.7c0-.05-.15,0-.2,0s0,0-.09,0h-.1c0,.05,0,.05.05.05h.1c.09,0,.14,0,.19-.1S39.88,36.75,39.83,36.7Z"/><path class="cls-3" d="M39.19,37s0,0,0,0-.09,0-.14,0,0,0,0,.05a.07.07,0,0,0,0,.1h.19Z"/><path class="cls-3" d="M42.14,36.6s-.1,0-.1.1l0,0s0,0,.1,0,0,0,.09,0,0-.05.1-.05.15-.1.15-.15-.15,0-.15,0S42.14,36.55,42.14,36.6Z"/><path class="cls-3" d="M42.19,37.2c0,.1.09.1.14.15s.2,0,.2-.05a.17.17,0,0,1-.05-.1c0-.05,0-.05-.1-.05h-.1c-.05,0-.14-.15-.14-.1A.5.5,0,0,0,42.19,37.2Z"/><path class="cls-3" d="M42.58,37.05c0,.05,0,.05.05.1s.1,0,.14-.15.1-.1.1-.15S42.58,36.9,42.58,37.05Z"/><path class="cls-3" d="M42.87,37.35c.05,0,.05-.05.1-.05s.1,0,.15-.1.05-.1,0-.1-.1.1-.15.15-.29.15-.29.2,0,0,.09,0,0,0,0,0S42.82,37.35,42.87,37.35Z"/><path class="cls-3" d="M42.92,37.4c-.05,0-.05,0-.1.05s0,0-.1,0l0,0c0,.05,0,.05,0,.05s.05,0,.1,0a0,0,0,0,0,0,0v-.05l.05,0s0,0,0-.1S43,37.45,42.92,37.4Z"/><path class="cls-3" d="M42.73,37.65h0s-.1,0-.1.05-.1,0-.05.1h.15l0,0s0,0,0-.1C42.73,37.7,42.77,37.7,42.73,37.65Z"/><path class="cls-3" d="M44.59,38.55c-.05,0-.1,0-.1.05s-.05.1,0,.1a.38.38,0,0,0,.25-.1s.19-.1.14-.1-.14,0-.29,0Z"/><path class="cls-3" d="M42.43,38.45s-.15.15-.15.2.1.1.2.1a.62.62,0,0,0,.59-.1.31.31,0,0,0,0-.3c0-.1-.15,0-.25,0S42.53,38.25,42.43,38.45Z"/><path class="cls-3" d="M45.67,38.15h0c0,.1,0,.1,0,.1a.38.38,0,0,1,.2.1c.05,0,.05.1.1.1a.11.11,0,0,0,.1-.1v-.1s0,0,0,0-.1-.1-.15-.1h-.15c-.05,0-.05,0-.1,0S45.67,38.1,45.67,38.15Z"/><rect class="cls-3" x="152.69" y="2.04" width="1.07" height="55.23"/><path class="cls-3" d="M161.86,22.67V4.06H165V19.94h4.64v2.73Z"/><path class="cls-3" d="M170.9,18.4V8.34A4.49,4.49,0,0,1,172.16,5,5.3,5.3,0,0,1,179,5a4.49,4.49,0,0,1,1.26,3.34V18.4A4.51,4.51,0,0,1,179,21.74a5.26,5.26,0,0,1-6.81,0A4.51,4.51,0,0,1,170.9,18.4Zm3.09.05c0,1.21.53,1.81,1.58,1.81s1.57-.6,1.57-1.81V8.28c0-1.19-.53-1.79-1.57-1.79S174,7.09,174,8.28Z"/><path class="cls-3" d="M182.19,18.4V4.06h3.09V18.45c0,1.2.53,1.81,1.57,1.81s1.58-.61,1.58-1.81V4.06h3.09V18.4a4.51,4.51,0,0,1-1.26,3.34,5.26,5.26,0,0,1-6.81,0A4.51,4.51,0,0,1,182.19,18.4Z"/><path class="cls-3" d="M194.05,22.67V4.06h4.43q4.88,0,4.87,5v8.56q0,5-4.87,5Zm3.1-2.65h1.23a1.77,1.77,0,0,0,1.48-.52,2.68,2.68,0,0,0,.4-1.66V8.9a2.72,2.72,0,0,0-.4-1.67,1.8,1.8,0,0,0-1.48-.51h-1.23Z"/><path class="cls-3" d="M205.39,22.67V4.06h8V6.79h-4.87v5h3.59v2.58h-3.59v5.6h5.08v2.73Z"/><path class="cls-3" d="M215.49,22.67V4.06h4.81a5.25,5.25,0,0,1,2.19.41,2.85,2.85,0,0,1,1.33,1.21,5.69,5.69,0,0,1,.63,1.73,12,12,0,0,1,.17,2.23,7.83,7.83,0,0,1-.5,3.26,3.46,3.46,0,0,1-1.73,1.61l2.42,8.16h-3L219.68,15h-1.1v7.72Zm3.09-10.2h1.21a1.55,1.55,0,0,0,1.43-.61,4.67,4.67,0,0,0,.38-2.3,4.74,4.74,0,0,0-.38-2.31,1.55,1.55,0,0,0-1.43-.61h-1.21Z"/><path class="cls-3" d="M227.68,17.38v-.91h3.19v.91H229.8v5.29h-1V17.38Z"/><path class="cls-3" d="M231.39,22.67v-6.2h1v2.61h1.09V16.47h1v6.2h-1V20h-1.09v2.68Z"/><path class="cls-3" d="M235.08,22.67l1.08-6.2h1.22l1.07,6.2h-1l-.18-1.28h-1l-.19,1.28Zm1.3-2.17h.77l-.38-2.56Z"/><path class="cls-3" d="M239,22.67v-6.2H240l1.3,3.66V16.47h.93v6.2h-.85L240,18.86v3.81Z"/><path class="cls-3" d="M160.86,27.71H165l2.27,17.1,2.55-17.1h3.68l2.57,17.1,2.28-17.1h4.12l-4.39,26.05h-3.68l-2.73-16.45-2.75,16.45h-3.68Z"/><path class="cls-3" d="M183.9,47.77V33.69A6.25,6.25,0,0,1,185.67,29a7.36,7.36,0,0,1,9.53,0A6.25,6.25,0,0,1,197,33.69V47.77a6.26,6.26,0,0,1-1.77,4.67,7.33,7.33,0,0,1-9.53,0A6.26,6.26,0,0,1,183.9,47.77Zm4.34.08c0,1.68.73,2.52,2.2,2.52s2.2-.84,2.2-2.52V33.62c0-1.68-.73-2.51-2.2-2.51s-2.2.83-2.2,2.51Z"/><path class="cls-3" d="M199.81,53.76v-26h6.73a7.35,7.35,0,0,1,3.07.57A4,4,0,0,1,211.47,30a7.8,7.8,0,0,1,.88,2.42,17.43,17.43,0,0,1,.25,3.12,11,11,0,0,1-.71,4.56,4.85,4.85,0,0,1-2.43,2.26l3.4,11.43h-4.23l-3-10.82h-1.53V53.76Zm4.33-14.29h1.69a2.19,2.19,0,0,0,2-.84,6.62,6.62,0,0,0,.54-3.23,6.65,6.65,0,0,0-.54-3.23,2.17,2.17,0,0,0-2-.85h-1.69Z"/><path class="cls-3" d="M215.68,53.76v-26h6.19q6.82,0,6.82,7v12q0,7-6.82,7ZM220,50h1.72a2.49,2.49,0,0,0,2.07-.72,3.85,3.85,0,0,0,.56-2.33V34.48a3.87,3.87,0,0,0-.56-2.34,2.49,2.49,0,0,0-2.07-.72H220Z"/><path class="cls-3" d="M231,47.56V44.84h4v2.37c0,2.11.76,3.16,2.28,3.16A2.6,2.6,0,0,0,239,49.8a2.39,2.39,0,0,0,.68-1.92,3.85,3.85,0,0,0-.14-1q-.14-.51-.27-.87a3.18,3.18,0,0,0-.54-.91l-.6-.78a8.62,8.62,0,0,0-.82-.86l-.83-.79-1-.9c-.43-.53-.81-1-1.14-1.31s-.72-.81-1.18-1.39a10.21,10.21,0,0,1-1.07-1.62,9.57,9.57,0,0,1-.66-1.76,8.07,8.07,0,0,1,.08-4.49,6,6,0,0,1,1.07-2,4.85,4.85,0,0,1,1.93-1.4,7.07,7.07,0,0,1,2.78-.51A5.9,5.9,0,0,1,241.88,29q1.6,1.74,1.61,5.31V36h-4V34.56a5.29,5.29,0,0,0-.53-2.74A1.84,1.84,0,0,0,237.3,31a2,2,0,0,0-1.64.67,2.61,2.61,0,0,0-.55,1.74,3.46,3.46,0,0,0,.21,1.18,6.33,6.33,0,0,0,.47,1,6.78,6.78,0,0,0,.88,1.14c.42.45.77.82,1,1.09l1.36,1.28c.64.63,1.15,1.15,1.52,1.56s.76.91,1.19,1.5a9.21,9.21,0,0,1,1,1.63,10,10,0,0,1,.59,1.73,8.24,8.24,0,0,1,.24,2,6.66,6.66,0,0,1-1.74,4.82,6.07,6.07,0,0,1-4.57,1.82,6,6,0,0,1-4.6-1.85A6.8,6.8,0,0,1,231,47.56Z"/></svg>