<svg width="121" height="104" viewBox="0 0 121 104" fill="none" xmlns="http://www.w3.org/2000/svg">
<path d="M55.7305 103.085H0V60.7648C0 45.184 3.28831 32.8879 9.86493 23.8764C16.4416 14.8648 27.7158 6.90604 43.6876 0L55.7305 22.4867C45.9082 27.0346 39.1181 31.5825 35.36 36.1304C31.6019 40.5941 29.5094 45.8999 29.0823 52.048H55.7305V103.085ZM120.685 103.085H64.9548V60.7648C64.9548 45.184 68.2431 32.8879 74.8197 23.8764C81.3964 14.8648 92.6706 6.90604 108.642 0L120.685 22.4867C110.863 27.0346 104.073 31.5825 100.315 36.1304C96.5568 40.5941 94.4642 45.8999 94.0371 52.048H120.685V103.085Z" fill="#F1C400"/>
</svg>
