<svg width="316" height="316" viewBox="0 0 316 316" fill="none" xmlns="http://www.w3.org/2000/svg">
<path d="M156.546 221.277L243.824 239.343L239.02 262.551L46.3934 222.678L51.1973 199.47L138.475 217.536L136.233 228.367C136.129 228.867 136.229 229.388 136.51 229.816C136.79 230.243 137.229 230.541 137.73 230.645L152.042 233.607C152.54 233.706 153.058 233.604 153.482 233.323C153.906 233.042 154.201 232.605 154.304 232.107L156.546 221.277Z" fill="#0079C1"/>
<path d="M210.046 102.578L214.21 82.4642L140.671 67.2422L136.508 87.3558L70.6745 73.7287L45.6942 194.41L139.253 213.777L141.495 202.946C141.545 202.697 141.643 202.461 141.785 202.25C141.927 202.04 142.109 201.86 142.321 201.72C142.533 201.581 142.771 201.485 143.02 201.439C143.269 201.392 143.526 201.396 143.774 201.449L158.085 204.412C158.332 204.463 158.567 204.562 158.775 204.705C158.984 204.847 159.162 205.029 159.3 205.241C159.438 205.452 159.532 205.689 159.578 205.937C159.624 206.185 159.62 206.44 159.567 206.687L157.325 217.517L250.9 236.887L275.88 116.205L210.046 102.578ZM143.873 88.8803L146.656 75.4351L205.449 87.605L202.666 101.05L143.873 88.8803Z" fill="#0079C1"/>
<path d="M155.41 207.827L144.858 205.643L140.394 227.211L150.946 229.395L155.41 207.827Z" fill="#74CEE2"/>
</svg>
